solid __tracked_surface.stl
facet normal 0 0 0
outer loop
vertex 2.809265e+00 -3.435936e+00 -3.414941e+00
vertex 1.156859e-01 -2.579881e+00 -2.778295e+00
vertex 1.868332e+00 -3.136910e+00 -3.734100e+00
endloop
endfacet
facet normal 0 0 0
outer loop
vertex -3.050045e+00 2.588012e+00 -2.170194e-01
vertex -3.050045e+00 2.588012e+00 -2.778295e+00
vertex -3.895322e+00 2.817985e+00 -1.075657e+00
endloop
endfacet
facet normal 0 0 0
outer loop
vertex 1.169482e+01 -1.429004e+00 1.584296e+00
vertex 1.126814e+01 -3.001121e+00 -1.075657e+00
vertex 1.169482e+01 -1.429004e+00 -1.075657e+00
endloop
endfacet
facet normal 0 0 0
outer loop
vertex -2.219175e+00 -6.330451e-01 2.390143e+00
vertex -1.793457e+00 8.776367e-01 1.574707e+00
vertex -3.158204e+00 -6.330451e-01 2.534723e+00
endloop
endfacet
facet normal 0 0 0
outer loop
vertex -4.588379e+00 3.006543e+00 1.214744e+00
vertex -3.895322e+00 2.817985e+00 -1.075657e+00
vertex -4.631133e+00 3.018175e+00 -7.230033e-01
endloop
endfacet
facet normal 0 0 0
outer loop
vertex -3.895322e+00 5.311482e-01 2.084777e+00
vertex -4.979004e+00 1.889355e+00 1.559608e+00
vertex -5.571469e+00 -7.302818e-01 2.953722e+00
endloop
endfacet
facet normal 0 0 0
outer loop
vertex -1.609520e+00 1.789618e+00 1.304619e+00
vertex -1.357910e+00 2.127637e+00 1.189123e+00
vertex -4.588379e+00 3.006543e+00 1.214744e+00
endloop
endfacet
facet normal 0 0 0
outer loop
vertex 1.169482e+01 -1.429004e+00 1.584296e+00
vertex 9.513851e+00 -8.347272e-01 6.269822e-01
vertex 9.008133e+00 -6.656708e-01 3.039475e+00
endloop
endfacet
facet normal 0 0 0
outer loop
vertex 9.513851e+00 -8.347272e-01 -1.075657e+00
vertex 1.169482e+01 -1.429004e+00 1.584296e+00
vertex 1.169482e+01 -1.429004e+00 -1.075657e+00
endloop
endfacet
facet normal 0 0 0
outer loop
vertex 7.220673e+00 -2.100869e-01 6.269822e-01
vertex 6.161558e+00 7.871380e-02 6.269822e-01
vertex 5.235310e+00 3.311001e-01 1.388734e+00
endloop
endfacet
facet normal 0 0 0
outer loop
vertex -5.571469e+00 -7.725230e-01 -5.012249e+00
vertex -4.979004e+00 1.889355e+00 -5.012252e+00
vertex -3.895322e+00 -8.143782e-02 -5.012251e+00
endloop
endfacet
facet normal 0 0 0
outer loop
vertex -2.219175e+00 2.361186e+00 -4.928787e+00
vertex -6.390569e-01 1.930747e+00 -5.012251e+00
vertex -3.895322e+00 -8.143782e-02 -5.012251e+00
endloop
endfacet
facet normal 0 0 0
outer loop
vertex -6.390569e-01 1.930747e+00 -5.012251e+00
vertex -1.642627e+00 9.705912e-01 -5.012251e+00
vertex -3.895322e+00 -8.143782e-02 -5.012251e+00
endloop
endfacet
facet normal 0 0 0
outer loop
vertex 1.048779e+01 -5.876269e+00 -5.012249e+00
vertex 7.837705e+00 -4.892346e+00 -5.012250e+00
vertex 9.513851e+00 -3.840318e+00 -5.012249e+00
endloop
endfacet
facet normal 0 0 0
outer loop
vertex 8.687983e+00 -6.096925e-01 -2.119399e-01
vertex 7.220769e+00 -2.099026e-01 -1.702343e+00
vertex 7.220673e+00 -2.100869e-01 6.269822e-01
endloop
endfacet
facet normal 0 0 0
outer loop
vertex 4.485412e+00 -3.968550e+00 2.329621e+00
vertex 5.030762e+00 -4.141894e+00 4.563578e+00
vertex 3.709248e+00 -3.721854e+00 1.541190e+00
endloop
endfacet
facet normal 0 0 0
outer loop
vertex 5.435892e+00 2.763171e-01 -2.778295e+00
vertex 7.837705e+00 -3.779372e-01 -2.778295e+00
vertex 7.220494e+00 -2.098275e-01 -3.854287e+00
endloop
endfacet
facet normal 0 0 0
outer loop
vertex 1.048779e+01 -5.876288e+00 -1.689864e+00
vertex 1.048779e+01 -5.876269e+00 1.584296e+00
vertex 9.513847e+00 -5.566740e+00 -1.075657e+00
endloop
endfacet
facet normal 0 0 0
outer loop
vertex 4.485409e+00 -3.968543e+00 -2.924031e-01
vertex 6.161561e+00 -4.501281e+00 1.127413e+00
vertex 4.485412e+00 -3.968550e+00 2.329621e+00
endloop
endfacet
facet normal 0 0 0
outer loop
vertex 4.485412e+00 -3.968550e+00 2.329621e+00
vertex 3.709248e+00 -3.721854e+00 1.541190e+00
vertex 4.485409e+00 -3.968543e+00 -2.924031e-01
endloop
endfacet
facet normal 0 0 0
outer loop
vertex 1.126814e+01 -3.001121e+00 -3.669301e+00
vertex 1.169482e+01 -1.429004e+00 -5.012249e+00
vertex 1.169482e+01 -1.429004e+00 -2.778295e+00
endloop
endfacet
facet normal 0 0 0
outer loop
vertex 6.300293e+00 4.169922e-02 4.497651e+00
vertex 6.161558e+00 -2.236681e+00 4.255849e+00
vertex 7.837705e+00 -1.691082e+00 3.488187e+00
endloop
endfacet
facet normal 0 0 0
outer loop
vertex 5.436131e+00 2.765466e-01 -1.075657e+00
vertex 4.485412e+00 5.354343e-01 -3.398342e+00
vertex 3.552666e+00 7.894387e-01 -2.023144e+00
endloop
endfacet
facet normal 0 0 0
outer loop
vertex 1.169482e+01 -1.429004e+00 1.584296e+00
vertex 9.513851e+00 -2.236681e+00 2.570766e+00
vertex 9.513851e+00 -3.840318e+00 2.352069e+00
endloop
endfacet
facet normal 0 0 0
outer loop
vertex 5.235310e+00 3.311001e-01 1.388734e+00
vertex 6.300293e+00 4.169922e-02 4.497651e+00
vertex 7.220673e+00 -2.100869e-01 6.269822e-01
endloop
endfacet
facet normal 0 0 0
outer loop
vertex 5.030762e+00 -4.141894e+00 4.563578e+00
vertex 2.809260e+00 -1.688253e+00 3.494204e+00
vertex 1.868480e+00 -3.136768e+00 3.285276e+00
endloop
endfacet
facet normal 0 0 0
outer loop
vertex 5.562252e+00 -2.236681e+00 4.517342e+00
vertex 2.809260e+00 -1.688253e+00 3.494204e+00
vertex 5.030762e+00 -4.141894e+00 4.563578e+00
endloop
endfacet
facet normal 0 0 0
outer loop
vertex 7.740874e+00 -5.003233e+00 3.096401e+00
vertex 7.740869e+00 -5.003251e+00 2.998039e+00
vertex 7.837705e+00 -5.034008e+00 3.019228e+00
endloop
endfacet
facet normal 0 0 0
outer loop
vertex 5.435892e+00 2.763171e-01 -2.778295e+00
vertex 4.485412e+00 5.354343e-01 -3.398342e+00
vertex 5.436131e+00 2.765466e-01 -1.075657e+00
endloop
endfacet
facet normal 0 0 0
outer loop
vertex -4.638914e+00 3.020292e+00 -1.690175e+00
vertex -4.588379e+00 3.006543e+00 -5.012252e+00
vertex -4.979004e+00 1.889355e+00 -2.290553e+00
endloop
endfacet
facet normal 0 0 0
outer loop
vertex -5.450896e+00 -8.108071e-01 -3.723972e+00
vertex -7.752441e+00 -7.939453e-02 -5.012249e+00
vertex -5.571469e+00 -7.725230e-01 -5.012249e+00
endloop
endfacet
facet normal 0 0 0
outer loop
vertex -3.164411e+00 -1.537389e+00 -2.035832e+00
vertex -3.164413e+00 -1.537397e+00 -1.075657e+00
vertex -3.895322e+00 -1.305119e+00 -2.778295e+00
endloop
endfacet
facet normal 0 0 0
outer loop
vertex 2.809258e+00 -1.711389e-01 3.310481e+00
vertex 9.135742e-01 -2.833301e+00 2.974221e+00
vertex 1.868480e+00 -3.136768e+00 3.285276e+00
endloop
endfacet
facet normal 0 0 0
outer loop
vertex -4.915243e+00 -9.810060e-01 -4.090585e-01
vertex -6.352668e+00 -5.242177e-01 -1.869203e+00
vertex -5.571467e+00 -7.724635e-01 -2.778295e+00
endloop
endfacet
facet normal 0 0 0
outer loop
vertex 2.581614e+00 -3.363628e+00 -4.940088e+00
vertex 3.709200e+00 -3.721946e+00 -3.566775e+00
vertex 2.809265e+00 -3.435936e+00 -3.414941e+00
endloop
endfacet
facet normal 0 0 0
outer loop
vertex -7.760824e+00 -7.673059e-02 -2.187636e+00
vertex -5.571467e+00 -7.724635e-01 -2.778295e+00
vertex -6.352668e+00 -5.242177e-01 -1.869203e+00
endloop
endfacet
facet normal 0 0 0
outer loop
vertex 4.485412e+00 5.354343e-01 -3.398342e+00
vertex 3.552666e+00 7.894387e-01 -2.023144e+00
vertex 5.435892e+00 2.763171e-01 -2.778295e+00
endloop
endfacet
facet normal 0 0 0
outer loop
vertex 5.435892e+00 2.763171e-01 -2.778295e+00
vertex 3.552666e+00 7.894387e-01 -2.023144e+00
vertex 5.436131e+00 2.765466e-01 -1.075657e+00
endloop
endfacet
facet normal 0 0 0
outer loop
vertex -5.430287e-01 1.905062e+00 -2.282215e+00
vertex -2.219175e+00 2.361853e+00 -1.075657e+00
vertex -1.357910e+00 2.127637e+00 1.189123e+00
endloop
endfacet
facet normal 0 0 0
outer loop
vertex 3.709248e+00 -3.721854e+00 1.541190e+00
vertex 1.868456e+00 -3.136791e+00 2.177692e+00
vertex 1.868464e+00 -3.136783e+00 6.269822e-01
endloop
endfacet
facet normal 0 0 0
outer loop
vertex 1.868456e+00 -3.136791e+00 2.177692e+00
vertex 3.709248e+00 -3.721854e+00 1.541190e+00
vertex 1.868480e+00 -3.136768e+00 3.285276e+00
endloop
endfacet
facet normal 0 0 0
outer loop
vertex -5.571469e+00 2.077840e+00 -1.075657e+00
vertex -4.979004e+00 1.889355e+00 1.559608e+00
vertex -4.995727e+00 1.841528e+00 6.177773e-02
endloop
endfacet
facet normal 0 0 0
outer loop
vertex -4.979004e+00 1.889355e+00 1.559608e+00
vertex -4.588379e+00 3.006543e+00 1.214744e+00
vertex -4.995727e+00 1.841528e+00 6.177773e-02
endloop
endfacet
facet normal 0 0 0
outer loop
vertex -4.979004e+00 1.889355e+00 -2.290553e+00
vertex -4.979004e+00 1.889355e+00 -3.786413e+00
vertex -6.949707e+00 2.516309e+00 -5.012249e+00
endloop
endfacet
facet normal 0 0 0
outer loop
vertex -4.979004e+00 1.889355e+00 -3.786413e+00
vertex -4.979004e+00 1.889355e+00 -2.290553e+00
vertex -4.588379e+00 3.006543e+00 -5.012252e+00
endloop
endfacet
facet normal 0 0 0
outer loop
vertex 4.310285e+00 5.837362e-01 3.740591e+00
vertex 5.235310e+00 3.311001e-01 1.388734e+00
vertex 4.485412e+00 5.354343e-01 6.271403e-01
endloop
endfacet
facet normal 0 0 0
outer loop
vertex -7.760824e+00 -7.673059e-02 -4.693231e-01
vertex -7.752441e+00 -7.939453e-02 2.974133e+00
vertex -6.949707e+00 2.516309e+00 1.594289e+00
endloop
endfacet
facet normal 0 0 0
outer loop
vertex -7.752441e+00 -7.939453e-02 -5.012249e+00
vertex -5.571467e+00 -7.724635e-01 -2.778295e+00
vertex -7.760824e+00 -7.673059e-02 -2.187636e+00
endloop
endfacet
facet normal 0 0 0
outer loop
vertex 2.174051e-01 1.698128e+00 -1.075657e+00
vertex -1.357910e+00 2.127637e+00 1.189123e+00
vertex 2.174916e-01 1.698211e+00 6.269822e-01
endloop
endfacet
facet normal 0 0 0
outer loop
vertex 9.135742e-01 -2.833301e+00 2.974221e+00
vertex 2.809258e+00 -1.711389e-01 3.310481e+00
vertex 3.317757e-01 2.039220e-01 2.404270e+00
endloop
endfacet
facet normal 0 0 0
outer loop
vertex -4.915243e+00 -9.810060e-01 -4.090585e-01
vertex -5.571467e+00 -7.724635e-01 -2.778295e+00
vertex -3.895322e+00 -1.305119e+00 -2.778295e+00
endloop
endfacet
facet normal 0 0 0
outer loop
vertex -7.427728e+00 9.705912e-01 -2.778295e+00
vertex -7.760824e+00 -7.673059e-02 -2.187636e+00
vertex -7.427728e+00 9.705912e-01 -1.075657e+00
endloop
endfacet
facet normal 0 0 0
outer loop
vertex -3.895322e+00 -1.305119e+00 6.269822e-01
vertex -2.219176e+00 -1.837771e+00 -1.256696e-02
vertex -3.895322e+00 -1.305119e+00 2.295381e+00
endloop
endfacet
facet normal 0 0 0
outer loop
vertex -7.427728e+00 9.705912e-01 -1.075657e+00
vertex -7.760824e+00 -7.673059e-02 -2.187636e+00
vertex -7.760824e+00 -7.673059e-02 -4.693231e-01
endloop
endfacet
facet normal 0 0 0
outer loop
vertex -7.760824e+00 -7.673059e-02 -4.693231e-01
vertex -6.949707e+00 2.516309e+00 1.594289e+00
vertex -7.427728e+00 9.705912e-01 -1.075657e+00
endloop
endfacet
facet normal 0 0 0
outer loop
vertex -7.752441e+00 -7.939453e-02 -5.012249e+00
vertex -7.427728e+00 9.705912e-01 -2.778295e+00
vertex -6.949707e+00 2.516309e+00 -5.012249e+00
endloop
endfacet
facet normal 0 0 0
outer loop
vertex -4.979004e+00 1.889355e+00 1.559608e+00
vertex -5.571469e+00 2.077840e+00 -1.075657e+00
vertex -6.949707e+00 2.516309e+00 1.594289e+00
endloop
endfacet
facet normal 0 0 0
outer loop
vertex -6.949707e+00 2.516309e+00 -1.524060e+00
vertex -6.949707e+00 2.516309e+00 -5.012249e+00
vertex -7.427728e+00 9.705912e-01 -2.778295e+00
endloop
endfacet
facet normal 0 0 0
outer loop
vertex -6.949707e+00 2.516309e+00 -1.524060e+00
vertex -7.427728e+00 9.705912e-01 -2.778295e+00
vertex -7.427728e+00 9.705912e-01 -1.075657e+00
endloop
endfacet
facet normal 0 0 0
outer loop
vertex -6.949707e+00 2.516309e+00 1.594289e+00
vertex -6.949707e+00 2.516309e+00 -1.524060e+00
vertex -7.427728e+00 9.705912e-01 -1.075657e+00
endloop
endfacet
facet normal 0 0 0
outer loop
vertex 6.300293e+00 4.169922e-02 4.497651e+00
vertex 4.485411e+00 -6.330450e-01 3.948757e+00
vertex 5.562252e+00 -2.236681e+00 4.517342e+00
endloop
endfacet
facet normal 0 0 0
outer loop
vertex 6.300293e+00 4.169922e-02 4.497651e+00
vertex 5.334820e+00 3.046743e-01 3.458009e+00
vertex 5.436570e+00 2.769711e-01 4.169063e+00
endloop
endfacet
facet normal 0 0 0
outer loop
vertex -5.430260e-01 9.705902e-01 2.007481e+00
vertex -1.357910e+00 2.127637e+00 1.584285e+00
vertex -1.768066e+00 8.678711e-01 1.594285e+00
endloop
endfacet
facet normal 0 0 0
outer loop
vertex 4.485411e+00 -6.330450e-01 3.948757e+00
vertex 2.809260e+00 -1.688253e+00 3.494204e+00
vertex 5.562252e+00 -2.236681e+00 4.517342e+00
endloop
endfacet
facet normal 0 0 0
outer loop
vertex 4.485412e+00 5.354343e-01 6.271403e-01
vertex 2.809265e+00 9.921995e-01 1.489773e+00
vertex 4.310285e+00 5.837362e-01 3.740591e+00
endloop
endfacet
facet normal 0 0 0
outer loop
vertex -2.219175e+00 -1.837863e+00 -3.417894e+00
vertex -3.465323e+00 -1.441871e+00 -5.012249e+00
vertex -2.455425e+00 -1.762822e+00 -4.937362e+00
endloop
endfacet
facet normal 0 0 0
outer loop
vertex -4.979004e+00 1.889355e+00 -5.012252e+00
vertex -5.571469e+00 -7.725230e-01 -5.012249e+00
vertex -7.752441e+00 -7.939453e-02 -5.012249e+00
endloop
endfacet
facet normal 0 0 0
outer loop
vertex 1.253613e+00 1.415184e+00 -5.012251e+00
vertex -5.430287e-01 -8.143816e-02 -5.012251e+00
vertex -5.430287e-01 9.705912e-01 -5.012251e+00
endloop
endfacet
facet normal 0 0 0
outer loop
vertex -1.642627e+00 9.705912e-01 -5.012251e+00
vertex -2.219175e+00 -6.330451e-01 -5.012251e+00
vertex -3.895322e+00 -8.143782e-02 -5.012251e+00
endloop
endfacet
facet normal 0 0 0
outer loop
vertex -1.642627e+00 9.705912e-01 -5.012251e+00
vertex -5.430287e-01 9.705912e-01 -5.012251e+00
vertex -2.219175e+00 -6.330451e-01 -5.012251e+00
endloop
endfacet
facet normal 0 0 0
outer loop
vertex 4.097509e+00 -3.845392e+00 -5.012249e+00
vertex 2.581614e+00 -3.363628e+00 -4.940088e+00
vertex 4.485412e+00 -2.236681e+00 -5.012250e+00
endloop
endfacet
facet normal 0 0 0
outer loop
vertex -2.219175e+00 2.361959e+00 -2.778295e+00
vertex -2.219175e+00 2.361853e+00 -1.075657e+00
vertex -5.430287e-01 1.905062e+00 -2.282215e+00
endloop
endfacet
facet normal 0 0 0
outer loop
vertex 5.146606e+00 -4.178771e+00 -3.809289e+00
vertex 3.709200e+00 -3.721946e+00 -3.566775e+00
vertex 4.097509e+00 -3.845392e+00 -5.012249e+00
endloop
endfacet
facet normal 0 0 0
outer loop
vertex 5.146606e+00 -4.178771e+00 -3.809289e+00
vertex 2.809265e+00 -3.435890e+00 -1.712278e+00
vertex 3.709200e+00 -3.721946e+00 -3.566775e+00
endloop
endfacet
facet normal 0 0 0
outer loop
vertex -3.895322e+00 -8.143782e-02 -5.012251e+00
vertex -4.979004e+00 1.889355e+00 -5.012252e+00
vertex -2.219175e+00 2.361186e+00 -4.928787e+00
endloop
endfacet
facet normal 0 0 0
outer loop
vertex 7.837705e+00 -3.840318e+00 -5.012250e+00
vertex 6.161558e+00 -2.236681e+00 -5.012250e+00
vertex 8.526119e+00 -5.658481e-01 -5.012249e+00
endloop
endfacet
facet normal 0 0 0
outer loop
vertex 2.809265e+00 -3.435890e+00 -1.712278e+00
vertex 2.809265e+00 -3.435936e+00 -3.414941e+00
vertex 3.709200e+00 -3.721946e+00 -3.566775e+00
endloop
endfacet
facet normal 0 0 0
outer loop
vertex -3.895322e+00 -1.305119e+00 -2.778295e+00
vertex -3.164413e+00 -1.537397e+00 -1.075657e+00
vertex -4.915243e+00 -9.810060e-01 -4.090585e-01
endloop
endfacet
facet normal 0 0 0
outer loop
vertex -7.752441e+00 -7.939453e-02 -5.012249e+00
vertex -6.949707e+00 2.516309e+00 -5.012249e+00
vertex -4.979004e+00 1.889355e+00 -5.012252e+00
endloop
endfacet
facet normal 0 0 0
outer loop
vertex 6.161558e+00 -2.236681e+00 -5.012250e+00
vertex 6.161558e+00 -3.288711e+00 -5.012250e+00
vertex 4.097509e+00 -3.845392e+00 -5.012249e+00
endloop
endfacet
facet normal 0 0 0
outer loop
vertex -6.949707e+00 2.516309e+00 -5.012249e+00
vertex -4.979004e+00 1.889355e+00 -5.012252e+00
vertex -4.588379e+00 3.006543e+00 -5.012252e+00
endloop
endfacet
facet normal 0 0 0
outer loop
vertex -4.979004e+00 1.889355e+00 -5.012252e+00
vertex -4.979004e+00 1.889355e+00 -3.786413e+00
vertex -4.588379e+00 3.006543e+00 -5.012252e+00
endloop
endfacet
facet normal 0 0 0
outer loop
vertex -4.979004e+00 1.889355e+00 -3.786413e+00
vertex -4.979004e+00 1.889355e+00 -5.012252e+00
vertex -6.949707e+00 2.516309e+00 -5.012249e+00
endloop
endfacet
facet normal 0 0 0
outer loop
vertex 5.146606e+00 -4.178771e+00 -3.809289e+00
vertex 4.097509e+00 -3.845392e+00 -5.012249e+00
vertex 6.161558e+00 -4.501362e+00 -5.012250e+00
endloop
endfacet
facet normal 0 0 0
outer loop
vertex 4.485412e+00 -2.236681e+00 -5.012250e+00
vertex 2.809265e+00 -2.236681e+00 -5.012250e+00
vertex 3.385813e+00 -6.330451e-01 -5.012250e+00
endloop
endfacet
facet normal 0 0 0
outer loop
vertex 8.526119e+00 -5.658481e-01 -5.012249e+00
vertex 9.513851e+00 -3.840318e+00 -5.012249e+00
vertex 7.837705e+00 -3.840318e+00 -5.012250e+00
endloop
endfacet
facet normal 0 0 0
outer loop
vertex 1.169482e+01 -1.429004e+00 -5.012249e+00
vertex 9.513851e+00 -3.840318e+00 -5.012249e+00
vertex 8.526119e+00 -5.658481e-01 -5.012249e+00
endloop
endfacet
facet normal 0 0 0
outer loop
vertex -5.430287e-01 -8.143816e-02 -5.012251e+00
vertex 1.133118e+00 -1.685074e+00 -5.012251e+00
vertex -9.341042e-01 -2.246310e+00 -5.012250e+00
endloop
endfacet
facet normal 0 0 0
outer loop
vertex 4.097509e+00 -3.845392e+00 -5.012249e+00
vertex 4.485412e+00 -2.236681e+00 -5.012250e+00
vertex 6.161558e+00 -2.236681e+00 -5.012250e+00
endloop
endfacet
facet normal 0 0 0
outer loop
vertex 9.513851e+00 -3.840318e+00 -5.012249e+00
vertex 7.837705e+00 -4.892346e+00 -5.012250e+00
vertex 7.837705e+00 -3.840318e+00 -5.012250e+00
endloop
endfacet
facet normal 0 0 0
outer loop
vertex 2.581614e+00 -3.363628e+00 -4.940088e+00
vertex 2.809265e+00 -2.236681e+00 -5.012250e+00
vertex 4.485412e+00 -2.236681e+00 -5.012250e+00
endloop
endfacet
facet normal 0 0 0
outer loop
vertex -5.430287e-01 -8.143816e-02 -5.012251e+00
vertex -2.219175e+00 -6.330451e-01 -5.012251e+00
vertex -5.430287e-01 9.705912e-01 -5.012251e+00
endloop
endfacet
facet normal 0 0 0
outer loop
vertex 9.513851e+00 -3.840318e+00 2.352069e+00
vertex 9.513851e+00 -2.236681e+00 2.570766e+00
vertex 8.991394e+00 -3.013793e+00 2.775049e+00
endloop
endfacet
facet normal 0 0 0
outer loop
vertex -5.430287e-01 -6.330451e-01 2.132710e+00
vertex -1.768066e+00 8.678711e-01 1.594285e+00
vertex -2.219175e+00 -6.330451e-01 2.390143e+00
endloop
endfacet
facet normal 0 0 0
outer loop
vertex 2.809258e+00 -1.711389e-01 3.310481e+00
vertex 1.133118e+00 1.449132e+00 2.531933e+00
vertex 3.317757e-01 2.039220e-01 2.404270e+00
endloop
endfacet
facet normal 0 0 0
outer loop
vertex -5.430260e-01 9.705902e-01 2.007481e+00
vertex -5.430287e-01 -6.330451e-01 2.132710e+00
vertex 3.317757e-01 2.039220e-01 2.404270e+00
endloop
endfacet
facet normal 0 0 0
outer loop
vertex 2.177506e-01 1.698459e+00 2.183705e+00
vertex -1.357910e+00 2.127637e+00 1.584285e+00
vertex -5.430260e-01 9.705902e-01 2.007481e+00
endloop
endfacet
facet normal 0 0 0
outer loop
vertex 4.485411e+00 -6.330450e-01 3.948757e+00
vertex 6.300293e+00 4.169922e-02 4.497651e+00
vertex 5.436570e+00 2.769711e-01 4.169063e+00
endloop
endfacet
facet normal 0 0 0
outer loop
vertex -1.768066e+00 8.678711e-01 1.594285e+00
vertex -5.430287e-01 -6.330451e-01 2.132710e+00
vertex -5.430260e-01 9.705902e-01 2.007481e+00
endloop
endfacet
facet normal 0 0 0
outer loop
vertex 5.436570e+00 2.769711e-01 4.169063e+00
vertex 5.334820e+00 3.046743e-01 3.458009e+00
vertex 4.310285e+00 5.837362e-01 3.740591e+00
endloop
endfacet
facet normal 0 0 0
outer loop
vertex 1.133118e+00 1.449132e+00 2.531933e+00
vertex 2.809258e+00 -1.711389e-01 3.310481e+00
vertex 2.207674e+00 1.156445e+00 2.940720e+00
endloop
endfacet
facet normal 0 0 0
outer loop
vertex 3.317757e-01 2.039220e-01 2.404270e+00
vertex 1.133118e+00 1.449132e+00 2.531933e+00
vertex 2.177506e-01 1.698459e+00 2.183705e+00
endloop
endfacet
facet normal 0 0 0
outer loop
vertex 3.317757e-01 2.039220e-01 2.404270e+00
vertex 2.177506e-01 1.698459e+00 2.183705e+00
vertex -5.430260e-01 9.705902e-01 2.007481e+00
endloop
endfacet
facet normal 0 0 0
outer loop
vertex 4.310285e+00 5.837362e-01 3.740591e+00
vertex 3.461260e+00 8.149932e-01 3.417595e+00
vertex 2.809258e+00 -1.711389e-01 3.310481e+00
endloop
endfacet
facet normal 0 0 0
outer loop
vertex 8.687983e+00 -6.096924e-01 1.490698e+00
vertex 7.220673e+00 -2.100869e-01 6.269822e-01
vertex 9.008133e+00 -6.656708e-01 3.039475e+00
endloop
endfacet
facet normal 0 0 0
outer loop
vertex 4.310285e+00 5.837362e-01 3.740591e+00
vertex 4.485411e+00 -6.330450e-01 3.948757e+00
vertex 5.436570e+00 2.769711e-01 4.169063e+00
endloop
endfacet
facet normal 0 0 0
outer loop
vertex 7.837705e+00 -3.779372e-01 -2.778295e+00
vertex 5.435892e+00 2.763171e-01 -2.778295e+00
vertex 7.220769e+00 -2.099026e-01 -1.702343e+00
endloop
endfacet
facet normal 0 0 0
outer loop
vertex 3.461260e+00 8.149932e-01 3.417595e+00
vertex 2.207674e+00 1.156445e+00 2.940720e+00
vertex 2.809258e+00 -1.711389e-01 3.310481e+00
endloop
endfacet
facet normal 0 0 0
outer loop
vertex 5.334820e+00 3.046743e-01 3.458009e+00
vertex 6.300293e+00 4.169922e-02 4.497651e+00
vertex 5.235310e+00 3.311001e-01 1.388734e+00
endloop
endfacet
facet normal 0 0 0
outer loop
vertex 3.552738e+00 7.895713e-01 -1.075657e+00
vertex 3.552666e+00 7.894387e-01 -2.023144e+00
vertex 2.809265e+00 9.921548e-01 9.121490e-02
endloop
endfacet
facet normal 0 0 0
outer loop
vertex 7.220673e+00 -2.100869e-01 6.269822e-01
vertex 5.436131e+00 2.765466e-01 -1.075657e+00
vertex 6.161558e+00 7.871380e-02 6.269822e-01
endloop
endfacet
facet normal 0 0 0
outer loop
vertex 3.552738e+00 7.895713e-01 -1.075657e+00
vertex 4.485412e+00 5.354343e-01 -1.075657e+00
vertex 3.552666e+00 7.894387e-01 -2.023144e+00
endloop
endfacet
facet normal 0 0 0
outer loop
vertex 2.809265e+00 9.921995e-01 1.489773e+00
vertex 2.207674e+00 1.156445e+00 2.940720e+00
vertex 3.461260e+00 8.149932e-01 3.417595e+00
endloop
endfacet
facet normal 0 0 0
outer loop
vertex 2.809265e+00 9.921995e-01 1.489773e+00
vertex 1.133118e+00 1.449132e+00 2.531933e+00
vertex 2.207674e+00 1.156445e+00 2.940720e+00
endloop
endfacet
facet normal 0 0 0
outer loop
vertex 5.235310e+00 3.311001e-01 1.388734e+00
vertex 4.310285e+00 5.837362e-01 3.740591e+00
vertex 5.334820e+00 3.046743e-01 3.458009e+00
endloop
endfacet
facet normal 0 0 0
outer loop
vertex 4.310285e+00 5.837362e-01 3.740591e+00
vertex 2.809265e+00 9.921995e-01 1.489773e+00
vertex 3.461260e+00 8.149932e-01 3.417595e+00
endloop
endfacet
facet normal 0 0 0
outer loop
vertex 1.169482e+01 -1.429004e+00 1.584296e+00
vertex 9.513851e+00 -8.347272e-01 -1.075657e+00
vertex 9.513851e+00 -8.347272e-01 6.269822e-01
endloop
endfacet
facet normal 0 0 0
outer loop
vertex 8.609281e+00 -5.882475e-01 -3.546303e+00
vertex 8.526119e+00 -5.658481e-01 -5.012249e+00
vertex 7.220494e+00 -2.098275e-01 -3.854287e+00
endloop
endfacet
facet normal 0 0 0
outer loop
vertex 6.300293e+00 4.169922e-02 4.497651e+00
vertex 7.837705e+00 -1.691082e+00 3.488187e+00
vertex 9.008133e+00 -6.656708e-01 3.039475e+00
endloop
endfacet
facet normal 0 0 0
outer loop
vertex 2.177506e-01 1.698459e+00 2.183705e+00
vertex 1.133118e+00 1.449132e+00 2.531933e+00
vertex 2.174916e-01 1.698211e+00 6.269822e-01
endloop
endfacet
facet normal 0 0 0
outer loop
vertex 2.177506e-01 1.698459e+00 2.183705e+00
vertex 2.174916e-01 1.698211e+00 6.269822e-01
vertex -1.357910e+00 2.127637e+00 1.584285e+00
endloop
endfacet
facet normal 0 0 0
outer loop
vertex 1.126814e+01 -3.001121e+00 -1.075657e+00
vertex 1.169482e+01 -1.429004e+00 1.584296e+00
vertex 1.086495e+01 -4.486643e+00 6.269822e-01
endloop
endfacet
facet normal 0 0 0
outer loop
vertex 6.161561e+00 -4.501281e+00 1.127413e+00
vertex 4.485409e+00 -3.968543e+00 -2.924031e-01
vertex 5.146642e+00 -4.178709e+00 -1.075657e+00
endloop
endfacet
facet normal 0 0 0
outer loop
vertex 1.169482e+01 -1.429004e+00 -5.012249e+00
vertex 1.126814e+01 -3.001121e+00 -3.669301e+00
vertex 1.104037e+01 -3.840318e+00 -5.012249e+00
endloop
endfacet
facet normal 0 0 0
outer loop
vertex 1.048779e+01 -5.876269e+00 1.584296e+00
vertex 1.091910e+01 -4.287134e+00 1.584296e+00
vertex 9.513851e+00 -3.840318e+00 2.352069e+00
endloop
endfacet
facet normal 0 0 0
outer loop
vertex -1.609520e+00 1.789618e+00 1.304619e+00
vertex -3.784997e+00 1.750052e+00 1.498254e+00
vertex -1.793457e+00 8.776367e-01 1.574707e+00
endloop
endfacet
facet normal 0 0 0
outer loop
vertex -1.808989e+00 8.901687e-01 1.589784e+00
vertex -1.796063e+00 8.880138e-01 1.588838e+00
vertex -1.793457e+00 8.776367e-01 1.574707e+00
endloop
endfacet
facet normal 0 0 0
outer loop
vertex -2.219175e+00 -6.330451e-01 2.390143e+00
vertex -1.768066e+00 8.678711e-01 1.594285e+00
vertex -1.793457e+00 8.776367e-01 1.574707e+00
endloop
endfacet
facet normal 0 0 0
outer loop
vertex -1.768066e+00 8.678711e-01 1.594285e+00
vertex -1.796063e+00 8.880138e-01 1.588838e+00
vertex -1.793457e+00 8.776367e-01 1.574707e+00
endloop
endfacet
facet normal 0 0 0
outer loop
vertex -3.895322e+00 1.769889e+00 1.501978e+00
vertex -4.588379e+00 3.006543e+00 1.214744e+00
vertex -4.979004e+00 1.889355e+00 1.559608e+00
endloop
endfacet
facet normal 0 0 0
outer loop
vertex -1.357910e+00 2.127637e+00 1.189123e+00
vertex -1.793457e+00 8.776367e-01 1.574707e+00
vertex -1.357910e+00 2.127637e+00 1.584285e+00
endloop
endfacet
facet normal 0 0 0
outer loop
vertex -1.609520e+00 1.789618e+00 1.304619e+00
vertex -1.793457e+00 8.776367e-01 1.574707e+00
vertex -1.357910e+00 2.127637e+00 1.189123e+00
endloop
endfacet
facet normal 0 0 0
outer loop
vertex -1.768066e+00 8.678711e-01 1.594285e+00
vertex -1.357910e+00 2.127637e+00 1.584285e+00
vertex -1.793457e+00 8.776367e-01 1.574707e+00
endloop
endfacet
facet normal 0 0 0
outer loop
vertex -6.352668e+00 -5.242177e-01 -1.869203e+00
vertex -4.915243e+00 -9.810060e-01 -4.090585e-01
vertex -6.352668e+00 -5.242177e-01 6.269822e-01
endloop
endfacet
facet normal 0 0 0
outer loop
vertex -6.949707e+00 2.516309e+00 -1.524060e+00
vertex -4.979004e+00 1.889355e+00 -2.290553e+00
vertex -6.949707e+00 2.516309e+00 -5.012249e+00
endloop
endfacet
facet normal 0 0 0
outer loop
vertex -2.219175e+00 2.361853e+00 -1.075657e+00
vertex -2.219175e+00 2.361959e+00 -2.778295e+00
vertex -3.050045e+00 2.588012e+00 -2.778295e+00
endloop
endfacet
facet normal 0 0 0
outer loop
vertex -3.895322e+00 -1.305119e+00 6.269822e-01
vertex -4.915243e+00 -9.810060e-01 -4.090585e-01
vertex -2.219176e+00 -1.837771e+00 -1.256696e-02
endloop
endfacet
facet normal 0 0 0
outer loop
vertex -4.979004e+00 1.889355e+00 -1.075657e+00
vertex -4.995727e+00 1.841528e+00 6.177773e-02
vertex -4.751956e+00 2.538712e+00 -1.075657e+00
endloop
endfacet
facet normal 0 0 0
outer loop
vertex -5.571469e+00 2.077840e+00 -1.075657e+00
vertex -4.995727e+00 1.841528e+00 6.177773e-02
vertex -4.979004e+00 1.889355e+00 -1.075657e+00
endloop
endfacet
facet normal 0 0 0
outer loop
vertex -4.588379e+00 3.006543e+00 1.214744e+00
vertex -3.050045e+00 2.588012e+00 -2.170194e-01
vertex -3.895322e+00 2.817985e+00 -1.075657e+00
endloop
endfacet
facet normal 0 0 0
outer loop
vertex -3.895322e+00 2.817985e+00 -1.075657e+00
vertex -3.050045e+00 2.588012e+00 -2.778295e+00
vertex -4.638914e+00 3.020292e+00 -1.690175e+00
endloop
endfacet
facet normal 0 0 0
outer loop
vertex -4.751956e+00 2.538712e+00 -1.075657e+00
vertex -4.979004e+00 1.889355e+00 -2.290553e+00
vertex -4.979004e+00 1.889355e+00 -1.075657e+00
endloop
endfacet
facet normal 0 0 0
outer loop
vertex -4.979004e+00 1.889355e+00 -2.290553e+00
vertex -5.571469e+00 2.077840e+00 -1.075657e+00
vertex -4.979004e+00 1.889355e+00 -1.075657e+00
endloop
endfacet
facet normal 0 0 0
outer loop
vertex -4.631133e+00 3.018175e+00 -7.230033e-01
vertex -3.895322e+00 2.817985e+00 -1.075657e+00
vertex -4.517537e+00 2.987269e+00 -1.075657e+00
endloop
endfacet
facet normal 0 0 0
outer loop
vertex -4.517537e+00 2.987269e+00 -1.075657e+00
vertex -3.895322e+00 2.817985e+00 -1.075657e+00
vertex -4.638914e+00 3.020292e+00 -1.690175e+00
endloop
endfacet
facet normal 0 0 0
outer loop
vertex -6.390569e-01 1.930747e+00 -5.012251e+00
vertex -5.430287e-01 9.705912e-01 -5.012251e+00
vertex -1.642627e+00 9.705912e-01 -5.012251e+00
endloop
endfacet
facet normal 0 0 0
outer loop
vertex -3.050045e+00 2.588012e+00 -2.778295e+00
vertex -2.219175e+00 2.361959e+00 -2.778295e+00
vertex -3.895325e+00 2.817972e+00 -3.759017e+00
endloop
endfacet
facet normal 0 0 0
outer loop
vertex -4.588379e+00 3.006543e+00 1.214744e+00
vertex -4.631133e+00 3.018175e+00 -7.230033e-01
vertex -4.995727e+00 1.841528e+00 6.177773e-02
endloop
endfacet
facet normal 0 0 0
outer loop
vertex 9.513847e+00 -5.566740e+00 -1.075657e+00
vertex 6.901151e+00 -4.736303e+00 -1.075633e+00
vertex 7.837707e+00 -5.033965e+00 -1.709381e+00
endloop
endfacet
facet normal 0 0 0
outer loop
vertex 3.709200e+00 -3.721946e+00 -3.566775e+00
vertex 2.581614e+00 -3.363628e+00 -4.940088e+00
vertex 4.097509e+00 -3.845392e+00 -5.012249e+00
endloop
endfacet
facet normal 0 0 0
outer loop
vertex 1.048779e+01 -5.876269e+00 1.584296e+00
vertex 7.837702e+00 -5.034017e+00 1.260674e+00
vertex 9.513847e+00 -5.566740e+00 -1.075657e+00
endloop
endfacet
facet normal 0 0 0
outer loop
vertex 6.161558e+00 -2.236681e+00 4.255849e+00
vertex 5.030762e+00 -4.141894e+00 4.563578e+00
vertex 7.837705e+00 -1.691082e+00 3.488187e+00
endloop
endfacet
facet normal 0 0 0
outer loop
vertex 7.837705e+00 -5.034008e+00 3.019228e+00
vertex 7.837702e+00 -5.034017e+00 1.260674e+00
vertex 1.048779e+01 -5.876269e+00 1.584296e+00
endloop
endfacet
facet normal 0 0 0
outer loop
vertex 7.740869e+00 -5.003251e+00 2.998039e+00
vertex 7.837702e+00 -5.034017e+00 1.260674e+00
vertex 7.837705e+00 -5.034008e+00 3.019228e+00
endloop
endfacet
facet normal 0 0 0
outer loop
vertex 1.048779e+01 -5.876269e+00 -5.012249e+00
vertex 8.740129e+00 -5.320821e+00 -1.861608e+00
vertex 8.740131e+00 -5.320812e+00 -3.564247e+00
endloop
endfacet
facet normal 0 0 0
outer loop
vertex 6.901151e+00 -4.736303e+00 -1.075633e+00
vertex 9.513847e+00 -5.566740e+00 -1.075657e+00
vertex 7.837702e+00 -5.034017e+00 1.260674e+00
endloop
endfacet
facet normal 0 0 0
outer loop
vertex 3.249004e+00 -3.575588e+00 3.118552e-01
vertex 4.485409e+00 -3.968543e+00 -2.924031e-01
vertex 3.709248e+00 -3.721854e+00 1.541190e+00
endloop
endfacet
facet normal 0 0 0
outer loop
vertex 5.030762e+00 -4.141894e+00 4.563578e+00
vertex 6.161559e+00 -4.501287e+00 2.329621e+00
vertex 6.562232e+00 -4.628633e+00 3.728537e+00
endloop
endfacet
facet normal 0 0 0
outer loop
vertex 1.048779e+01 -5.876269e+00 1.584296e+00
vertex 1.048779e+01 -5.876288e+00 -1.689864e+00
vertex 1.086495e+01 -4.486643e+00 -1.075657e+00
endloop
endfacet
facet normal 0 0 0
outer loop
vertex 1.086495e+01 -4.486643e+00 -2.092068e+00
vertex 1.048779e+01 -5.876288e+00 -1.689864e+00
vertex 1.048779e+01 -5.876281e+00 -2.869782e+00
endloop
endfacet
facet normal 0 0 0
outer loop
vertex 1.048779e+01 -5.876288e+00 -1.689864e+00
vertex 1.086495e+01 -4.486643e+00 -2.092068e+00
vertex 1.086495e+01 -4.486643e+00 -1.075657e+00
endloop
endfacet
facet normal 0 0 0
outer loop
vertex 1.126814e+01 -3.001121e+00 -1.075657e+00
vertex 1.086495e+01 -4.486643e+00 -2.092068e+00
vertex 1.104037e+01 -3.840318e+00 -2.778295e+00
endloop
endfacet
facet normal 0 0 0
outer loop
vertex 1.126814e+01 -3.001121e+00 -1.075657e+00
vertex 1.104037e+01 -3.840318e+00 -2.778295e+00
vertex 1.126814e+01 -3.001121e+00 -3.669301e+00
endloop
endfacet
facet normal 0 0 0
outer loop
vertex 1.126814e+01 -3.001121e+00 -1.075657e+00
vertex 1.086495e+01 -4.486643e+00 6.269822e-01
vertex 1.086495e+01 -4.486643e+00 -1.075657e+00
endloop
endfacet
facet normal 0 0 0
outer loop
vertex 1.086495e+01 -4.486643e+00 -2.092068e+00
vertex 1.126814e+01 -3.001121e+00 -1.075657e+00
vertex 1.086495e+01 -4.486643e+00 -1.075657e+00
endloop
endfacet
facet normal 0 0 0
outer loop
vertex 1.086495e+01 -4.486643e+00 -1.075657e+00
vertex 1.086495e+01 -4.486643e+00 6.269822e-01
vertex 1.048779e+01 -5.876269e+00 1.584296e+00
endloop
endfacet
facet normal 0 0 0
outer loop
vertex 2.809265e+00 -2.236681e+00 -5.012250e+00
vertex 1.133118e+00 -1.685074e+00 -5.012251e+00
vertex 3.385813e+00 -6.330451e-01 -5.012250e+00
endloop
endfacet
facet normal 0 0 0
outer loop
vertex 3.144513e+00 9.001022e-01 -5.012250e+00
vertex 1.133118e+00 -1.685074e+00 -5.012251e+00
vertex 1.253613e+00 1.415184e+00 -5.012251e+00
endloop
endfacet
facet normal 0 0 0
outer loop
vertex 1.048779e+01 -5.876281e+00 -2.869782e+00
vertex 1.048779e+01 -5.876269e+00 -5.012249e+00
vertex 1.104037e+01 -3.840318e+00 -2.778295e+00
endloop
endfacet
facet normal 0 0 0
outer loop
vertex 1.086495e+01 -4.486643e+00 -2.092068e+00
vertex 1.048779e+01 -5.876281e+00 -2.869782e+00
vertex 1.104037e+01 -3.840318e+00 -2.778295e+00
endloop
endfacet
facet normal 0 0 0
outer loop
vertex 1.133118e+00 -1.685074e+00 -5.012251e+00
vertex -5.430287e-01 -8.143816e-02 -5.012251e+00
vertex 1.253613e+00 1.415184e+00 -5.012251e+00
endloop
endfacet
facet normal 0 0 0
outer loop
vertex 1.048779e+01 -5.876288e+00 -1.689864e+00
vertex 9.513847e+00 -5.566740e+00 -1.075657e+00
vertex 8.740129e+00 -5.320821e+00 -1.861608e+00
endloop
endfacet
facet normal 0 0 0
outer loop
vertex 7.837705e+00 -1.691082e+00 3.488187e+00
vertex 8.991394e+00 -3.013793e+00 2.775049e+00
vertex 9.513851e+00 -2.236681e+00 2.570766e+00
endloop
endfacet
facet normal 0 0 0
outer loop
vertex 7.837705e+00 -1.691082e+00 3.488187e+00
vertex 1.169482e+01 -1.429004e+00 1.584296e+00
vertex 9.008133e+00 -6.656708e-01 3.039475e+00
endloop
endfacet
facet normal 0 0 0
outer loop
vertex 7.220769e+00 -2.099026e-01 -1.702343e+00
vertex 5.435892e+00 2.763171e-01 -2.778295e+00
vertex 5.436131e+00 2.765466e-01 -1.075657e+00
endloop
endfacet
facet normal 0 0 0
outer loop
vertex 1.169482e+01 -1.429004e+00 1.584296e+00
vertex 7.837705e+00 -1.691082e+00 3.488187e+00
vertex 9.513851e+00 -2.236681e+00 2.570766e+00
endloop
endfacet
facet normal 0 0 0
outer loop
vertex 9.513851e+00 -3.840318e+00 2.352069e+00
vertex 1.091910e+01 -4.287134e+00 1.584296e+00
vertex 1.169482e+01 -1.429004e+00 1.584296e+00
endloop
endfacet
facet normal 0 0 0
outer loop
vertex 1.169482e+01 -1.429004e+00 1.584296e+00
vertex 1.091910e+01 -4.287134e+00 1.584296e+00
vertex 1.086495e+01 -4.486643e+00 6.269822e-01
endloop
endfacet
facet normal 0 0 0
outer loop
vertex 7.837705e+00 -1.691082e+00 3.488187e+00
vertex 6.562232e+00 -4.628633e+00 3.728537e+00
vertex 7.837705e+00 -4.976525e+00 3.039686e+00
endloop
endfacet
facet normal 0 0 0
outer loop
vertex 6.562232e+00 -4.628633e+00 3.728537e+00
vertex 7.740874e+00 -5.003233e+00 3.096401e+00
vertex 7.837705e+00 -4.976525e+00 3.039686e+00
endloop
endfacet
facet normal 0 0 0
outer loop
vertex 8.991394e+00 -3.013793e+00 2.775049e+00
vertex 7.837705e+00 -4.976525e+00 3.039686e+00
vertex 9.513851e+00 -3.840318e+00 2.352069e+00
endloop
endfacet
facet normal 0 0 0
outer loop
vertex 7.837705e+00 -1.691082e+00 3.488187e+00
vertex 7.837705e+00 -4.976525e+00 3.039686e+00
vertex 8.991394e+00 -3.013793e+00 2.775049e+00
endloop
endfacet
facet normal 0 0 0
outer loop
vertex 7.837705e+00 -4.976525e+00 3.039686e+00
vertex 1.048779e+01 -5.876269e+00 1.584296e+00
vertex 9.513851e+00 -3.840318e+00 2.352069e+00
endloop
endfacet
facet normal 0 0 0
outer loop
vertex 6.300293e+00 4.169922e-02 4.497651e+00
vertex 9.008133e+00 -6.656708e-01 3.039475e+00
vertex 7.220673e+00 -2.100869e-01 6.269822e-01
endloop
endfacet
facet normal 0 0 0
outer loop
vertex 1.086495e+01 -4.486643e+00 6.269822e-01
vertex 1.091910e+01 -4.287134e+00 1.584296e+00
vertex 1.048779e+01 -5.876269e+00 1.584296e+00
endloop
endfacet
facet normal 0 0 0
outer loop
vertex 1.048779e+01 -5.876269e+00 1.584296e+00
vertex 7.837705e+00 -4.976525e+00 3.039686e+00
vertex 7.837705e+00 -5.034008e+00 3.019228e+00
endloop
endfacet
facet normal 0 0 0
outer loop
vertex 7.837705e+00 -4.976525e+00 3.039686e+00
vertex 7.740874e+00 -5.003233e+00 3.096401e+00
vertex 7.837705e+00 -5.034008e+00 3.019228e+00
endloop
endfacet
facet normal 0 0 0
outer loop
vertex 6.562232e+00 -4.628633e+00 3.728537e+00
vertex 7.740874e+00 -5.003233e+00 3.096401e+00
vertex 7.837705e+00 -1.691082e+00 3.488187e+00
endloop
endfacet
facet normal 0 0 0
outer loop
vertex 6.562232e+00 -4.628633e+00 3.728537e+00
vertex 7.837705e+00 -1.691082e+00 3.488187e+00
vertex 5.030762e+00 -4.141894e+00 4.563578e+00
endloop
endfacet
facet normal 0 0 0
outer loop
vertex -7.760824e+00 -7.673059e-02 -2.187636e+00
vertex -6.352668e+00 -5.242177e-01 -1.869203e+00
vertex -7.760824e+00 -7.673059e-02 -4.693231e-01
endloop
endfacet
facet normal 0 0 0
outer loop
vertex -7.760824e+00 -7.673059e-02 -4.693231e-01
vertex -6.352668e+00 -5.242177e-01 -1.869203e+00
vertex -6.352668e+00 -5.242177e-01 6.269822e-01
endloop
endfacet
facet normal 0 0 0
outer loop
vertex -4.915243e+00 -9.810060e-01 -4.090585e-01
vertex -3.895322e+00 -1.305119e+00 6.269822e-01
vertex -3.895322e+00 -1.305119e+00 2.295381e+00
endloop
endfacet
facet normal 0 0 0
outer loop
vertex -3.895322e+00 -1.305119e+00 2.295381e+00
vertex -6.352668e+00 -5.242177e-01 6.269822e-01
vertex -4.915243e+00 -9.810060e-01 -4.090585e-01
endloop
endfacet
facet normal 0 0 0
outer loop
vertex -7.752441e+00 -7.939453e-02 2.974133e+00
vertex -6.352668e+00 -5.242177e-01 6.269822e-01
vertex -5.571469e+00 -7.302818e-01 2.953722e+00
endloop
endfacet
facet normal 0 0 0
outer loop
vertex -2.219176e+00 -1.837771e+00 -1.256696e-02
vertex -4.915243e+00 -9.810060e-01 -4.090585e-01
vertex -3.164413e+00 -1.537397e+00 -1.075657e+00
endloop
endfacet
facet normal 0 0 0
outer loop
vertex -7.752441e+00 -7.939453e-02 2.974133e+00
vertex -7.760824e+00 -7.673059e-02 -4.693231e-01
vertex -6.352668e+00 -5.242177e-01 6.269822e-01
endloop
endfacet
facet normal 0 0 0
outer loop
vertex -7.752441e+00 -7.939453e-02 2.974133e+00
vertex -5.571469e+00 -7.302818e-01 2.953722e+00
vertex -4.979004e+00 1.889355e+00 1.559608e+00
endloop
endfacet
facet normal 0 0 0
outer loop
vertex -5.571469e+00 -7.302818e-01 2.953722e+00
vertex -6.352668e+00 -5.242177e-01 6.269822e-01
vertex -3.895322e+00 -1.305119e+00 2.295381e+00
endloop
endfacet
facet normal 0 0 0
outer loop
vertex -7.752441e+00 -7.939453e-02 -5.012249e+00
vertex -5.450896e+00 -8.108071e-01 -3.723972e+00
vertex -5.571467e+00 -7.724635e-01 -2.778295e+00
endloop
endfacet
facet normal 0 0 0
outer loop
vertex 1.156859e-01 -2.579881e+00 -2.778295e+00
vertex 2.809265e+00 -3.435890e+00 -1.712278e+00
vertex 3.249004e+00 -3.575588e+00 3.118552e-01
endloop
endfacet
facet normal 0 0 0
outer loop
vertex 9.135742e-01 -2.833301e+00 2.974221e+00
vertex -5.430293e-01 -2.370420e+00 1.549298e+00
vertex 1.157269e-01 -2.579802e+00 6.269822e-01
endloop
endfacet
facet normal 0 0 0
outer loop
vertex -7.760824e+00 -7.673059e-02 -2.187636e+00
vertex -7.427728e+00 9.705912e-01 -2.778295e+00
vertex -7.752441e+00 -7.939453e-02 -5.012249e+00
endloop
endfacet
facet normal 0 0 0
outer loop
vertex 2.809265e+00 -3.435936e+00 -3.414941e+00
vertex 2.809265e+00 -3.435890e+00 -1.712278e+00
vertex 1.156859e-01 -2.579881e+00 -2.778295e+00
endloop
endfacet
facet normal 0 0 0
outer loop
vertex 4.485412e+00 -2.236681e+00 -5.012250e+00
vertex 3.385813e+00 -6.330451e-01 -5.012250e+00
vertex 6.161558e+00 -1.184652e+00 -5.012250e+00
endloop
endfacet
facet normal 0 0 0
outer loop
vertex 7.045170e+00 -1.624375e-01 -5.012250e+00
vertex 8.526119e+00 -5.658481e-01 -5.012249e+00
vertex 6.161558e+00 -2.236681e+00 -5.012250e+00
endloop
endfacet
facet normal 0 0 0
outer loop
vertex 6.161558e+00 -2.236681e+00 -5.012250e+00
vertex 7.837705e+00 -3.840318e+00 -5.012250e+00
vertex 6.161558e+00 -3.288711e+00 -5.012250e+00
endloop
endfacet
facet normal 0 0 0
outer loop
vertex 4.485412e+00 -2.236681e+00 -5.012250e+00
vertex 6.161558e+00 -1.184652e+00 -5.012250e+00
vertex 6.161558e+00 -2.236681e+00 -5.012250e+00
endloop
endfacet
facet normal 0 0 0
outer loop
vertex 3.144513e+00 9.001022e-01 -5.012250e+00
vertex 3.385813e+00 -6.330451e-01 -5.012250e+00
vertex 1.133118e+00 -1.685074e+00 -5.012251e+00
endloop
endfacet
facet normal 0 0 0
outer loop
vertex 3.385813e+00 -6.330451e-01 -5.012250e+00
vertex 3.144513e+00 9.001022e-01 -5.012250e+00
vertex 4.876675e+00 4.282610e-01 -5.012250e+00
endloop
endfacet
facet normal 0 0 0
outer loop
vertex 7.220494e+00 -2.098275e-01 -3.854287e+00
vertex 8.526119e+00 -5.658481e-01 -5.012249e+00
vertex 7.045170e+00 -1.624375e-01 -5.012250e+00
endloop
endfacet
facet normal 0 0 0
outer loop
vertex 1.048779e+01 -5.876269e+00 -5.012249e+00
vertex 1.104037e+01 -3.840318e+00 -5.012249e+00
vertex 1.104037e+01 -3.840318e+00 -2.778295e+00
endloop
endfacet
facet normal 0 0 0
outer loop
vertex 1.169482e+01 -1.429004e+00 -5.012249e+00
vertex 1.104037e+01 -3.840318e+00 -5.012249e+00
vertex 9.513851e+00 -3.840318e+00 -5.012249e+00
endloop
endfacet
facet normal 0 0 0
outer loop
vertex 1.104037e+01 -3.840318e+00 -5.012249e+00
vertex 1.048779e+01 -5.876269e+00 -5.012249e+00
vertex 9.513851e+00 -3.840318e+00 -5.012249e+00
endloop
endfacet
facet normal 0 0 0
outer loop
vertex 4.876675e+00 4.282610e-01 -5.012250e+00
vertex 3.144513e+00 9.001022e-01 -5.012250e+00
vertex 4.485412e+00 5.354343e-01 -3.398342e+00
endloop
endfacet
facet normal 0 0 0
outer loop
vertex 5.435892e+00 2.763171e-01 -2.778295e+00
vertex 4.876675e+00 4.282610e-01 -5.012250e+00
vertex 4.485412e+00 5.354343e-01 -3.398342e+00
endloop
endfacet
facet normal 0 0 0
outer loop
vertex -4.588379e+00 3.006543e+00 -5.012252e+00
vertex -4.638914e+00 3.020292e+00 -1.690175e+00
vertex -3.895325e+00 2.817972e+00 -3.759017e+00
endloop
endfacet
facet normal 0 0 0
outer loop
vertex 1.104037e+01 -3.840318e+00 -5.012249e+00
vertex 1.126814e+01 -3.001121e+00 -3.669301e+00
vertex 1.104037e+01 -3.840318e+00 -2.778295e+00
endloop
endfacet
facet normal 0 0 0
outer loop
vertex 6.161559e+00 -4.501287e+00 2.329621e+00
vertex 7.740874e+00 -5.003233e+00 3.096401e+00
vertex 6.562232e+00 -4.628633e+00 3.728537e+00
endloop
endfacet
facet normal 0 0 0
outer loop
vertex 7.740869e+00 -5.003251e+00 2.998039e+00
vertex 7.740874e+00 -5.003233e+00 3.096401e+00
vertex 6.161559e+00 -4.501287e+00 2.329621e+00
endloop
endfacet
facet normal 0 0 0
outer loop
vertex 4.485411e+00 -6.330450e-01 3.948757e+00
vertex 4.310285e+00 5.837362e-01 3.740591e+00
vertex 2.809258e+00 -1.711389e-01 3.310481e+00
endloop
endfacet
facet normal 0 0 0
outer loop
vertex 1.868464e+00 -3.136783e+00 6.269822e-01
vertex 9.135742e-01 -2.833301e+00 2.974221e+00
vertex 1.157269e-01 -2.579802e+00 6.269822e-01
endloop
endfacet
facet normal 0 0 0
outer loop
vertex 5.030762e+00 -4.141894e+00 4.563578e+00
vertex 1.868480e+00 -3.136768e+00 3.285276e+00
vertex 2.809265e+00 -3.435817e+00 2.966204e+00
endloop
endfacet
facet normal 0 0 0
outer loop
vertex 6.300293e+00 4.169922e-02 4.497651e+00
vertex 5.562252e+00 -2.236681e+00 4.517342e+00
vertex 6.161558e+00 -2.236681e+00 4.255849e+00
endloop
endfacet
facet normal 0 0 0
outer loop
vertex 6.161558e+00 -2.236681e+00 4.255849e+00
vertex 5.562252e+00 -2.236681e+00 4.517342e+00
vertex 5.030762e+00 -4.141894e+00 4.563578e+00
endloop
endfacet
facet normal 0 0 0
outer loop
vertex 1.133118e+00 1.448875e+00 -1.673070e+00
vertex 3.552666e+00 7.894387e-01 -2.023144e+00
vertex 1.133118e+00 1.448393e+00 -2.778295e+00
endloop
endfacet
facet normal 0 0 0
outer loop
vertex -5.430287e-01 1.905062e+00 -2.282215e+00
vertex 1.133118e+00 1.448875e+00 -1.673070e+00
vertex 1.133118e+00 1.448393e+00 -2.778295e+00
endloop
endfacet
facet normal 0 0 0
outer loop
vertex -4.638914e+00 3.020292e+00 -1.690175e+00
vertex -3.050045e+00 2.588012e+00 -2.778295e+00
vertex -3.895325e+00 2.817972e+00 -3.759017e+00
endloop
endfacet
facet normal 0 0 0
outer loop
vertex -1.357910e+00 2.127637e+00 1.189123e+00
vertex 2.174051e-01 1.698128e+00 -1.075657e+00
vertex -5.430287e-01 1.905062e+00 -2.282215e+00
endloop
endfacet
facet normal 0 0 0
outer loop
vertex 8.687983e+00 -6.096925e-01 -2.119399e-01
vertex 9.513851e+00 -8.347272e-01 -1.075657e+00
vertex 7.220769e+00 -2.099026e-01 -1.702343e+00
endloop
endfacet
facet normal 0 0 0
outer loop
vertex 4.485412e+00 5.354343e-01 -3.398342e+00
vertex 3.144513e+00 9.001022e-01 -5.012250e+00
vertex 3.670090e+00 7.571230e-01 -3.925596e+00
endloop
endfacet
facet normal 0 0 0
outer loop
vertex 3.552666e+00 7.894387e-01 -2.023144e+00
vertex 4.485412e+00 5.354343e-01 -3.398342e+00
vertex 3.670090e+00 7.571230e-01 -3.925596e+00
endloop
endfacet
facet normal 0 0 0
outer loop
vertex 1.133118e+00 1.448393e+00 -2.778295e+00
vertex 3.552666e+00 7.894387e-01 -2.023144e+00
vertex 3.144513e+00 9.001022e-01 -5.012250e+00
endloop
endfacet
facet normal 0 0 0
outer loop
vertex 1.133118e+00 1.448393e+00 -2.778295e+00
vertex -6.390569e-01 1.930747e+00 -5.012251e+00
vertex -5.430287e-01 1.905062e+00 -2.282215e+00
endloop
endfacet
facet normal 0 0 0
outer loop
vertex 1.133118e+00 1.448393e+00 -2.778295e+00
vertex 3.144513e+00 9.001022e-01 -5.012250e+00
vertex 1.253613e+00 1.415184e+00 -5.012251e+00
endloop
endfacet
facet normal 0 0 0
outer loop
vertex -4.588379e+00 3.006543e+00 -5.012252e+00
vertex -2.219175e+00 2.361959e+00 -2.778295e+00
vertex -2.219175e+00 2.361186e+00 -4.928787e+00
endloop
endfacet
facet normal 0 0 0
outer loop
vertex -6.390569e-01 1.930747e+00 -5.012251e+00
vertex 1.133118e+00 1.448393e+00 -2.778295e+00
vertex 1.253613e+00 1.415184e+00 -5.012251e+00
endloop
endfacet
facet normal 0 0 0
outer loop
vertex -2.219175e+00 2.361959e+00 -2.778295e+00
vertex -6.390569e-01 1.930747e+00 -5.012251e+00
vertex -2.219175e+00 2.361186e+00 -4.928787e+00
endloop
endfacet
facet normal 0 0 0
outer loop
vertex -2.219175e+00 2.361959e+00 -2.778295e+00
vertex -5.430287e-01 1.905062e+00 -2.282215e+00
vertex -6.390569e-01 1.930747e+00 -5.012251e+00
endloop
endfacet
facet normal 0 0 0
outer loop
vertex -2.219175e+00 2.361853e+00 -1.075657e+00
vertex -3.050045e+00 2.588012e+00 -2.778295e+00
vertex -3.050045e+00 2.588012e+00 -2.170194e-01
endloop
endfacet
facet normal 0 0 0
outer loop
vertex -2.219175e+00 2.361959e+00 -2.778295e+00
vertex -4.588379e+00 3.006543e+00 -5.012252e+00
vertex -3.895325e+00 2.817972e+00 -3.759017e+00
endloop
endfacet
facet normal 0 0 0
outer loop
vertex -4.517537e+00 2.987269e+00 -1.075657e+00
vertex -4.751956e+00 2.538712e+00 -1.075657e+00
vertex -4.631133e+00 3.018175e+00 -7.230033e-01
endloop
endfacet
facet normal 0 0 0
outer loop
vertex 3.670090e+00 7.571230e-01 -3.925596e+00
vertex 3.144513e+00 9.001022e-01 -5.012250e+00
vertex 3.552666e+00 7.894387e-01 -2.023144e+00
endloop
endfacet
facet normal 0 0 0
outer loop
vertex 1.253613e+00 1.415184e+00 -5.012251e+00
vertex -5.430287e-01 9.705912e-01 -5.012251e+00
vertex -6.390569e-01 1.930747e+00 -5.012251e+00
endloop
endfacet
facet normal 0 0 0
outer loop
vertex 1.169482e+01 -1.429004e+00 -5.012249e+00
vertex 1.015520e+01 -1.009482e+00 -2.126814e+00
vertex 1.169482e+01 -1.429004e+00 -2.778295e+00
endloop
endfacet
facet normal 0 0 0
outer loop
vertex 1.169482e+01 -1.429004e+00 -1.075657e+00
vertex 1.126814e+01 -3.001121e+00 -1.075657e+00
vertex 1.126814e+01 -3.001121e+00 -3.669301e+00
endloop
endfacet
facet normal 0 0 0
outer loop
vertex 6.161558e+00 7.871380e-02 6.269822e-01
vertex 5.436131e+00 2.765466e-01 -1.075657e+00
vertex 4.485412e+00 5.354343e-01 -1.075657e+00
endloop
endfacet
facet normal 0 0 0
outer loop
vertex 1.015520e+01 -1.009482e+00 -2.126814e+00
vertex 7.837705e+00 -3.779372e-01 -2.778295e+00
vertex 9.513851e+00 -8.347272e-01 -1.075657e+00
endloop
endfacet
facet normal 0 0 0
outer loop
vertex 3.552738e+00 7.895713e-01 -1.075657e+00
vertex 2.809265e+00 9.921548e-01 9.121490e-02
vertex 4.485412e+00 5.354343e-01 -1.075657e+00
endloop
endfacet
facet normal 0 0 0
outer loop
vertex 5.436131e+00 2.765466e-01 -1.075657e+00
vertex 3.552666e+00 7.894387e-01 -2.023144e+00
vertex 4.485412e+00 5.354343e-01 -1.075657e+00
endloop
endfacet
facet normal 0 0 0
outer loop
vertex -4.979004e+00 1.889355e+00 -5.012252e+00
vertex -4.588379e+00 3.006543e+00 -5.012252e+00
vertex -2.219175e+00 2.361186e+00 -4.928787e+00
endloop
endfacet
facet normal 0 0 0
outer loop
vertex 4.876675e+00 4.282610e-01 -5.012250e+00
vertex 6.161558e+00 -1.184652e+00 -5.012250e+00
vertex 3.385813e+00 -6.330451e-01 -5.012250e+00
endloop
endfacet
facet normal 0 0 0
outer loop
vertex 4.876675e+00 4.282610e-01 -5.012250e+00
vertex 7.045170e+00 -1.624375e-01 -5.012250e+00
vertex 6.161558e+00 -1.184652e+00 -5.012250e+00
endloop
endfacet
facet normal 0 0 0
outer loop
vertex 7.045170e+00 -1.624375e-01 -5.012250e+00
vertex 6.161558e+00 -2.236681e+00 -5.012250e+00
vertex 6.161558e+00 -1.184652e+00 -5.012250e+00
endloop
endfacet
facet normal 0 0 0
outer loop
vertex 1.501293e+00 1.348554e+00 6.269822e-01
vertex 1.133118e+00 1.449132e+00 2.531933e+00
vertex 2.809265e+00 9.921995e-01 1.489773e+00
endloop
endfacet
facet normal 0 0 0
outer loop
vertex 5.436131e+00 2.765466e-01 -1.075657e+00
vertex 7.220673e+00 -2.100869e-01 6.269822e-01
vertex 7.220769e+00 -2.099026e-01 -1.702343e+00
endloop
endfacet
facet normal 0 0 0
outer loop
vertex 9.513851e+00 -8.347272e-01 -1.075657e+00
vertex 8.687983e+00 -6.096925e-01 -2.119399e-01
vertex 9.513851e+00 -8.347272e-01 6.269822e-01
endloop
endfacet
facet normal 0 0 0
outer loop
vertex 5.235310e+00 3.311001e-01 1.388734e+00
vertex 6.161558e+00 7.871380e-02 6.269822e-01
vertex 4.485412e+00 5.354343e-01 6.271403e-01
endloop
endfacet
facet normal 0 0 0
outer loop
vertex -3.050045e+00 2.588012e+00 -2.170194e-01
vertex -1.357910e+00 2.127637e+00 1.189123e+00
vertex -2.219175e+00 2.361853e+00 -1.075657e+00
endloop
endfacet
facet normal 0 0 0
outer loop
vertex -1.357910e+00 2.127637e+00 1.189123e+00
vertex -3.050045e+00 2.588012e+00 -2.170194e-01
vertex -4.588379e+00 3.006543e+00 1.214744e+00
endloop
endfacet
facet normal 0 0 0
outer loop
vertex 9.135742e-01 -2.833301e+00 2.974221e+00
vertex -5.430287e-01 -2.295621e+00 2.937978e+00
vertex -5.430293e-01 -2.370420e+00 1.549298e+00
endloop
endfacet
facet normal 0 0 0
outer loop
vertex -3.158204e+00 -6.330451e-01 2.534723e+00
vertex -3.038823e+00 -1.577299e+00 2.974180e+00
vertex -2.219175e+00 -6.330451e-01 2.390143e+00
endloop
endfacet
facet normal 0 0 0
outer loop
vertex -3.038823e+00 -1.577299e+00 2.974180e+00
vertex -3.158204e+00 -6.330451e-01 2.534723e+00
vertex -3.895322e+00 5.311482e-01 2.084777e+00
endloop
endfacet
facet normal 0 0 0
outer loop
vertex -3.038823e+00 -1.577299e+00 2.974180e+00
vertex -3.895322e+00 5.311482e-01 2.084777e+00
vertex -5.571469e+00 -7.302818e-01 2.953722e+00
endloop
endfacet
facet normal 0 0 0
outer loop
vertex -3.038823e+00 -1.577299e+00 2.974180e+00
vertex -1.594607e+00 -2.036245e+00 2.974195e+00
vertex -2.219175e+00 -6.330451e-01 2.390143e+00
endloop
endfacet
facet normal 0 0 0
outer loop
vertex -1.594607e+00 -2.036245e+00 2.974195e+00
vertex -3.038823e+00 -1.577299e+00 2.974180e+00
vertex -2.219176e+00 -1.837771e+00 -1.256696e-02
endloop
endfacet
facet normal 0 0 0
outer loop
vertex -5.430293e-01 -2.370420e+00 1.549298e+00
vertex -1.594607e+00 -2.036245e+00 2.974195e+00
vertex -2.219176e+00 -1.837771e+00 -1.256696e-02
endloop
endfacet
facet normal 0 0 0
outer loop
vertex -2.219176e+00 -1.837771e+00 -1.256696e-02
vertex -3.038823e+00 -1.577299e+00 2.974180e+00
vertex -3.895322e+00 -1.305119e+00 2.295381e+00
endloop
endfacet
facet normal 0 0 0
outer loop
vertex -3.895322e+00 1.776122e+00 1.482244e+00
vertex -3.895322e+00 1.769889e+00 1.501978e+00
vertex -2.819205e+00 1.319006e+00 1.537556e+00
endloop
endfacet
facet normal 0 0 0
outer loop
vertex -5.430293e-01 -2.370420e+00 1.549298e+00
vertex -5.430287e-01 -2.295621e+00 2.937978e+00
vertex -1.594607e+00 -2.036245e+00 2.974195e+00
endloop
endfacet
facet normal 0 0 0
outer loop
vertex -3.895322e+00 -1.305119e+00 2.295381e+00
vertex -3.038823e+00 -1.577299e+00 2.974180e+00
vertex -5.571469e+00 -7.302818e-01 2.953722e+00
endloop
endfacet
facet normal 0 0 0
outer loop
vertex 9.513851e+00 -8.347272e-01 6.269822e-01
vertex 8.687983e+00 -6.096924e-01 1.490698e+00
vertex 9.008133e+00 -6.656708e-01 3.039475e+00
endloop
endfacet
facet normal 0 0 0
outer loop
vertex 6.161558e+00 7.871380e-02 6.269822e-01
vertex 4.485412e+00 5.354343e-01 -1.075657e+00
vertex 4.485412e+00 5.354343e-01 6.271403e-01
endloop
endfacet
facet normal 0 0 0
outer loop
vertex 7.220673e+00 -2.100869e-01 6.269822e-01
vertex 8.687983e+00 -6.096924e-01 1.490698e+00
vertex 8.687983e+00 -6.096925e-01 -2.119399e-01
endloop
endfacet
facet normal 0 0 0
outer loop
vertex 8.687983e+00 -6.096924e-01 1.490698e+00
vertex 9.513851e+00 -8.347272e-01 6.269822e-01
vertex 8.687983e+00 -6.096925e-01 -2.119399e-01
endloop
endfacet
facet normal 0 0 0
outer loop
vertex 1.169482e+01 -1.429004e+00 -1.075657e+00
vertex 1.169482e+01 -1.429004e+00 -2.778295e+00
vertex 1.138100e+01 -1.343493e+00 -1.829965e+00
endloop
endfacet
facet normal 0 0 0
outer loop
vertex 1.169482e+01 -1.429004e+00 -2.778295e+00
vertex 1.169482e+01 -1.429004e+00 -1.075657e+00
vertex 1.126814e+01 -3.001121e+00 -3.669301e+00
endloop
endfacet
facet normal 0 0 0
outer loop
vertex 1.169482e+01 -1.429004e+00 -2.778295e+00
vertex 1.015520e+01 -1.009482e+00 -2.126814e+00
vertex 1.138100e+01 -1.343493e+00 -1.829965e+00
endloop
endfacet
facet normal 0 0 0
outer loop
vertex 1.169482e+01 -1.429004e+00 -1.075657e+00
vertex 1.138100e+01 -1.343493e+00 -1.829965e+00
vertex 1.015520e+01 -1.009482e+00 -2.126814e+00
endloop
endfacet
facet normal 0 0 0
outer loop
vertex 1.015520e+01 -1.009482e+00 -2.126814e+00
vertex 9.513851e+00 -8.347272e-01 -1.075657e+00
vertex 1.169482e+01 -1.429004e+00 -1.075657e+00
endloop
endfacet
facet normal 0 0 0
outer loop
vertex 1.133118e+00 1.448875e+00 -1.673070e+00
vertex 2.174051e-01 1.698128e+00 -1.075657e+00
vertex 1.501293e+00 1.348554e+00 6.269822e-01
endloop
endfacet
facet normal 0 0 0
outer loop
vertex 1.501293e+00 1.348554e+00 6.269822e-01
vertex 2.174051e-01 1.698128e+00 -1.075657e+00
vertex 2.174916e-01 1.698211e+00 6.269822e-01
endloop
endfacet
facet normal 0 0 0
outer loop
vertex 8.526119e+00 -5.658481e-01 -5.012249e+00
vertex 8.609281e+00 -5.882475e-01 -3.546303e+00
vertex 1.015520e+01 -1.009482e+00 -2.126814e+00
endloop
endfacet
facet normal 0 0 0
outer loop
vertex 1.169482e+01 -1.429004e+00 -5.012249e+00
vertex 8.526119e+00 -5.658481e-01 -5.012249e+00
vertex 1.015520e+01 -1.009482e+00 -2.126814e+00
endloop
endfacet
facet normal 0 0 0
outer loop
vertex -1.357910e+00 2.127637e+00 1.584285e+00
vertex 2.174916e-01 1.698211e+00 6.269822e-01
vertex -1.357910e+00 2.127637e+00 1.189123e+00
endloop
endfacet
facet normal 0 0 0
outer loop
vertex 9.513851e+00 -8.347272e-01 -1.075657e+00
vertex 7.837705e+00 -3.779372e-01 -2.778295e+00
vertex 7.220769e+00 -2.099026e-01 -1.702343e+00
endloop
endfacet
facet normal 0 0 0
outer loop
vertex 7.837705e+00 -3.779372e-01 -2.778295e+00
vertex 1.015520e+01 -1.009482e+00 -2.126814e+00
vertex 8.609281e+00 -5.882475e-01 -3.546303e+00
endloop
endfacet
facet normal 0 0 0
outer loop
vertex 2.174916e-01 1.698211e+00 6.269822e-01
vertex 1.133118e+00 1.449132e+00 2.531933e+00
vertex 1.501293e+00 1.348554e+00 6.269822e-01
endloop
endfacet
facet normal 0 0 0
outer loop
vertex 2.809265e+00 9.921548e-01 9.121490e-02
vertex 2.809265e+00 9.921995e-01 1.489773e+00
vertex 4.485412e+00 5.354343e-01 6.271403e-01
endloop
endfacet
facet normal 0 0 0
outer loop
vertex 2.809265e+00 9.921548e-01 9.121490e-02
vertex 4.485412e+00 5.354343e-01 6.271403e-01
vertex 4.485412e+00 5.354343e-01 -1.075657e+00
endloop
endfacet
facet normal 0 0 0
outer loop
vertex 1.501293e+00 1.348554e+00 6.269822e-01
vertex 2.809265e+00 9.921995e-01 1.489773e+00
vertex 2.809265e+00 9.921548e-01 9.121490e-02
endloop
endfacet
facet normal 0 0 0
outer loop
vertex 8.609281e+00 -5.882475e-01 -3.546303e+00
vertex 7.220494e+00 -2.098275e-01 -3.854287e+00
vertex 7.837705e+00 -3.779372e-01 -2.778295e+00
endloop
endfacet
facet normal 0 0 0
outer loop
vertex 2.809265e+00 9.921548e-01 9.121490e-02
vertex 1.133118e+00 1.448875e+00 -1.673070e+00
vertex 1.501293e+00 1.348554e+00 6.269822e-01
endloop
endfacet
facet normal 0 0 0
outer loop
vertex 2.174051e-01 1.698128e+00 -1.075657e+00
vertex 1.133118e+00 1.448875e+00 -1.673070e+00
vertex -5.430287e-01 1.905062e+00 -2.282215e+00
endloop
endfacet
facet normal 0 0 0
outer loop
vertex 2.809265e+00 9.921548e-01 9.121490e-02
vertex 3.552666e+00 7.894387e-01 -2.023144e+00
vertex 1.133118e+00 1.448875e+00 -1.673070e+00
endloop
endfacet
facet normal 0 0 0
outer loop
vertex 7.220494e+00 -2.098275e-01 -3.854287e+00
vertex 7.045170e+00 -1.624375e-01 -5.012250e+00
vertex 4.876675e+00 4.282610e-01 -5.012250e+00
endloop
endfacet
facet normal 0 0 0
outer loop
vertex 4.876675e+00 4.282610e-01 -5.012250e+00
vertex 5.435892e+00 2.763171e-01 -2.778295e+00
vertex 7.220494e+00 -2.098275e-01 -3.854287e+00
endloop
endfacet
facet normal 0 0 0
outer loop
vertex -7.752441e+00 -7.939453e-02 2.974133e+00
vertex -4.979004e+00 1.889355e+00 1.559608e+00
vertex -6.949707e+00 2.516309e+00 1.594289e+00
endloop
endfacet
facet normal 0 0 0
outer loop
vertex -4.588379e+00 3.006543e+00 1.214744e+00
vertex -3.784997e+00 1.750052e+00 1.498254e+00
vertex -1.609520e+00 1.789618e+00 1.304619e+00
endloop
endfacet
facet normal 0 0 0
outer loop
vertex -3.784997e+00 1.750052e+00 1.498254e+00
vertex -3.895322e+00 1.769889e+00 1.501978e+00
vertex -2.819205e+00 1.319006e+00 1.537556e+00
endloop
endfacet
facet normal 0 0 0
outer loop
vertex -4.979004e+00 1.889355e+00 1.559608e+00
vertex -3.895322e+00 5.311482e-01 2.084777e+00
vertex -3.895322e+00 1.544616e+00 1.594287e+00
endloop
endfacet
facet normal 0 0 0
outer loop
vertex -3.895322e+00 5.311482e-01 2.084777e+00
vertex -1.808989e+00 8.901687e-01 1.589784e+00
vertex -3.895322e+00 1.544616e+00 1.594287e+00
endloop
endfacet
facet normal 0 0 0
outer loop
vertex -3.895322e+00 1.769889e+00 1.501978e+00
vertex -3.784997e+00 1.750052e+00 1.498254e+00
vertex -4.588379e+00 3.006543e+00 1.214744e+00
endloop
endfacet
facet normal 0 0 0
outer loop
vertex -3.895322e+00 5.311482e-01 2.084777e+00
vertex -1.793457e+00 8.776367e-01 1.574707e+00
vertex -1.808989e+00 8.901687e-01 1.589784e+00
endloop
endfacet
facet normal 0 0 0
outer loop
vertex -3.158204e+00 -6.330451e-01 2.534723e+00
vertex -1.793457e+00 8.776367e-01 1.574707e+00
vertex -3.895322e+00 5.311482e-01 2.084777e+00
endloop
endfacet
facet normal 0 0 0
outer loop
vertex -3.895322e+00 1.769889e+00 1.501978e+00
vertex -4.979004e+00 1.889355e+00 1.559608e+00
vertex -3.895322e+00 1.544616e+00 1.594287e+00
endloop
endfacet
facet normal 0 0 0
outer loop
vertex -3.895322e+00 1.769889e+00 1.501978e+00
vertex -3.895322e+00 1.544616e+00 1.594287e+00
vertex -1.808989e+00 8.901687e-01 1.589784e+00
endloop
endfacet
facet normal 0 0 0
outer loop
vertex -2.819205e+00 1.319006e+00 1.537556e+00
vertex -3.895322e+00 1.769889e+00 1.501978e+00
vertex -1.808989e+00 8.901687e-01 1.589784e+00
endloop
endfacet
facet normal 0 0 0
outer loop
vertex 4.485411e+00 -6.330450e-01 3.948757e+00
vertex 2.809258e+00 -1.711389e-01 3.310481e+00
vertex 2.809260e+00 -1.688253e+00 3.494204e+00
endloop
endfacet
facet normal 0 0 0
outer loop
vertex 2.809258e+00 -1.711389e-01 3.310481e+00
vertex 1.868480e+00 -3.136768e+00 3.285276e+00
vertex 2.809260e+00 -1.688253e+00 3.494204e+00
endloop
endfacet
facet normal 0 0 0
outer loop
vertex 9.135742e-01 -2.833301e+00 2.974221e+00
vertex -5.430287e-01 -6.330451e-01 2.132710e+00
vertex -5.430287e-01 -2.295621e+00 2.937978e+00
endloop
endfacet
facet normal 0 0 0
outer loop
vertex -1.594607e+00 -2.036245e+00 2.974195e+00
vertex -5.430287e-01 -6.330451e-01 2.132710e+00
vertex -2.219175e+00 -6.330451e-01 2.390143e+00
endloop
endfacet
facet normal 0 0 0
outer loop
vertex 9.135742e-01 -2.833301e+00 2.974221e+00
vertex 3.317757e-01 2.039220e-01 2.404270e+00
vertex -5.430287e-01 -6.330451e-01 2.132710e+00
endloop
endfacet
facet normal 0 0 0
outer loop
vertex 8.740129e+00 -5.320821e+00 -1.861608e+00
vertex 1.048779e+01 -5.876281e+00 -2.869782e+00
vertex 1.048779e+01 -5.876288e+00 -1.689864e+00
endloop
endfacet
facet normal 0 0 0
outer loop
vertex 9.513847e+00 -5.566740e+00 -1.075657e+00
vertex 7.837707e+00 -5.033965e+00 -1.709381e+00
vertex 8.740129e+00 -5.320821e+00 -1.861608e+00
endloop
endfacet
facet normal 0 0 0
outer loop
vertex 6.161561e+00 -4.501281e+00 1.127413e+00
vertex 6.901151e+00 -4.736303e+00 -1.075633e+00
vertex 7.837702e+00 -5.034017e+00 1.260674e+00
endloop
endfacet
facet normal 0 0 0
outer loop
vertex 6.161559e+00 -4.501287e+00 2.329621e+00
vertex 6.161561e+00 -4.501281e+00 1.127413e+00
vertex 7.837702e+00 -5.034017e+00 1.260674e+00
endloop
endfacet
facet normal 0 0 0
outer loop
vertex 6.161559e+00 -4.501287e+00 2.329621e+00
vertex 7.837702e+00 -5.034017e+00 1.260674e+00
vertex 7.740869e+00 -5.003251e+00 2.998039e+00
endloop
endfacet
facet normal 0 0 0
outer loop
vertex 1.156859e-01 -2.579881e+00 -2.778295e+00
vertex 1.157269e-01 -2.579802e+00 6.269822e-01
vertex -5.430287e-01 -2.370470e+00 -2.953612e-01
endloop
endfacet
facet normal 0 0 0
outer loop
vertex 5.146642e+00 -4.178709e+00 -1.075657e+00
vertex 6.901151e+00 -4.736303e+00 -1.075633e+00
vertex 6.161561e+00 -4.501281e+00 1.127413e+00
endloop
endfacet
facet normal 0 0 0
outer loop
vertex 4.381540e-01 -2.682423e+00 -5.012249e+00
vertex 1.868332e+00 -3.136910e+00 -3.734100e+00
vertex 1.156859e-01 -2.579881e+00 -2.778295e+00
endloop
endfacet
facet normal 0 0 0
outer loop
vertex 6.901151e+00 -4.736303e+00 -1.075633e+00
vertex 6.901176e+00 -4.736332e+00 -2.778295e+00
vertex 7.837707e+00 -5.033965e+00 -1.709381e+00
endloop
endfacet
facet normal 0 0 0
outer loop
vertex 4.485412e+00 -3.968550e+00 2.329621e+00
vertex 6.161559e+00 -4.501287e+00 2.329621e+00
vertex 5.030762e+00 -4.141894e+00 4.563578e+00
endloop
endfacet
facet normal 0 0 0
outer loop
vertex 6.161559e+00 -4.501287e+00 2.329621e+00
vertex 4.485412e+00 -3.968550e+00 2.329621e+00
vertex 6.161561e+00 -4.501281e+00 1.127413e+00
endloop
endfacet
facet normal 0 0 0
outer loop
vertex 1.048779e+01 -5.876269e+00 -5.012249e+00
vertex 1.048779e+01 -5.876281e+00 -2.869782e+00
vertex 8.740129e+00 -5.320821e+00 -1.861608e+00
endloop
endfacet
facet normal 0 0 0
outer loop
vertex 3.709248e+00 -3.721854e+00 1.541190e+00
vertex 5.030762e+00 -4.141894e+00 4.563578e+00
vertex 2.809265e+00 -3.435817e+00 2.966204e+00
endloop
endfacet
facet normal 0 0 0
outer loop
vertex 1.868480e+00 -3.136768e+00 3.285276e+00
vertex 3.709248e+00 -3.721854e+00 1.541190e+00
vertex 2.809265e+00 -3.435817e+00 2.966204e+00
endloop
endfacet
facet normal 0 0 0
outer loop
vertex -5.430287e-01 -2.370470e+00 -2.953612e-01
vertex -1.321733e+00 -2.123080e+00 -3.569307e+00
vertex 1.156859e-01 -2.579881e+00 -2.778295e+00
endloop
endfacet
facet normal 0 0 0
outer loop
vertex -5.571469e+00 2.077840e+00 -1.075657e+00
vertex -4.979004e+00 1.889355e+00 -2.290553e+00
vertex -6.949707e+00 2.516309e+00 -1.524060e+00
endloop
endfacet
facet normal 0 0 0
outer loop
vertex -5.571469e+00 2.077840e+00 -1.075657e+00
vertex -6.949707e+00 2.516309e+00 -1.524060e+00
vertex -6.949707e+00 2.516309e+00 1.594289e+00
endloop
endfacet
facet normal 0 0 0
outer loop
vertex -4.517537e+00 2.987269e+00 -1.075657e+00
vertex -4.979004e+00 1.889355e+00 -2.290553e+00
vertex -4.751956e+00 2.538712e+00 -1.075657e+00
endloop
endfacet
facet normal 0 0 0
outer loop
vertex -4.638914e+00 3.020292e+00 -1.690175e+00
vertex -4.979004e+00 1.889355e+00 -2.290553e+00
vertex -4.517537e+00 2.987269e+00 -1.075657e+00
endloop
endfacet
facet normal 0 0 0
outer loop
vertex -4.631133e+00 3.018175e+00 -7.230033e-01
vertex -4.751956e+00 2.538712e+00 -1.075657e+00
vertex -4.995727e+00 1.841528e+00 6.177773e-02
endloop
endfacet
facet normal 0 0 0
outer loop
vertex 1.156859e-01 -2.579881e+00 -2.778295e+00
vertex -9.341042e-01 -2.246310e+00 -5.012250e+00
vertex 4.381540e-01 -2.682423e+00 -5.012249e+00
endloop
endfacet
facet normal 0 0 0
outer loop
vertex 1.868332e+00 -3.136910e+00 -3.734100e+00
vertex 1.561162e+00 -3.039323e+00 -5.012249e+00
vertex 2.581614e+00 -3.363628e+00 -4.940088e+00
endloop
endfacet
facet normal 0 0 0
outer loop
vertex 1.868332e+00 -3.136910e+00 -3.734100e+00
vertex 4.381540e-01 -2.682423e+00 -5.012249e+00
vertex 1.561162e+00 -3.039323e+00 -5.012249e+00
endloop
endfacet
facet normal 0 0 0
outer loop
vertex 2.809265e+00 -3.435936e+00 -3.414941e+00
vertex 1.868332e+00 -3.136910e+00 -3.734100e+00
vertex 2.581614e+00 -3.363628e+00 -4.940088e+00
endloop
endfacet
facet normal 0 0 0
outer loop
vertex -9.341042e-01 -2.246310e+00 -5.012250e+00
vertex -1.321733e+00 -2.123080e+00 -3.569307e+00
vertex -2.455425e+00 -1.762822e+00 -4.937362e+00
endloop
endfacet
facet normal 0 0 0
outer loop
vertex -9.341042e-01 -2.246310e+00 -5.012250e+00
vertex 1.156859e-01 -2.579881e+00 -2.778295e+00
vertex -1.321733e+00 -2.123080e+00 -3.569307e+00
endloop
endfacet
facet normal 0 0 0
outer loop
vertex -1.321733e+00 -2.123080e+00 -3.569307e+00
vertex -2.219175e+00 -1.837863e+00 -3.417894e+00
vertex -2.455425e+00 -1.762822e+00 -4.937362e+00
endloop
endfacet
facet normal 0 0 0
outer loop
vertex 6.901109e+00 -4.736396e+00 -5.012250e+00
vertex 6.901115e+00 -4.736390e+00 -4.715364e+00
vertex 6.161558e+00 -4.501362e+00 -5.012250e+00
endloop
endfacet
facet normal 0 0 0
outer loop
vertex 6.901115e+00 -4.736390e+00 -4.715364e+00
vertex 6.901109e+00 -4.736396e+00 -5.012250e+00
vertex 7.618653e+00 -4.964435e+00 -4.942813e+00
endloop
endfacet
facet normal 0 0 0
outer loop
vertex 8.740129e+00 -5.320821e+00 -1.861608e+00
vertex 7.837707e+00 -5.033965e+00 -1.709381e+00
vertex 6.901176e+00 -4.736332e+00 -2.778295e+00
endloop
endfacet
facet normal 0 0 0
outer loop
vertex 8.740131e+00 -5.320812e+00 -3.564247e+00
vertex 8.740129e+00 -5.320821e+00 -1.861608e+00
vertex 6.901176e+00 -4.736332e+00 -2.778295e+00
endloop
endfacet
facet normal 0 0 0
outer loop
vertex 8.740131e+00 -5.320812e+00 -3.564247e+00
vertex 6.901176e+00 -4.736332e+00 -2.778295e+00
vertex 7.837699e+00 -5.034008e+00 -3.411978e+00
endloop
endfacet
facet normal 0 0 0
outer loop
vertex 3.249004e+00 -3.575588e+00 3.118552e-01
vertex 3.709248e+00 -3.721854e+00 1.541190e+00
vertex 1.868464e+00 -3.136783e+00 6.269822e-01
endloop
endfacet
facet normal 0 0 0
outer loop
vertex -2.219175e+00 -1.837768e+00 -1.075657e+00
vertex -2.219176e+00 -1.837771e+00 -1.256696e-02
vertex -3.164413e+00 -1.537397e+00 -1.075657e+00
endloop
endfacet
facet normal 0 0 0
outer loop
vertex -1.321733e+00 -2.123080e+00 -3.569307e+00
vertex -2.219176e+00 -1.837771e+00 -1.256696e-02
vertex -2.219175e+00 -1.837768e+00 -1.075657e+00
endloop
endfacet
facet normal 0 0 0
outer loop
vertex -5.430293e-01 -2.370420e+00 1.549298e+00
vertex -2.219176e+00 -1.837771e+00 -1.256696e-02
vertex -5.430287e-01 -2.370470e+00 -2.953612e-01
endloop
endfacet
facet normal 0 0 0
outer loop
vertex -3.895322e+00 -1.305119e+00 -2.778295e+00
vertex -3.465323e+00 -1.441871e+00 -5.012249e+00
vertex -2.219175e+00 -1.837863e+00 -3.417894e+00
endloop
endfacet
facet normal 0 0 0
outer loop
vertex -3.164411e+00 -1.537389e+00 -2.035832e+00
vertex -2.219175e+00 -1.837768e+00 -1.075657e+00
vertex -3.164413e+00 -1.537397e+00 -1.075657e+00
endloop
endfacet
facet normal 0 0 0
outer loop
vertex -3.895322e+00 -1.305119e+00 -2.778295e+00
vertex -5.571467e+00 -7.724635e-01 -2.778295e+00
vertex -5.450896e+00 -8.108071e-01 -3.723972e+00
endloop
endfacet
facet normal 0 0 0
outer loop
vertex -3.164411e+00 -1.537389e+00 -2.035832e+00
vertex -1.321733e+00 -2.123080e+00 -3.569307e+00
vertex -2.219175e+00 -1.837768e+00 -1.075657e+00
endloop
endfacet
facet normal 0 0 0
outer loop
vertex -2.219175e+00 -1.837863e+00 -3.417894e+00
vertex -3.164411e+00 -1.537389e+00 -2.035832e+00
vertex -3.895322e+00 -1.305119e+00 -2.778295e+00
endloop
endfacet
facet normal 0 0 0
outer loop
vertex -3.164411e+00 -1.537389e+00 -2.035832e+00
vertex -2.219175e+00 -1.837863e+00 -3.417894e+00
vertex -1.321733e+00 -2.123080e+00 -3.569307e+00
endloop
endfacet
facet normal 0 0 0
outer loop
vertex -2.219176e+00 -1.837771e+00 -1.256696e-02
vertex -1.321733e+00 -2.123080e+00 -3.569307e+00
vertex -5.430287e-01 -2.370470e+00 -2.953612e-01
endloop
endfacet
facet normal 0 0 0
outer loop
vertex -5.430287e-01 -2.370470e+00 -2.953612e-01
vertex 1.157269e-01 -2.579802e+00 6.269822e-01
vertex -5.430293e-01 -2.370420e+00 1.549298e+00
endloop
endfacet
facet normal 0 0 0
outer loop
vertex -4.593460e+00 -1.083341e+00 -5.012250e+00
vertex -3.465323e+00 -1.441871e+00 -5.012249e+00
vertex -5.450896e+00 -8.108071e-01 -3.723972e+00
endloop
endfacet
facet normal 0 0 0
outer loop
vertex -5.450896e+00 -8.108071e-01 -3.723972e+00
vertex -3.465323e+00 -1.441871e+00 -5.012249e+00
vertex -3.895322e+00 -1.305119e+00 -2.778295e+00
endloop
endfacet
facet normal 0 0 0
outer loop
vertex -5.450896e+00 -8.108071e-01 -3.723972e+00
vertex -5.571469e+00 -7.725230e-01 -5.012249e+00
vertex -4.593460e+00 -1.083341e+00 -5.012250e+00
endloop
endfacet
facet normal 0 0 0
outer loop
vertex 9.135742e-01 -2.833301e+00 2.974221e+00
vertex 1.868464e+00 -3.136783e+00 6.269822e-01
vertex 1.868456e+00 -3.136791e+00 2.177692e+00
endloop
endfacet
facet normal 0 0 0
outer loop
vertex 9.135742e-01 -2.833301e+00 2.974221e+00
vertex 1.868456e+00 -3.136791e+00 2.177692e+00
vertex 1.868480e+00 -3.136768e+00 3.285276e+00
endloop
endfacet
facet normal 0 0 0
outer loop
vertex 5.146642e+00 -4.178709e+00 -1.075657e+00
vertex 6.901176e+00 -4.736332e+00 -2.778295e+00
vertex 6.901151e+00 -4.736303e+00 -1.075633e+00
endloop
endfacet
facet normal 0 0 0
outer loop
vertex 7.837699e+00 -5.034008e+00 -3.411978e+00
vertex 6.901176e+00 -4.736332e+00 -2.778295e+00
vertex 6.901115e+00 -4.736390e+00 -4.715364e+00
endloop
endfacet
facet normal 0 0 0
outer loop
vertex 6.901180e+00 -4.736328e+00 -3.729622e+00
vertex 7.837699e+00 -5.034008e+00 -3.411978e+00
vertex 6.901176e+00 -4.736332e+00 -2.778295e+00
endloop
endfacet
facet normal 0 0 0
outer loop
vertex 2.809265e+00 -3.435890e+00 -1.712278e+00
vertex 5.146642e+00 -4.178709e+00 -1.075657e+00
vertex 4.485409e+00 -3.968543e+00 -2.924031e-01
endloop
endfacet
facet normal 0 0 0
outer loop
vertex 2.809265e+00 -3.435890e+00 -1.712278e+00
vertex 4.485409e+00 -3.968543e+00 -2.924031e-01
vertex 3.249004e+00 -3.575588e+00 3.118552e-01
endloop
endfacet
facet normal 0 0 0
outer loop
vertex 6.901176e+00 -4.736332e+00 -2.778295e+00
vertex 6.161558e+00 -4.501362e+00 -5.012250e+00
vertex 6.901115e+00 -4.736390e+00 -4.715364e+00
endloop
endfacet
facet normal 0 0 0
outer loop
vertex 5.146606e+00 -4.178771e+00 -3.809289e+00
vertex 6.161558e+00 -4.501362e+00 -5.012250e+00
vertex 6.901176e+00 -4.736332e+00 -2.778295e+00
endloop
endfacet
facet normal 0 0 0
outer loop
vertex 5.146642e+00 -4.178709e+00 -1.075657e+00
vertex 2.809265e+00 -3.435890e+00 -1.712278e+00
vertex 5.146606e+00 -4.178771e+00 -3.809289e+00
endloop
endfacet
facet normal 0 0 0
outer loop
vertex 5.146642e+00 -4.178709e+00 -1.075657e+00
vertex 5.146606e+00 -4.178771e+00 -3.809289e+00
vertex 6.901176e+00 -4.736332e+00 -2.778295e+00
endloop
endfacet
facet normal 0 0 0
outer loop
vertex 1.868464e+00 -3.136783e+00 6.269822e-01
vertex 1.156859e-01 -2.579881e+00 -2.778295e+00
vertex 3.249004e+00 -3.575588e+00 3.118552e-01
endloop
endfacet
facet normal 0 0 0
outer loop
vertex 1.157269e-01 -2.579802e+00 6.269822e-01
vertex 1.156859e-01 -2.579881e+00 -2.778295e+00
vertex 1.868464e+00 -3.136783e+00 6.269822e-01
endloop
endfacet
facet normal 0 0 0
outer loop
vertex 7.618653e+00 -4.964435e+00 -4.942813e+00
vertex 1.048779e+01 -5.876269e+00 -5.012249e+00
vertex 7.837699e+00 -5.034008e+00 -3.411978e+00
endloop
endfacet
facet normal 0 0 0
outer loop
vertex 6.901115e+00 -4.736390e+00 -4.715364e+00
vertex 7.618653e+00 -4.964435e+00 -4.942813e+00
vertex 7.837699e+00 -5.034008e+00 -3.411978e+00
endloop
endfacet
facet normal 0 0 0
outer loop
vertex 8.740131e+00 -5.320812e+00 -3.564247e+00
vertex 7.837699e+00 -5.034008e+00 -3.411978e+00
vertex 1.048779e+01 -5.876269e+00 -5.012249e+00
endloop
endfacet
facet normal 0 0 0
outer loop
vertex -2.455425e+00 -1.762822e+00 -4.937362e+00
vertex -3.465323e+00 -1.441871e+00 -5.012249e+00
vertex -2.219175e+00 -6.330451e-01 -5.012251e+00
endloop
endfacet
facet normal 0 0 0
outer loop
vertex 1.048779e+01 -5.876269e+00 -5.012249e+00
vertex 7.618653e+00 -4.964435e+00 -4.942813e+00
vertex 7.837705e+00 -4.892346e+00 -5.012250e+00
endloop
endfacet
facet normal 0 0 0
outer loop
vertex -5.430287e-01 -8.143816e-02 -5.012251e+00
vertex -2.455425e+00 -1.762822e+00 -4.937362e+00
vertex -2.219175e+00 -6.330451e-01 -5.012251e+00
endloop
endfacet
facet normal 0 0 0
outer loop
vertex 1.133118e+00 -1.685074e+00 -5.012251e+00
vertex 4.381540e-01 -2.682423e+00 -5.012249e+00
vertex -9.341042e-01 -2.246310e+00 -5.012250e+00
endloop
endfacet
facet normal 0 0 0
outer loop
vertex 2.581614e+00 -3.363628e+00 -4.940088e+00
vertex 1.561162e+00 -3.039323e+00 -5.012249e+00
vertex 2.809265e+00 -2.236681e+00 -5.012250e+00
endloop
endfacet
facet normal 0 0 0
outer loop
vertex 1.133118e+00 -1.685074e+00 -5.012251e+00
vertex 1.561162e+00 -3.039323e+00 -5.012249e+00
vertex 4.381540e-01 -2.682423e+00 -5.012249e+00
endloop
endfacet
facet normal 0 0 0
outer loop
vertex 2.809265e+00 -2.236681e+00 -5.012250e+00
vertex 1.561162e+00 -3.039323e+00 -5.012249e+00
vertex 1.133118e+00 -1.685074e+00 -5.012251e+00
endloop
endfacet
facet normal 0 0 0
outer loop
vertex -3.895322e+00 -8.143782e-02 -5.012251e+00
vertex -3.465323e+00 -1.441871e+00 -5.012249e+00
vertex -4.593460e+00 -1.083341e+00 -5.012250e+00
endloop
endfacet
facet normal 0 0 0
outer loop
vertex -2.219175e+00 -6.330451e-01 -5.012251e+00
vertex -3.465323e+00 -1.441871e+00 -5.012249e+00
vertex -3.895322e+00 -8.143782e-02 -5.012251e+00
endloop
endfacet
facet normal 0 0 0
outer loop
vertex -2.455425e+00 -1.762822e+00 -4.937362e+00
vertex -5.430287e-01 -8.143816e-02 -5.012251e+00
vertex -9.341042e-01 -2.246310e+00 -5.012250e+00
endloop
endfacet
facet normal 0 0 0
outer loop
vertex -4.593460e+00 -1.083341e+00 -5.012250e+00
vertex -5.571469e+00 -7.725230e-01 -5.012249e+00
vertex -3.895322e+00 -8.143782e-02 -5.012251e+00
endloop
endfacet
facet normal 0 0 0
outer loop
vertex 6.161558e+00 -3.288711e+00 -5.012250e+00
vertex 6.161558e+00 -4.501362e+00 -5.012250e+00
vertex 4.097509e+00 -3.845392e+00 -5.012249e+00
endloop
endfacet
facet normal 0 0 0
outer loop
vertex 6.161558e+00 -3.288711e+00 -5.012250e+00
vertex 6.901109e+00 -4.736396e+00 -5.012250e+00
vertex 6.161558e+00 -4.501362e+00 -5.012250e+00
endloop
endfacet
facet normal 0 0 0
outer loop
vertex 7.837705e+00 -3.840318e+00 -5.012250e+00
vertex 6.901109e+00 -4.736396e+00 -5.012250e+00
vertex 6.161558e+00 -3.288711e+00 -5.012250e+00
endloop
endfacet
facet normal 0 0 0
outer loop
vertex 7.837705e+00 -4.892346e+00 -5.012250e+00
vertex 7.618653e+00 -4.964435e+00 -4.942813e+00
vertex 6.901109e+00 -4.736396e+00 -5.012250e+00
endloop
endfacet
facet normal 0 0 0
outer loop
vertex 7.837705e+00 -4.892346e+00 -5.012250e+00
vertex 6.901109e+00 -4.736396e+00 -5.012250e+00
vertex 7.837705e+00 -3.840318e+00 -5.012250e+00
endloop
endfacet
facet normal 0 0 0
outer loop
vertex -5.430287e-01 -6.330451e-01 2.132710e+00
vertex -1.594607e+00 -2.036245e+00 2.974195e+00
vertex -5.430287e-01 -2.295621e+00 2.937978e+00
endloop
endfacet
facet normal 0 0 0
outer loop
vertex -2.819205e+00 1.319006e+00 1.537556e+00
vertex -1.793457e+00 8.776367e-01 1.574707e+00
vertex -3.784997e+00 1.750052e+00 1.498254e+00
endloop
endfacet
facet normal 0 0 0
outer loop
vertex -2.819205e+00 1.319006e+00 1.537556e+00
vertex -3.895322e+00 1.769889e+00 1.501978e+00
vertex -3.895322e+00 1.544616e+00 1.594287e+00
endloop
endfacet
facet normal 0 0 0
outer loop
vertex -3.895322e+00 1.544616e+00 1.594287e+00
vertex -1.808989e+00 8.901687e-01 1.589784e+00
vertex -2.819205e+00 1.319006e+00 1.537556e+00
endloop
endfacet
facet normal 0 0 0
outer loop
vertex -2.819205e+00 1.319006e+00 1.537556e+00
vertex -3.895322e+00 1.776122e+00 1.482244e+00
vertex -3.895322e+00 1.544616e+00 1.594287e+00
endloop
endfacet
facet normal 0 0 0
outer loop
vertex -3.895322e+00 1.544616e+00 1.594287e+00
vertex -1.808989e+00 8.901687e-01 1.589784e+00
vertex -1.793457e+00 8.776367e-01 1.574707e+00
endloop
endfacet
facet normal 0 0 0
outer loop
vertex -1.793457e+00 8.776367e-01 1.574707e+00
vertex -2.819205e+00 1.319006e+00 1.537556e+00
vertex -3.895322e+00 1.544616e+00 1.594287e+00
endloop
endfacet
endsolid __tracked_surface.stl
