v 22503.5973 30649.1769 5.3574
v 22503.5973 30649.1769 5.4074
v 22503.9350 30657.7115 5.3565
v 22503.9350 30657.7115 5.4065
v 22504.2352 30556.8583 0.0005
v 22504.2353 30556.8585 14.6124
v 22504.3806 30561.4860 0.0005
v 22504.3807 30561.4861 14.3151
v 22504.4048 30561.4847 0.0005
v 22504.4049 30561.4848 14.3151
v 22504.4066 30561.5308 14.3137
v 22504.4081 30561.5700 14.3130
v 22504.4081 30561.5700 14.3215
v 22504.4287 30561.5689 14.3126
v 22504.4369 30561.5684 14.3131
v 22504.9448 30540.2309 0.0007
v 22504.9449 30540.2311 15.5244
v 22504.9467 30577.5638 0.0004
v 22504.9468 30577.5639 14.0273
v 22505.3910 30531.0261 0.0008
v 22505.3911 30531.0264 16.1800
v 22505.4113 30626.5456 0.0002
v 22505.4113 30626.5455 11.6299
v 22505.8409 30581.1422 0.0003
v 22505.8410 30581.1422 13.8723
v 22505.9921 30640.5523 92.0350
v 22505.9916 30640.5526 11.6300
v 22506.3038 30640.8290 88.4350
v 22506.3038 30640.8290 92.0350
v 22506.3454 30649.0954 0.0003
v 22506.3454 30649.0954 5.6788
v 22506.3454 30649.0954 5.7288
v 22506.6989 30657.6274 5.6798
v 22506.6989 30657.6274 5.7298
v 22506.9430 30523.4653 0.0009
v 22506.9431 30523.4656 16.7224
v 22507.3436 30584.0209 0.0003
v 22507.3437 30584.0210 13.7222
v 22507.4021 30674.5901 83.2602
v 22507.4021 30674.5900 88.4352
v 22507.4021 30674.5900 92.0352
v 22507.6883 30681.5135 0.0006
v 22507.6888 30681.5126 83.2603
v 22507.6896 30674.2827 88.4352
v 22507.6896 30674.2827 92.0352
v 22508.9827 30633.7798 11.6299
v 22508.9833 30633.7795 97.9500
v 22509.1833 30643.2619 88.4350
v 22509.1833 30643.2618 92.2150
v 22509.1945 30640.3046 11.6300
v 22509.1949 30640.3043 92.0350
v 22509.2047 30640.6044 88.4350
v 22509.2047 30640.6044 92.0350
v 22509.2872 30643.1476 88.4350
v 22509.2872 30643.1476 97.9500
v 22509.2883 30645.1381 88.4350
v 22509.2884 30645.1381 92.2150
v 22509.8089 30626.5552 0.0002
v 22509.8090 30626.5552 11.6299
v 22509.8497 30586.8700 0.0003
v 22509.8497 30586.8701 13.2781
v 22509.9425 30646.1281 88.4350
v 22509.9425 30646.1281 92.1450
v 22510.1562 30632.5634 11.6299
v 22510.1561 30632.5635 0.0002
v 22510.3243 30659.6045 88.4351
v 22510.3243 30659.6045 91.5351
v 22510.4608 30658.2558 88.4351
v 22510.4608 30658.2558 92.1451
v 22510.5181 30659.5969 88.4351
v 22510.5231 30516.0728 0.0010
v 22510.5232 30516.0731 17.4846
v 22510.6036 30666.7894 88.4351
v 22510.6037 30666.7894 91.5351
v 22510.8251 30666.7808 88.4351
v 22511.1420 30674.1956 88.4352
v 22512.2689 30561.1359 0.0004
v 22512.2689 30561.1360 14.3131
v 22512.2827 30561.1351 0.0004
v 22512.2827 30561.1353 14.3216
v 22512.4232 30564.4565 0.0004
v 22512.4233 30564.4566 12.7551
v 22512.5719 30576.3169 13.8799
v 22512.5719 30576.3169 14.0500
v 22512.5785 30576.2879 13.8804
v 22512.6843 30575.8243 13.8860
v 22512.8434 30559.8756 0.0004
v 22512.8435 30559.8757 14.3213
v 22512.8628 30573.9114 12.7550
v 22512.8628 30573.9114 14.0273
v 22512.8713 30564.1684 0.0004
v 22512.8714 30564.1685 12.7551
v 22512.8879 30574.9324 12.7550
v 22512.8879 30574.9324 13.9597
v 22513.1558 30573.7586 12.7550
v 22513.1558 30573.7586 14.0500
v 22513.1559 30578.8751 13.8071
v 22513.1559 30578.8751 14.0500
v 22513.1806 30643.0216 88.4350
v 22513.1806 30643.0216 92.2150
v 22513.1878 30578.9151 13.8055
v 22513.2693 30579.0173 13.7997
v 22513.3218 30588.8054 0.0002
v 22513.3219 30588.8055 13.2252
v 22513.6890 30638.3460 97.9499
v 22513.6890 30638.3460 98.8849
v 22513.7775 30640.5655 97.9499
v 22513.7775 30640.5655 98.8849
v 22514.1363 30559.4918 0.0004
v 22514.1364 30559.4920 14.2075
v 22514.3074 30580.3190 13.2914
v 22514.7918 30571.7070 12.7550
v 22514.7918 30571.7070 14.0500
v 22514.7920 30580.9266 13.2731
v 22514.7920 30580.9266 14.0500
v 22514.9902 30671.6251 88.4352
v 22514.9902 30671.6251 92.1652
v 22515.0902 30674.0960 88.4352
v 22515.0902 30674.0959 92.0352
v 22515.0958 30509.9982 0.0011
v 22515.0959 30509.9986 18.8407
v 22515.1023 30674.3958 83.2602
v 22515.1023 30674.3957 92.0352
v 22515.2899 30671.6130 91.6652
v 22515.2899 30671.6130 92.1652
v 22515.3781 30681.2087 83.2602
v 22515.3776 30681.2096 0.0005
v 22515.3950 30681.6395 0.0005
v 22515.3955 30681.6385 92.1653
v 22515.5278 30677.4893 91.6652
v 22515.5332 30581.2835 13.2373
v 22515.6661 30632.1912 0.0002
v 22515.6666 30632.1909 97.9499
v 22515.6678 30632.2449 0.0002
v 22515.6679 30632.2449 11.6299
v 22515.6831 30681.3266 91.6653
v 22515.6831 30681.3266 92.1653
v 22515.7027 30581.3652 13.2244
v 22515.7101 30633.5619 11.6299
v 22515.7106 30633.5616 97.9499
v 22515.8168 30581.4201 13.2114
v 22516.5459 30563.0897 0.0004
v 22516.5459 30563.0898 12.7551
v 22516.7211 30635.5254 97.9499
v 22516.7211 30635.5254 99.3149
v 22516.7927 30637.5270 97.9499
v 22516.7927 30637.5270 99.3149
v 22517.1482 30641.6361 88.4349
v 22517.1482 30641.6360 97.9499
v 22517.1559 30570.5684 12.7550
v 22517.1560 30570.5684 14.0500
v 22517.1563 30582.0651 12.9611
v 22517.1563 30582.0651 14.0499
v 22517.1854 30642.7808 88.4349
v 22517.1855 30642.7808 92.2149
v 22517.1891 30642.8918 92.2149
v 22517.1891 30642.8918 97.9499
v 22517.3148 30637.5083 97.9499
v 22517.3148 30637.5083 98.8849
v 22517.3421 30638.2006 97.9499
v 22517.3421 30638.2006 98.8849
v 22517.6208 30590.2811 12.7549
v 22517.6348 30590.2884 0.0002
v 22517.6349 30590.2884 12.7533
v 22517.7906 30632.1223 0.0002
v 22517.7906 30632.1222 11.6299
v 22517.8642 30540.2863 0.0006
v 22517.8643 30540.2865 14.2374
v 22518.0468 30645.7815 88.4350
v 22518.0468 30645.7815 92.1450
v 22518.0753 30533.4236 0.0007
v 22518.0754 30533.4238 15.7115
v 22518.0892 30588.8121 12.7549
v 22518.2738 30582.0651 12.7549
v 22518.4290 30644.6977 90.4899
v 22518.4290 30644.6977 90.7899
v 22518.4851 30656.0236 88.4350
v 22518.5402 30657.3103 88.4350
v 22518.5658 30657.9093 88.4350
v 22518.5659 30657.9093 92.1450
v 22518.6168 30637.4617 97.9499
v 22518.6168 30637.4617 98.8849
v 22518.7330 30640.3682 97.9499
v 22518.7330 30640.3682 98.8849
v 22518.9301 30656.6054 90.4900
v 22518.9301 30656.6054 90.7900
v 22518.9874 30543.6017 0.0006
v 22518.9875 30543.6019 13.8805
v 22519.0537 30645.2719 88.4349
v 22519.0537 30645.2719 90.4899
v 22519.0750 30528.7310 0.0007
v 22519.0751 30528.7312 16.7790
v 22519.0872 30635.4407 97.9499
v 22519.0872 30635.4407 99.3149
v 22519.1590 30637.4423 97.9499
v 22519.1590 30637.4423 99.3149
v 22519.4270 30560.6508 0.0004
v 22519.4271 30560.6509 13.2941
v 22519.4527 30634.9555 97.9499
v 22519.4527 30634.9555 99.3199
v 22519.5043 30655.9807 88.4350
v 22519.5044 30655.9807 90.4900
v 22519.5365 30637.3357 97.9499
v 22519.5365 30637.3357 99.3199
v 22519.7800 30570.5683 12.7550
v 22519.7800 30570.5683 14.0500
v 22519.7803 30582.0650 12.7549
v 22519.7803 30582.0650 14.0499
v 22519.8348 30625.0830 22.8399
v 22519.8349 30625.0829 29.2999
v 22519.9871 30632.0509 22.8399
v 22519.9871 30632.0509 29.2999
v 22520.3741 30563.0898 0.0004
v 22520.3742 30563.0899 12.7550
v 22520.5720 30546.8472 0.0005
v 22520.5721 30546.8474 13.7404
v 22521.3384 30632.0069 97.9499
v 22521.3429 30525.4837 0.0008
v 22521.3430 30525.4840 17.4897
v 22521.3877 30676.8479 93.1052
v 22521.3877 30676.8479 93.1952
v 22521.4391 30634.8863 97.9499
v 22521.4391 30634.8863 99.3199
v 22521.4460 30592.2750 0.0002
v 22521.4461 30592.2750 12.6976
v 22521.4482 30592.2761 12.6976
v 22521.4482 30592.2761 12.7549
v 22521.4588 30635.4493 97.9499
v 22521.4588 30635.4493 98.9149
v 22521.5047 30636.7609 97.9499
v 22521.5047 30636.7609 98.9149
v 22521.5089 30679.3819 93.1052
v 22521.5089 30679.3819 93.1952
v 22521.5224 30637.2662 97.9499
v 22521.5224 30637.2662 99.3199
v 22521.7645 30677.1903 91.6652
v 22521.7645 30677.1903 93.1052
v 22521.8512 30679.0051 91.6652
v 22521.8513 30679.0050 93.1052
v 22522.1442 30571.7068 12.7550
v 22522.1442 30571.7068 14.0500
v 22522.1445 30580.9264 12.7549
v 22522.1445 30580.9264 14.0499
v 22522.1693 30636.7241 97.9499
v 22522.1693 30636.7241 98.9149
v 22522.3646 30640.2136 97.9499
v 22522.3646 30640.2135 98.9149
v 22522.6870 30622.1725 22.8399
v 22522.6871 30622.1725 29.2999
v 22523.0131 30629.2441 22.8399
v 22523.0132 30629.2440 29.2999
v 22523.5700 30627.3564 91.8699
v 22523.5696 30627.3566 0.0001
v 22523.5928 30550.0147 0.0005
v 22523.5928 30550.0148 13.7433
v 22523.6131 30629.2196 22.8399
v 22523.6131 30629.2196 29.2999
v 22523.6726 30631.7823 0.0001
v 22523.6727 30631.7823 11.6299
v 22523.6761 30631.9313 11.6299
v 22523.6762 30631.9312 22.8399
v 22523.6762 30631.9312 29.2999
v 22523.6764 30631.9310 91.8699
v 22523.7804 30573.7583 12.7550
v 22523.7804 30573.7583 14.0500
v 22523.7805 30578.8748 12.7549
v 22523.7805 30578.8748 14.0499
v 22524.0485 30564.1687 0.0003
v 22524.0486 30564.1688 12.7550
v 22524.0612 30636.6176 97.9499
v 22524.0612 30636.6176 98.9149
v 22524.1616 30594.9130 0.0001
v 22524.1616 30594.9130 12.6020
v 22524.2558 30640.1075 97.9499
v 22524.2559 30640.1075 98.9149
v 22524.2815 30677.0696 91.6652
v 22524.2815 30677.0696 93.1052
v 22524.3630 30635.2869 97.9499
v 22524.3630 30635.2869 98.9149
v 22524.3643 30576.3165 12.7549
v 22524.3643 30576.3165 14.0499
v 22524.3680 30678.8844 91.6652
v 22524.3680 30678.8844 93.1052
v 22524.4165 30657.0757 88.4350
v 22524.4165 30657.0757 91.6250
v 22524.4205 30636.5977 97.9499
v 22524.4205 30636.5977 98.9149
v 22524.4634 30658.2525 88.4350
v 22524.4634 30658.2525 91.6250
v 22524.5665 30628.4205 91.8699
v 22524.5665 30628.4205 92.0349
v 22524.6240 30676.6928 93.1052
v 22524.6240 30676.6927 93.1952
v 22524.6539 30631.8993 91.8699
v 22524.6539 30631.8993 92.0349
v 22524.7447 30679.2267 93.1052
v 22524.7447 30679.2267 93.1952
v 22524.8738 30628.7086 91.8699
v 22524.8738 30628.7086 92.0349
v 22524.9537 30631.8896 91.8699
v 22524.9537 30631.8896 92.0349
v 22525.1951 30627.3185 91.8699
v 22525.1948 30627.3187 0.0001
v 22525.2199 30628.3949 0.0001
v 22525.2202 30628.3946 91.8699
v 22525.2272 30628.6946 88.4349
v 22525.2272 30628.6946 91.8699
v 22525.3013 30631.8783 88.4349
v 22525.3013 30631.8783 91.8699
v 22525.6688 30631.8664 88.4349
v 22525.6688 30631.8664 97.9499
v 22525.7843 30625.4205 0.0001
v 22525.7843 30625.4205 11.5902
v 22525.9293 30628.3668 0.0001
v 22525.9294 30628.3668 11.5905
v 22525.9760 30641.3493 88.4349
v 22525.9760 30641.3492 97.9499
v 22526.0375 30623.0303 0.0001
v 22526.0376 30623.0303 11.5900
v 22526.0596 30597.6088 0.0001
v 22526.0597 30597.6088 12.6585
v 22526.0948 30520.7163 0.0008
v 22526.0948 30520.7166 18.5291
v 22526.5002 30656.9925 88.4350
v 22526.5002 30656.9925 91.6250
v 22526.5283 30552.0007 0.0004
v 22526.5283 30552.0008 13.3073
v 22526.5472 30658.1694 91.6250
v 22526.5472 30658.1695 88.4350
v 22526.6304 30658.9702 88.4350
v 22526.6304 30658.9702 91.5350
v 22526.8280 30620.7807 0.0001
v 22526.8280 30620.7807 11.5898
v 22526.9099 30666.1551 88.4351
v 22526.9100 30666.1551 91.5351
v 22527.0828 30642.1859 88.4349
v 22527.0828 30642.1859 92.2149
v 22527.2248 30600.7037 0.0001
v 22527.2248 30600.7038 12.6348
v 22527.2700 30566.2386 0.0003
v 22527.2700 30566.2387 12.7550
v 22527.7945 30605.6192 0.0001
v 22527.7945 30605.6192 12.3913
v 22527.8741 30644.0034 88.4349
v 22527.8741 30644.0034 92.2149
v 22528.0394 30616.2855 0.0001
v 22528.0395 30616.2855 11.5893
v 22528.3220 30671.0865 91.6651
v 22528.3219 30671.0865 92.1651
v 22528.6217 30671.0744 88.4351
v 22528.6217 30671.0744 92.1651
v 22528.6281 30678.6801 91.6652
v 22528.7136 30680.7990 91.6652
v 22528.7136 30680.7990 92.1652
v 22528.7649 30674.6272 88.4351
v 22528.7649 30674.6272 92.0351
v 22528.7770 30674.9270 92.0351
v 22528.7768 30674.9278 8.0751
v 22528.8802 30677.4923 0.0004
v 22528.8802 30677.4922 8.0752
v 22529.0254 30681.0866 92.1652
v 22529.0251 30681.0876 0.0004
v 22529.0816 30562.1289 0.0003
v 22529.0816 30562.1290 13.1973
v 22529.0831 30562.1199 0.0003
v 22529.0831 30562.1200 13.1938
v 22529.7381 30639.3794 88.4349
v 22529.7381 30639.3794 92.2149
v 22529.7776 30569.1324 0.0002
v 22529.7777 30569.1325 12.7550
v 22530.4799 30553.6479 13.0591
v 22530.4809 30553.6415 13.0591
v 22530.4823 30553.6328 0.0004
v 22530.4824 30553.6330 13.0594
v 22530.4830 30553.6286 0.0004
v 22530.4831 30553.6287 13.0733
v 22530.5743 30641.0741 88.4349
v 22530.5743 30641.0741 92.2149
v 22531.3674 30572.6153 0.0002
v 22531.3674 30572.6154 12.7549
v 22531.9128 30576.4051 0.0002
v 22531.9128 30576.4052 12.7549
v 22532.1236 30644.7220 88.4349
v 22532.1236 30644.7220 90.4899
v 22532.4798 30562.7402 0.0003
v 22532.4799 30562.7402 11.4200
v 22532.5741 30655.4307 88.4350
v 22532.5741 30655.4307 90.4900
v 22532.6978 30644.0973 90.4899
v 22532.6978 30644.0973 90.7899
v 22532.8273 30585.4638 0.0001
v 22532.8274 30585.4638 12.7549
v 22533.1988 30656.0049 90.4900
v 22533.1988 30656.0049 90.7900
v 22533.4770 30587.5761 0.0001
v 22533.4770 30587.5762 11.4199
v 22533.5380 30569.4810 11.4200
v 22533.5380 30569.4810 16.5900
v 22533.8373 30570.9427 16.5899
v 22533.8373 30570.9428 25.4449
v 22534.1632 30565.9181 11.4200
v 22534.1632 30565.9181 12.8400
v 22534.2684 30590.6161 12.6946
v 22534.2986 30589.2495 11.4199
v 22534.2986 30589.2495 16.5898
v 22534.2997 30569.4517 11.4200
v 22534.2997 30569.4517 12.8400
v 22534.3199 30590.6095 12.6952
v 22534.3359 30590.6074 12.6952
v 22534.3440 30590.6063 12.6948
v 22534.3569 30590.6046 0.0001
v 22534.3569 30590.6047 12.6943
v 22534.3782 30590.5068 0.0001
v 22534.3782 30590.5068 11.4198
v 22534.4063 30590.5982 0.0001
v 22534.4064 30590.5983 12.7548
v 22534.5052 30588.2903 16.5899
v 22534.5052 30588.2903 25.4449
v 22535.0763 30631.1125 88.4348
v 22535.0763 30631.1125 89.6398
v 22535.2190 30637.2592 88.4349
v 22535.2190 30637.2592 89.6399
v 22535.2611 30616.2568 0.0001
v 22535.2611 30616.2568 11.5892
v 22535.4867 30658.2925 88.4350
v 22535.4867 30658.2925 92.6500
v 22535.5223 30659.1453 92.6500
v 22535.5425 30622.6234 0.0001
v 22535.5425 30622.6234 11.5898
v 22535.5761 30635.4654 89.6399
v 22535.5761 30635.4654 92.2148
v 22535.5816 30660.5633 92.6500
v 22535.6452 30662.0881 88.4350
v 22535.6452 30662.0881 92.6500
v 22535.6518 30637.2491 88.4349
v 22535.6518 30637.2491 89.6399
v 22535.6572 30623.5665 0.0001
v 22535.6572 30623.5665 11.5899
v 22535.7315 30639.1275 88.4349
v 22535.7315 30639.1275 92.2149
v 22535.8187 30660.1526 92.6500
v 22535.8187 30660.1526 94.8500
v 22536.0189 30667.9418 88.4351
v 22536.0189 30667.9418 92.7401
v 22536.0455 30668.5786 92.7401
v 22536.1013 30669.9124 92.7401
v 22536.1380 30624.6675 0.0001
v 22536.1380 30624.6675 11.5899
v 22536.1775 30671.7371 88.4351
v 22536.1775 30671.7370 92.7401
v 22536.1972 30667.9344 88.4351
v 22536.2063 30669.7305 92.7401
v 22536.2063 30669.7305 94.7751
v 22536.3770 30659.1854 94.8500
v 22536.3770 30659.1855 92.6500
v 22536.3771 30661.1197 92.6500
v 22536.3771 30661.1197 94.8500
v 22536.7173 30565.2752 11.4200
v 22536.7173 30565.2752 14.2900
v 22536.7382 30565.8182 11.4200
v 22536.7382 30565.8182 12.8400
v 22536.7648 30668.7632 92.7401
v 22536.7648 30668.7632 94.7751
v 22536.7648 30670.6978 92.7401
v 22536.7648 30670.6978 94.7751
v 22536.8744 30569.3525 12.8399
v 22536.8744 30569.3526 14.2899
v 22536.9296 30635.4085 89.6398
v 22536.9296 30635.4085 92.2148
v 22537.0064 30637.2174 88.4348
v 22537.0064 30637.2174 89.6399
v 22537.0850 30639.0706 88.4349
v 22537.0850 30639.0706 92.2149
v 22537.4937 30659.1854 92.6500
v 22537.4937 30659.1854 94.8500
v 22537.4938 30661.1196 92.6500
v 22537.4938 30661.1196 94.8500
v 22537.7582 30631.0504 88.4348
v 22537.7582 30631.0504 89.6398
v 22537.8817 30668.7631 92.7401
v 22537.8817 30668.7631 94.7751
v 22537.8818 30670.6978 92.7401
v 22537.8818 30670.6978 94.7751
v 22537.9015 30637.1965 88.4349
v 22537.9015 30637.1965 89.6398
v 22538.0521 30660.1525 92.6500
v 22538.0521 30660.1525 94.8500
v 22538.0705 30660.1124 92.6500
v 22538.0705 30660.1124 94.8500
v 22538.1167 30563.7696 11.4200
v 22538.1167 30563.7696 12.3710
v 22538.1507 30627.8836 0.0001
v 22538.1507 30627.8836 11.5902
v 22538.4402 30669.7304 92.7401
v 22538.4402 30669.7304 94.7751
v 22538.4586 30669.6907 92.7401
v 22538.4586 30669.6906 94.7701
v 22538.6289 30659.1452 92.6500
v 22538.6289 30659.1452 94.8500
v 22538.6290 30661.0796 92.6500
v 22538.6290 30661.0796 94.8500
v 22538.9334 30670.5131 92.7401
v 22539.0170 30668.7233 92.7401
v 22539.0170 30668.7233 94.7701
v 22539.0171 30670.6579 92.7401
v 22539.0171 30670.6579 94.7701
v 22539.6696 30661.9197 88.4350
v 22539.7457 30659.1452 92.6500
v 22539.7457 30659.1451 94.8500
v 22539.7458 30661.0795 92.6500
v 22539.7458 30661.0795 94.8500
v 22540.0399 30631.0554 88.4348
v 22540.0399 30631.0554 89.5998
v 22540.1340 30668.7233 92.7401
v 22540.1340 30668.7233 94.7701
v 22540.1340 30670.6579 92.7401
v 22540.1340 30670.6579 94.7701
v 22540.1501 30674.3397 88.4351
v 22540.2177 30670.5130 92.7401
v 22540.2759 30659.9677 92.6500
v 22540.2759 30659.9677 94.8450
v 22540.3041 30660.1123 92.6500
v 22540.3041 30660.1123 94.8500
v 22540.3318 30660.0645 92.6500
v 22540.3796 30637.0807 88.4348
v 22540.3796 30637.0807 89.5998
v 22540.5301 30635.4212 89.5998
v 22540.5301 30635.4212 92.2148
v 22540.6002 30637.0683 88.4348
v 22540.6002 30637.0683 89.5998
v 22540.6645 30669.5457 92.7401
v 22540.6645 30669.5457 94.7701
v 22540.6789 30638.9195 88.4349
v 22540.6789 30638.9195 92.2149
v 22540.6925 30669.6906 92.7401
v 22540.6925 30669.6906 94.7701
v 22540.7508 30659.1451 92.6500
v 22540.8343 30659.0004 92.6500
v 22540.8343 30659.0004 94.8450
v 22540.8344 30660.9350 92.6500
v 22540.8344 30660.9350 94.8450
v 22541.2230 30668.5784 92.7400
v 22541.2230 30668.5784 94.7700
v 22541.2230 30670.5130 92.7401
v 22541.2230 30670.5130 94.7701
v 22541.7879 30671.5027 88.4351
v 22541.8989 30635.3636 89.5998
v 22541.8989 30635.3636 92.2148
v 22541.9513 30659.0004 92.6500
v 22541.9513 30659.0003 94.8450
v 22541.9513 30660.9350 92.6500
v 22541.9513 30660.9349 94.8450
v 22541.9681 30636.9912 88.4348
v 22541.9681 30636.9912 89.5998
v 22542.0476 30638.8618 88.4349
v 22542.0476 30638.8618 92.2149
v 22542.3399 30668.5784 92.7400
v 22542.3399 30668.5784 94.7701
v 22542.3399 30670.5130 92.7401
v 22542.3399 30670.5130 94.7701
v 22542.5098 30659.9676 92.6500
v 22542.5098 30659.9676 94.8450
v 22542.5392 30659.9502 92.6500
v 22542.5392 30659.9502 94.8400
v 22542.7197 30630.9039 88.4348
v 22542.7197 30630.9039 89.5998
v 22542.8984 30669.5457 92.7401
v 22542.8984 30669.5457 94.7701
v 22542.9280 30669.5279 92.7401
v 22542.9280 30669.5279 94.7651
v 22543.0601 30636.9296 88.4348
v 22543.0601 30636.9296 89.5998
v 22543.0963 30658.9852 92.6500
v 22543.0963 30658.9852 94.8400
v 22543.0964 30660.9152 92.6500
v 22543.0964 30660.9151 94.8400
v 22543.4851 30668.5628 92.7400
v 22543.4851 30668.5628 94.7650
v 22543.4852 30670.4930 92.7401
v 22543.4852 30670.4930 94.7651
v 22543.5107 30632.1781 88.4348
v 22543.5107 30632.1781 89.2198
v 22543.5831 30634.6257 88.4348
v 22543.5831 30634.6257 89.2198
v 22543.6187 30565.0096 11.4200
v 22543.6187 30565.0096 14.2900
v 22543.6394 30635.0643 88.4348
v 22543.6394 30635.0643 89.2198
v 22543.7117 30637.5120 88.4348
v 22543.7117 30637.5120 89.2198
v 22543.7496 30638.7903 88.4348
v 22543.7758 30569.0868 14.2899
v 22543.7758 30569.0869 16.5899
v 22543.8325 30570.5579 11.4199
v 22543.8325 30570.5579 16.5899
v 22544.2106 30658.9852 92.6500
v 22544.2106 30658.9852 94.8400
v 22544.2106 30660.9151 92.6500
v 22544.2106 30660.9151 94.8400
v 22544.5995 30668.5628 92.7400
v 22544.5995 30668.5628 94.7650
v 22544.5996 30670.4930 92.7401
v 22544.5996 30670.4930 94.7651
v 22544.7106 30657.9065 92.6500
v 22544.7106 30657.9066 88.4350
v 22544.7117 30564.9963 11.4200
v 22544.7117 30564.9963 11.9370
v 22544.7557 30658.9852 92.6500
v 22544.7677 30659.9501 92.6500
v 22544.7677 30659.9501 94.8400
v 22544.7942 30659.9044 92.6500
v 22544.8693 30661.7022 88.4350
v 22544.8693 30661.7022 92.6500
v 22544.8719 30630.1470 88.4348
v 22544.8719 30630.1470 89.6848
v 22544.9699 30632.1350 88.4348
v 22544.9699 30632.1350 89.2198
v 22544.9838 30632.1346 88.4348
v 22545.0024 30667.5667 88.4350
v 22545.0024 30667.5667 92.7400
v 22545.0422 30634.5826 88.4348
v 22545.0422 30634.5826 89.2198
v 22545.0785 30669.3924 88.4351
v 22545.0785 30669.3923 92.7401
v 22545.0890 30669.6452 88.4351
v 22545.0890 30669.6452 92.7401
v 22545.0898 30565.7936 11.4200
v 22545.0898 30565.7936 11.5859
v 22545.0984 30635.0213 88.4348
v 22545.0984 30635.0213 89.2198
v 22545.1567 30669.5279 88.4351
v 22545.1567 30669.5279 94.7651
v 22545.1598 30567.6402 11.4200
v 22545.1606 30671.3619 88.4351
v 22545.1606 30671.3618 92.7401
v 22545.1708 30637.4689 88.4348
v 22545.1708 30637.4689 89.2198
v 22545.2516 30636.8940 88.4348
v 22545.2516 30636.8940 89.6848
v 22545.6178 30635.0867 89.6848
v 22545.6178 30635.0867 92.2148
v 22545.6930 30636.8690 88.4348
v 22545.6930 30636.8690 89.6848
v 22545.7705 30638.7054 88.4348
v 22545.7705 30638.7054 92.2148
v 22545.9577 30567.2460 11.4200
v 22546.4977 30648.3259 88.4349
v 22546.4977 30648.3259 92.5949
v 22546.5102 30650.0707 88.4349
v 22546.5102 30650.0706 94.9499
v 22546.5684 30649.9698 88.4349
v 22546.5684 30649.9698 92.5949
v 22546.5778 30650.1878 88.4349
v 22546.5778 30650.1877 92.5949
v 22546.6558 30651.9985 88.4349
v 22546.6558 30651.9985 92.5949
v 22546.7645 30657.9313 88.4350
v 22546.7645 30657.9312 92.6500
v 22546.8625 30635.0344 89.6848
v 22546.8625 30635.0344 92.2148
v 22546.8813 30660.7265 92.6500
v 22546.8879 30659.7592 92.6500
v 22546.8879 30659.7592 95.0550
v 22546.9231 30661.7262 88.4350
v 22546.9231 30661.7261 92.6500
v 22546.9376 30636.7985 88.4348
v 22546.9376 30636.7985 89.6848
v 22547.0165 30638.6527 88.4348
v 22547.0165 30638.6527 92.2149
v 22547.0687 30649.1033 92.5949
v 22547.0687 30649.1033 94.9499
v 22547.0687 30651.0380 92.5949
v 22547.0687 30651.0380 94.9499
v 22547.1143 30667.4931 88.4350
v 22547.1143 30667.4931 92.6500
v 22547.2729 30671.2888 88.4351
v 22547.2729 30671.2888 92.6501
v 22547.3784 30669.3036 92.6500
v 22547.3784 30669.3036 94.9301
v 22547.4463 30658.7919 92.6500
v 22547.4463 30658.7919 95.0550
v 22547.4464 30660.7265 92.6500
v 22547.4464 30660.7265 95.0550
v 22547.5536 30629.9957 88.4348
v 22547.5536 30629.9957 89.6848
v 22547.9327 30636.7421 88.4348
v 22547.9327 30636.7421 89.6848
v 22547.9368 30668.3362 92.6500
v 22547.9368 30668.3362 94.9300
v 22547.9369 30670.2709 92.6501
v 22547.9369 30670.2709 94.9301
v 22548.1388 30638.6049 88.4349
v 22548.1388 30638.6049 92.2149
v 22548.1857 30649.1033 92.5949
v 22548.1857 30649.1033 94.9499
v 22548.1857 30651.0379 92.5949
v 22548.1857 30651.0379 94.9499
v 22548.2134 30640.2902 88.4349
v 22548.2134 30640.2901 92.2149
v 22548.4559 30667.4371 92.6500
v 22548.5632 30658.7919 92.6500
v 22548.5632 30658.7919 95.0550
v 22548.5633 30660.7265 92.6500
v 22548.5633 30660.7265 95.0550
v 22548.7419 30650.0665 92.5949
v 22548.7442 30650.0706 92.5949
v 22548.7442 30650.0706 94.9499
v 22548.7622 30650.0313 92.5949
v 22548.7622 30650.0313 94.9499
v 22549.0538 30668.3362 92.6500
v 22549.0538 30668.3362 94.9300
v 22549.0539 30670.2709 92.6501
v 22549.0539 30670.2709 94.9301
v 22549.0622 30667.4119 88.4350
v 22549.0769 30670.2310 92.6501
v 22549.1217 30659.7592 92.6500
v 22549.1217 30659.7591 95.0550
v 22549.1396 30659.7194 92.6500
v 22549.1396 30659.7194 95.0600
v 22549.1421 30659.7238 92.6500
v 22549.1844 30557.3949 0.0003
v 22549.1844 30557.3950 12.0367
v 22549.2936 30567.3364 11.4200
v 22549.2936 30567.3364 11.7705
v 22549.3207 30649.0640 92.5949
v 22549.3207 30649.0640 94.9499
v 22549.3207 30650.9986 92.5949
v 22549.3207 30650.9986 94.9499
v 22549.3602 30569.3248 11.4199
v 22549.6124 30669.3035 92.6501
v 22549.6124 30669.3035 94.9301
v 22549.6311 30669.2638 92.6501
v 22549.6311 30669.2638 94.9301
v 22549.6981 30658.7521 92.6500
v 22549.6981 30658.7520 95.0600
v 22549.6981 30660.6868 92.6500
v 22549.6981 30660.6868 95.0600
v 22549.7799 30651.8644 88.4349
v 22549.8295 30648.1826 92.5949
v 22550.1895 30668.2966 92.6500
v 22550.1895 30668.2966 94.9300
v 22550.1896 30670.2310 92.6501
v 22550.1896 30670.2310 94.9301
v 22550.4376 30649.0639 92.5949
v 22550.4376 30649.0639 94.9499
v 22550.4377 30650.9985 92.5949
v 22550.4377 30650.9985 94.9499
v 22550.4935 30568.5131 11.8087
v 22550.4935 30568.5131 11.8199
v 22550.4972 30568.5289 11.4199
v 22550.4972 30568.5289 11.8090
v 22550.5032 30568.5233 11.4199
v 22550.5032 30568.5233 11.8090
v 22550.5353 30587.6731 11.4198
v 22550.5353 30587.6731 16.5898
v 22550.5719 30588.6225 11.4198
v 22550.5719 30588.6226 16.5898
v 22550.8151 30658.7520 92.6500
v 22550.8151 30658.7520 95.0600
v 22550.8151 30660.6868 92.6500
v 22550.8151 30660.6867 95.0600
v 22550.9677 30649.8870 92.5949
v 22550.9677 30649.8869 94.9499
v 22550.9961 30650.0312 92.5949
v 22550.9961 30650.0312 94.9499
v 22551.0322 30558.3095 0.0003
v 22551.0322 30558.3096 12.0564
v 22551.3063 30668.2966 92.6500
v 22551.3063 30668.2966 94.9300
v 22551.3064 30670.2310 92.6501
v 22551.3064 30670.2310 94.9301
v 22551.3455 30659.5747 92.6500
v 22551.3455 30659.5747 95.0550
v 22551.3736 30659.7194 92.6500
v 22551.3736 30659.7194 95.0600
v 22551.4013 30659.6713 92.6500
v 22551.4345 30587.6385 11.4198
v 22551.4345 30587.6385 18.9448
v 22551.4521 30588.9734 11.4198
v 22551.4521 30588.9734 18.9448
v 22551.5263 30648.9194 92.5949
v 22551.5263 30648.9194 94.9499
v 22551.5263 30650.8545 92.5949
v 22551.5263 30650.8545 94.9499
v 22551.5926 30567.5153 11.8129
v 22551.7326 30567.3676 11.8132
v 22551.8361 30570.2498 11.4199
v 22551.8361 30570.2498 25.4449
v 22551.8364 30669.1193 92.6501
v 22551.8364 30669.1193 94.9250
v 22551.8647 30669.2638 92.6501
v 22551.8647 30669.2638 94.9301
v 22551.9039 30658.6074 92.6500
v 22551.9039 30658.6074 95.0550
v 22551.9039 30660.5419 92.6500
v 22551.9039 30660.5419 95.0550
v 22552.0155 30658.6074 92.6500
v 22552.1518 30570.2376 11.4199
v 22552.1632 30575.1823 11.4199
v 22552.1632 30575.1823 16.5549
v 22552.3948 30668.1520 92.6500
v 22552.3948 30668.1520 94.9250
v 22552.3949 30670.0865 92.6501
v 22552.3949 30670.0865 94.9251
v 22552.4786 30661.4942 88.4350
v 22552.5033 30587.5973 11.4198
v 22552.5033 30587.5974 18.9448
v 22552.5033 30587.5974 25.4448
v 22552.5064 30587.5972 11.4198
v 22552.5455 30657.6894 92.6500
v 22552.6214 30587.5815 11.4198
v 22552.6214 30587.5815 16.5548
v 22552.6435 30648.9194 92.5949
v 22552.6435 30648.9194 94.9499
v 22552.6435 30650.8545 92.5949
v 22552.6435 30650.8544 94.9499
v 22552.6727 30650.8039 92.5949
v 22552.8304 30559.5727 0.0003
v 22552.8304 30559.5728 11.8493
v 22552.9150 30667.2511 92.6500
v 22552.9474 30629.5812 88.4348
v 22552.9474 30629.5812 89.6048
v 22553.0207 30658.6074 92.6500
v 22553.0207 30658.6074 95.0550
v 22553.0208 30660.5418 92.6500
v 22553.0208 30660.5418 95.0550
v 22553.1291 30657.6650 88.4350
v 22553.2008 30649.8846 92.5949
v 22553.2021 30649.8869 92.5949
v 22553.2021 30649.8869 94.9499
v 22553.2286 30649.8365 92.5949
v 22553.2286 30649.8365 94.9499
v 22553.3404 30636.5411 88.4348
v 22553.3404 30636.5411 89.6048
v 22553.4698 30587.5845 11.4198
v 22553.4698 30587.5845 18.9448
v 22553.4878 30588.9464 11.4198
v 22553.4878 30588.9464 18.9448
v 22553.5117 30668.1520 92.6500
v 22553.5117 30668.1520 94.9250
v 22553.5118 30670.0865 92.6501
v 22553.5118 30670.0865 94.9251
v 22553.5792 30659.5746 92.6500
v 22553.5792 30659.5746 95.0550
v 22553.6053 30659.5425 92.6500
v 22553.6053 30659.5425 95.0550
v 22553.7871 30648.8690 92.5949
v 22553.7871 30648.8690 94.9499
v 22553.7872 30650.8039 92.5949
v 22553.7872 30650.8039 94.9499
v 22554.0072 30572.1670 11.4199
v 22554.0259 30638.3463 88.4348
v 22554.0259 30638.3463 92.1848
v 22554.0702 30669.1192 92.6501
v 22554.0702 30669.1192 94.9251
v 22554.0738 30572.0988 11.4199
v 22554.0931 30640.1493 88.4349
v 22554.0931 30640.1493 92.1849
v 22554.0966 30669.0690 92.6501
v 22554.0966 30669.0689 94.9201
v 22554.1637 30658.5753 92.6500
v 22554.1637 30658.5753 95.0550
v 22554.1637 30660.5096 92.6500
v 22554.1637 30660.5096 95.0550
v 22554.3169 30634.5130 89.6048
v 22554.3169 30634.5130 92.1848
v 22554.4464 30636.4787 88.4348
v 22554.4464 30636.4787 89.6048
v 22554.5680 30638.3261 88.4348
v 22554.5680 30638.3261 92.1848
v 22554.6549 30668.1018 92.6500
v 22554.6549 30668.1018 94.9200
v 22554.6550 30670.0361 92.6501
v 22554.6550 30670.0360 94.9201
v 22554.9042 30648.8690 92.5949
v 22554.9042 30648.8690 94.9499
v 22554.9043 30650.8039 92.5949
v 22554.9043 30650.8039 94.9499
v 22555.2805 30658.5753 92.6500
v 22555.2805 30658.5753 95.0550
v 22555.2805 30660.5096 92.6500
v 22555.2805 30660.5096 95.0550
v 22555.3578 30634.4439 89.6048
v 22555.3578 30634.4439 92.1848
v 22555.4628 30649.8364 92.5949
v 22555.4628 30649.8364 94.9499
v 22555.4880 30636.4200 88.4348
v 22555.4880 30636.4200 89.6048
v 22555.4947 30647.9390 88.4349
v 22555.4947 30647.9390 92.5949
v 22555.5825 30638.2883 88.4349
v 22555.5825 30638.2883 92.1849
v 22555.5853 30650.0486 92.5949
v 22555.6111 30638.2864 88.4349
v 22555.6110 30638.2864 92.1849
v 22555.6178 30650.8039 92.5949
v 22555.6282 30629.4294 88.4348
v 22555.6282 30629.4294 89.6048
v 22555.6525 30651.6124 88.4349
v 22555.6525 30651.6123 92.5949
v 22555.7503 30657.5553 88.4350
v 22555.7503 30657.5553 92.6500
v 22555.7716 30668.1018 92.6500
v 22555.7716 30668.1018 94.9200
v 22555.7717 30670.0360 92.6501
v 22555.7717 30670.0360 94.9201
v 22555.8326 30659.5316 88.4350
v 22555.8326 30659.5316 92.6500
v 22555.8335 30659.5518 88.4350
v 22555.8335 30659.5518 92.6500
v 22555.8389 30659.5425 88.4350
v 22555.8389 30659.5424 95.0550
v 22555.9085 30661.3510 88.4350
v 22555.9085 30661.3510 92.6500
v 22556.0212 30636.3899 88.4348
v 22556.0212 30636.3899 89.6048
v 22556.2918 30667.1103 88.4350
v 22556.2918 30667.1102 92.6500
v 22556.3300 30669.0689 92.6501
v 22556.3300 30669.0689 94.9201
v 22556.3332 30668.1018 92.6500
v 22556.3654 30563.0990 11.7872
v 22556.3673 30563.0971 0.0002
v 22556.3673 30563.0972 11.7870
v 22556.3706 30668.9986 92.6501
v 22556.3766 30563.0885 0.0002
v 22556.3766 30563.0886 11.8303
v 22556.3777 30669.1677 88.4351
v 22556.4503 30670.9059 88.4351
v 22556.4503 30670.9059 92.6501
v 22556.8614 30575.0082 11.4199
v 22556.8614 30575.0083 16.5549
v 22557.6621 30575.7073 11.0182
v 22557.6621 30575.7073 11.4199
v 22557.6703 30575.8251 11.0112
v 22557.6703 30575.8251 11.4199
v 22557.9903 30630.2572 88.4348
v 22557.9903 30630.2572 89.7498
v 22558.0144 30657.3517 88.4350
v 22558.0144 30657.3517 92.6500
v 22558.0983 30659.2587 92.6500
v 22558.0983 30659.2587 95.0600
v 22558.1727 30661.1468 88.4350
v 22558.1727 30661.1468 92.6500
v 22558.3419 30636.4944 88.4348
v 22558.3419 30636.4944 89.7499
v 22558.4653 30587.3653 11.4199
v 22558.4655 30587.3678 11.4199
v 22558.4686 30667.0106 88.4350
v 22558.4686 30667.0106 92.6500
v 22558.4943 30587.3642 11.4020
v 22558.5465 30668.8769 92.6501
v 22558.5490 30588.4288 7.8661
v 22558.5490 30588.4288 11.4198
v 22558.5619 30668.8503 92.6501
v 22558.5619 30668.8503 94.9901
v 22558.5858 30669.8175 92.6501
v 22558.6092 30589.3952 7.8677
v 22558.6092 30589.3952 11.4198
v 22558.6270 30670.8057 88.4351
v 22558.6270 30670.8057 92.6501
v 22558.6567 30658.2915 92.6500
v 22558.6567 30658.2915 95.0600
v 22558.6568 30660.2259 92.6500
v 22558.6568 30660.2259 95.0600
v 22558.8922 30639.9705 88.4349
v 22558.9532 30577.1209 10.8673
v 22558.9532 30577.1210 16.5549
v 22558.9605 30577.3176 0.0001
v 22558.9605 30577.3177 10.8560
v 22559.1203 30667.8831 92.6500
v 22559.1203 30667.8831 94.9900
v 22559.1203 30669.8175 92.6501
v 22559.1203 30669.8175 94.9901
v 22559.3297 30587.3011 0.0001
v 22559.3297 30587.3011 10.8879
v 22559.3309 30587.3332 10.8883
v 22559.3309 30587.3333 16.5549
v 22559.3809 30634.3217 89.7498
v 22559.3809 30634.3217 92.1848
v 22559.5195 30636.4280 88.4349
v 22559.5195 30636.4280 89.7498
v 22559.6319 30638.1374 88.4349
v 22559.6319 30638.1374 92.1849
v 22559.7736 30658.2914 92.6500
v 22559.7736 30658.2914 95.0600
v 22559.7736 30660.2259 92.6500
v 22559.7736 30660.2258 95.0600
v 22560.2371 30667.8831 92.6501
v 22560.2371 30667.8831 94.9900
v 22560.2371 30669.8175 92.6501
v 22560.2371 30669.8175 94.9901
v 22560.3320 30659.2586 92.6500
v 22560.3320 30659.2586 95.0600
v 22560.3504 30659.2189 92.6500
v 22560.3504 30659.2189 95.0600
v 22560.3527 30659.2228 92.6500
v 22560.4215 30634.2524 89.7498
v 22560.4215 30634.2524 92.1848
v 22560.4726 30661.0508 88.4350
v 22560.5610 30636.3693 88.4349
v 22560.5610 30636.3693 89.7499
v 22560.6706 30630.1059 88.4348
v 22560.6706 30630.1059 89.7498
v 22560.6750 30638.0985 92.1849
v 22560.6750 30638.0986 88.4349
v 22560.7955 30668.8503 92.6501
v 22560.7955 30668.8503 94.9901
v 22560.8134 30668.8109 92.6501
v 22560.8134 30668.8109 94.9901
v 22560.8859 30658.2914 92.6500
v 22560.9088 30658.2518 92.6500
v 22560.9088 30658.2518 95.0600
v 22560.9088 30660.1860 92.6500
v 22560.9088 30660.1860 95.0600
v 22560.9133 30658.2518 92.6500
v 22561.0223 30636.3433 88.4349
v 22561.0223 30636.3433 89.7499
v 22561.3717 30667.8438 92.6501
v 22561.3717 30667.8438 94.9901
v 22561.3717 30669.7779 92.6501
v 22561.3717 30669.7779 94.9901
v 22561.5129 30657.2053 92.6500
v 22561.5175 30657.2051 92.6500
v 22561.5541 30587.1581 0.0001
v 22561.5541 30587.1582 9.5199
v 22561.6146 30588.1501 9.5199
v 22561.6798 30589.2543 9.5199
v 22561.8866 30670.6696 92.6501
v 22562.0256 30658.2517 92.6500
v 22562.0255 30658.2517 95.0600
v 22562.0256 30660.1860 92.6500
v 22562.0256 30660.1860 95.0600
v 22562.4883 30667.8438 92.6501
v 22562.4883 30667.8438 94.9901
v 22562.4884 30669.7779 92.6501
v 22562.4884 30669.7778 94.9901
v 22562.5561 30659.0742 92.6500
v 22562.5561 30659.0742 95.0600
v 22562.5599 30587.1210 0.0001
v 22562.5599 30587.1210 9.5199
v 22562.5840 30659.2189 92.6500
v 22562.5839 30659.2188 95.0600
v 22562.6854 30589.2082 0.0001
v 22562.6853 30589.2082 9.5199
v 22563.0026 30629.9790 88.4348
v 22563.0026 30629.9790 89.7598
v 22563.0188 30668.6666 92.6501
v 22563.0188 30668.6666 94.9901
v 22563.0467 30668.8108 92.6501
v 22563.0467 30668.8108 94.9901
v 22563.0744 30668.7628 92.6501
v 22563.1144 30658.1071 92.6500
v 22563.1144 30658.1071 95.0600
v 22563.1145 30660.0412 92.6500
v 22563.1144 30660.0412 95.0600
v 22563.2186 30636.3436 88.4349
v 22563.2186 30636.3436 89.7599
v 22563.5773 30667.6992 92.6501
v 22563.5773 30667.6992 94.9901
v 22563.5773 30669.6339 92.6501
v 22563.5773 30669.6339 94.9901
v 22564.2311 30658.1071 92.6500
v 22564.2311 30658.1070 95.0600
v 22564.2311 30660.0412 92.6500
v 22564.2311 30660.0412 95.0600
v 22564.2335 30676.2412 0.0003
v 22564.2335 30676.2411 5.6301
v 22564.4212 30634.3287 89.7599
v 22564.4212 30634.3287 92.1849
v 22564.5511 30636.2982 88.4349
v 22564.5511 30636.2982 89.7599
v 22564.6600 30637.9501 88.4349
v 22564.6600 30637.9501 92.1849
v 22564.6943 30667.6992 92.6501
v 22564.6943 30667.6992 94.9901
v 22564.6943 30669.6339 92.6501
v 22564.6943 30669.6339 94.9901
v 22564.7894 30659.0741 92.6500
v 22564.7894 30659.0741 95.0600
v 22564.8164 30659.0245 92.6500
v 22564.8163 30659.0245 95.0550
v 22564.8172 30659.0260 92.6500
v 22565.1156 30674.7094 5.6301
v 22565.1156 30674.7093 8.0751
v 22565.1526 30702.1463 0.0006
v 22565.1526 30702.1462 5.6305
v 22565.1692 30676.2080 5.6301
v 22565.1692 30676.2080 8.0751
v 22565.2518 30668.6648 92.6501
v 22565.2528 30668.6665 92.6501
v 22565.2528 30668.6665 94.9901
v 22565.2798 30668.6163 92.6501
v 22565.2798 30668.6163 94.9901
v 22565.3748 30658.0571 92.6500
v 22565.3748 30658.0571 95.0550
v 22565.3749 30659.9919 92.6500
v 22565.3749 30659.9918 95.0550
v 22565.4626 30634.2596 89.7599
v 22565.4626 30634.2596 92.1849
v 22565.5946 30636.2626 88.4349
v 22565.5946 30636.2626 89.7599
v 22565.6686 30629.8889 88.4348
v 22565.6686 30629.8889 89.7598
v 22565.7033 30637.9112 88.4349
v 22565.7033 30637.9112 92.1849
v 22565.8382 30667.6489 92.6501
v 22565.8382 30667.6489 94.9901
v 22565.8383 30669.5837 92.6501
v 22565.8383 30669.5837 94.9901
v 22565.8843 30636.2527 88.4349
v 22565.8843 30636.2527 89.7599
v 22566.4919 30658.0571 92.6500
v 22566.4918 30658.0571 95.0550
v 22566.4919 30659.9918 92.6500
v 22566.4919 30659.9918 95.0550
v 22566.9553 30667.6489 92.6501
v 22566.9553 30667.6489 94.9901
v 22566.9553 30669.5836 92.6501
v 22566.9553 30669.5836 94.9901
v 22566.9994 30656.9758 88.4350
v 22566.9993 30656.9758 92.6500
v 22567.0259 30657.6125 88.4350
v 22567.0504 30659.0245 92.6500
v 22567.0504 30659.0244 95.0550
v 22567.0873 30659.0883 92.6500
v 22567.1249 30659.9918 92.6500
v 22567.1573 30660.7717 88.4350
v 22567.1573 30660.7717 92.6500
v 22567.4529 30666.6348 88.4351
v 22567.4529 30666.6348 92.6501
v 22567.5138 30668.6163 92.6501
v 22567.5138 30668.6162 94.9901
v 22567.5344 30668.5805 92.6501
v 22567.6119 30670.4305 92.6501
v 22567.6120 30670.4306 88.4351
v 22568.4443 30677.6157 92.0352
v 22568.4445 30677.6166 5.6302
v 22568.9267 30674.5750 5.6301
v 22568.9267 30674.5750 8.0751
v 22569.0316 30673.9103 92.0351
v 22569.0319 30673.9111 8.0751
v 22569.0794 30673.6090 88.4351
v 22569.0794 30673.6090 92.0351
v 22569.3496 30671.9047 88.4351
v 22569.3495 30671.9047 92.0351
v 22569.9863 30677.8168 5.6302
v 22569.9862 30677.8166 25.0952
v 22570.6639 30701.9507 0.0006
v 22570.6639 30701.9506 5.6305
v 22570.9419 30711.8532 25.0956
v 22570.9420 30711.8536 0.0007
v 22571.0523 30589.8915 0.0001
v 22571.0523 30589.8915 9.4795
v 22571.8610 30590.7058 0.0001
v 22571.8610 30590.7058 9.6476
v 22572.3062 30591.5539 0.0001
v 22572.3061 30591.5539 9.7163
v 22572.3132 30672.2809 88.4351
v 22572.5034 30592.6569 0.0001
v 22572.5034 30592.6570 9.7167
v 22572.5894 30618.6307 0.0000
v 22572.5894 30618.6307 10.1543
v 22572.9447 30626.5081 0.0000
v 22572.9446 30626.5081 10.6500
v 22573.6940 30618.5807 0.0000
v 22573.6940 30618.5807 6.5731
v 22575.0932 30649.8889 88.4350
v 22575.0932 30649.8889 91.4950
v 22575.1447 30650.8525 88.4350
v 22575.2088 30652.0509 88.4350
v 22575.2088 30652.0508 91.4950
v 22575.2624 30654.8487 88.4350
v 22575.2624 30654.8487 91.5200
v 22575.3514 30714.2165 0.0008
v 22575.3514 30714.2164 5.4607
v 22575.4170 30712.8510 0.0008
v 22575.4169 30712.8510 5.4607
v 22575.4931 30669.0199 88.4351
v 22575.4931 30669.0199 92.0351
v 22575.5617 30661.0365 88.4350
v 22575.5617 30661.0364 91.5200
v 22575.6944 30672.7101 88.4351
v 22575.6944 30672.7100 92.0351
v 22576.3846 30649.8201 88.4350
v 22578.0205 30646.1252 94.4350
v 22578.0206 30646.1252 88.4350
v 22578.1393 30648.3591 88.4350
v 22578.1393 30648.3590 94.4350
v 22578.3480 30621.0848 10.3245
v 22578.3480 30621.0848 11.4549
v 22578.5673 30618.3601 6.5622
v 22578.5672 30618.3601 10.1540
v 22578.6895 30621.0727 6.2333
v 22578.6895 30621.0727 10.3247
v 22578.6960 30626.2807 10.6518
v 22578.6960 30626.2807 11.4549
v 22579.0970 30639.2176 88.4349
v 22579.0970 30639.2176 92.1849
v 22579.3403 30649.6626 88.4350
v 22579.3403 30649.6626 91.4950
v 22579.4209 30637.4001 88.4349
v 22579.4209 30637.4000 92.1849
v 22579.4552 30651.8253 88.4350
v 22579.4552 30651.8252 91.4950
v 22580.2535 30646.0060 88.4350
v 22580.2535 30646.0060 94.4350
v 22580.3721 30648.2405 88.4350
v 22580.3721 30648.2405 94.4350
v 22580.8709 30640.1936 88.4349
v 22580.8709 30640.1936 92.1849
v 22581.0685 30680.8014 92.0353
v 22581.0688 30680.8021 25.0953
v 22581.2693 30679.2812 92.0352
v 22581.2696 30679.2819 25.0952
v 22581.4698 30654.5492 88.4350
v 22581.4698 30654.5491 91.5200
v 22581.5711 30638.5831 88.4349
v 22581.5711 30638.5831 92.1849
v 22581.7685 30660.7364 88.4351
v 22581.7685 30660.7363 91.5201
v 22582.1857 30669.9057 88.4351
v 22582.1856 30669.9056 92.0352
v 22582.3253 30631.2475 88.4349
v 22582.3252 30631.2475 92.1349
v 22582.4329 30633.3084 88.4349
v 22582.4329 30633.3084 92.1349
v 22582.4898 30664.6481 88.4351
v 22582.4898 30664.6481 88.8851
v 22582.5122 30624.8879 11.4549
v 22582.5118 30624.8877 98.0099
v 22582.5226 30638.5901 92.1849
v 22582.5226 30638.5901 92.6799
v 22582.5593 30626.1280 11.4549
v 22582.5589 30626.1278 92.0349
v 22582.5703 30626.4276 88.4349
v 22582.5703 30626.4276 92.0349
v 22582.5925 30639.9878 88.4349
v 22582.5925 30639.9878 92.1849
v 22582.5961 30640.0595 88.4350
v 22582.5961 30640.0595 92.6800
v 22582.7107 30662.9393 88.4351
v 22582.7107 30662.9393 88.8851
v 22582.7525 30631.2251 88.4349
v 22582.7525 30631.2251 92.1349
v 22582.8090 30638.4352 88.4349
v 22582.8090 30638.4351 92.1849
v 22582.8257 30638.5750 88.4349
v 22582.8257 30638.5750 92.1849
v 22582.8309 30633.2877 88.4349
v 22582.8309 30633.2876 92.1349
v 22582.8747 30664.6979 88.4351
v 22582.8747 30664.6979 88.8851
v 22583.0314 30638.5648 88.4349
v 22583.0313 30638.5648 92.6799
v 22583.0334 30638.6194 92.6799
v 22583.0334 30638.6193 98.0100
v 22583.1006 30662.9897 88.4351
v 22583.1006 30662.9897 88.8851
v 22583.2088 30629.5358 98.0099
v 22583.2088 30629.5358 100.1599
v 22583.2318 30630.3734 98.0099
v 22583.2317 30630.3734 100.1599
v 22583.2558 30661.8168 88.4351
v 22583.2558 30661.8168 92.0351
v 22583.2817 30630.3720 98.0099
v 22583.2913 30630.6153 98.0099
v 22583.2913 30630.6152 99.3349
v 22583.4671 30635.0326 98.0099
v 22583.4671 30635.0326 99.3349
v 22583.6282 30645.7453 88.4350
v 22583.6282 30645.7452 92.0850
v 22583.9603 30651.9987 88.4350
v 22583.9603 30651.9987 92.0850
v 22584.4607 30639.9669 88.4350
v 22584.4607 30639.9669 92.6800
v 22584.5202 30641.1553 88.4350
v 22584.5201 30641.1553 92.6800
v 22584.8630 30652.4896 88.4350
v 22584.8630 30652.4896 91.5200
v 22584.9635 30654.3805 88.4350
v 22585.2671 30630.5369 98.0099
v 22585.2671 30630.5369 99.3349
v 22585.2755 30630.7487 98.0099
v 22585.2755 30630.7487 98.8599
v 22585.2980 30660.6709 88.4351
v 22585.2979 30660.6708 91.5201
v 22585.3572 30632.8021 98.0099
v 22585.3572 30632.8021 98.8599
v 22585.3627 30632.9418 98.0099
v 22585.3627 30632.9418 98.8799
v 22585.4143 30634.2398 98.0099
v 22585.4143 30634.2397 98.8799
v 22585.4427 30634.9543 98.0099
v 22585.4427 30634.9543 99.3349
v 22585.5835 30638.4939 98.0100
v 22585.9383 30681.4457 92.0353
v 22586.1728 30676.8799 93.4202
v 22586.1728 30676.8799 93.4802
v 22586.2113 30634.1783 98.0099
v 22586.2113 30634.1783 98.8800
v 22586.4640 30637.4607 98.0100
v 22586.4640 30637.4607 98.8800
v 22586.5824 30676.5658 92.0352
v 22586.5824 30676.5658 93.4202
v 22586.5952 30673.6790 93.4202
v 22586.5952 30673.6790 93.4802
v 22586.6448 30638.4417 88.4350
v 22586.6448 30638.4417 92.6800
v 22586.7745 30641.0435 88.4350
v 22586.7745 30641.0435 92.6800
v 22586.9093 30674.0887 92.0352
v 22586.9093 30674.0887 93.4202
v 22587.0872 30670.0150 93.3552
v 22587.0872 30670.0150 93.4552
v 22587.3002 30698.7182 25.0955
v 22587.3002 30698.7182 29.8505
v 22587.4800 30669.7138 92.0352
v 22587.4800 30669.7138 93.3552
v 22587.5045 30666.8529 93.4552
v 22587.5046 30666.8529 93.3552
v 22587.8058 30667.2457 92.0352
v 22587.8057 30667.2457 93.3552
v 22587.8794 30715.6284 25.0958
v 22587.8796 30715.6287 5.4608
v 22587.9175 30716.7392 29.8508
v 22587.9176 30716.7396 5.4608
v 22588.2051 30632.7240 98.0100
v 22588.2051 30632.7240 98.8600
v 22588.3146 30632.7156 98.8600
v 22588.3146 30632.7156 98.8800
v 22588.3150 30632.7210 98.0100
v 22588.3150 30632.7210 98.8600
v 22588.5890 30676.8309 92.0353
v 22588.5890 30676.8308 93.4203
v 22588.6671 30637.2919 98.0100
v 22588.6671 30637.2919 98.8800
v 22588.7793 30645.4715 88.4350
v 22588.7793 30645.4715 92.0850
v 22588.9031 30677.2405 93.4203
v 22588.9031 30677.2405 93.4803
v 22588.9158 30674.3538 92.0352
v 22588.9158 30674.3538 93.4202
v 22589.1115 30651.7251 88.4351
v 22589.1115 30651.7251 92.0851
v 22589.1228 30720.0021 0.0009
v 22589.1228 30720.0021 5.4608
v 22589.1309 30717.2664 0.0009
v 22589.1309 30717.2664 5.4608
v 22589.1340 30652.2628 88.4351
v 22589.1340 30652.2627 91.5201
v 22589.3254 30674.0397 93.4202
v 22589.3254 30674.0397 93.4802
v 22589.4683 30669.9760 92.0352
v 22589.4683 30669.9760 93.3552
v 22589.5643 30660.3594 88.4351
v 22589.5668 30681.9264 25.0953
v 22589.5668 30681.9263 29.8503
v 22589.5688 30660.4440 88.4351
v 22589.5688 30660.4440 91.5201
v 22589.7696 30670.3688 93.3552
v 22589.7696 30670.3688 93.4552
v 22589.7934 30667.5079 92.0352
v 22589.7934 30667.5079 93.3552
v 22590.1861 30667.2067 93.3552
v 22590.1861 30667.2067 93.4552
v 22590.3936 30630.6083 98.0100
v 22590.3936 30630.6083 98.8600
v 22590.4184 30662.7642 92.0351
v 22590.4501 30632.6624 98.0100
v 22590.4501 30632.6624 98.8600
v 22591.0801 30682.1265 29.8503
v 22591.0797 30682.1259 92.0353
v 22591.3568 30715.3817 29.8508
v 22591.3568 30715.3817 31.5908
v 22591.7047 30638.1928 88.4350
v 22591.7325 30638.1914 88.4350
v 22591.7325 30638.1914 92.0350
v 22592.0306 30714.8581 29.8508
v 22592.0306 30714.8581 31.5908
v 22592.0321 30638.1767 92.0350
v 22592.0326 30638.1770 21.6000
v 22592.2076 30640.8196 21.6000
v 22592.2076 30640.8196 29.8500
v 22592.3683 30638.1604 21.6000
v 22592.3682 30638.1604 29.8500
v 22592.3882 30707.5161 29.8507
v 22592.3882 30707.5161 31.5907
v 22592.9831 30707.5941 29.8507
v 22592.9831 30707.5941 31.5907
v 22593.1888 30660.1842 88.4351
v 22593.2654 30663.1408 88.4352
v 22593.2653 30663.1407 92.0352
v 22593.3788 30663.0550 88.4352
v 22593.3788 30663.0550 92.0352
v 22593.4661 30630.0899 29.8500
v 22593.4656 30630.0897 98.0100
v 22593.5733 30663.2840 92.0352
v 22593.5738 30663.2845 29.8502
v 22593.6893 30663.1972 29.8502
v 22593.6889 30663.1967 92.0352
v 22593.7125 30638.0940 98.0100
v 22593.7130 30638.0942 29.8500
v 22594.0929 30624.3725 98.0100
v 22594.0935 30624.3727 11.4550
v 22594.2029 30627.6736 11.4550
v 22594.2028 30627.6735 21.6000
v 22594.2544 30629.2304 21.6000
v 22594.2538 30629.2302 98.0100
v 22594.3053 30629.2290 21.6000
v 22594.3047 30629.2288 100.1600
v 22594.3119 30629.4684 21.6000
v 22594.3118 30629.4683 29.8500
v 22594.3284 30630.0660 29.8500
v 22594.3279 30630.0658 100.1600
v 22596.0056 30629.3478 21.6000
v 22596.0055 30629.3478 29.8500
v 22596.8183 30641.3754 21.6001
v 22596.8183 30641.3754 29.8501
v 22598.6928 30620.3665 6.1645
v 22598.6928 30620.3664 11.4550
v 22599.3404 30655.0288 29.8501
v 22599.3404 30655.0288 31.5901
v 22599.9344 30655.1133 29.8502
v 22599.9344 30655.1133 31.5902
v 22600.5824 30722.2380 29.8510
v 22600.5826 30722.2385 0.0010
v 22601.0812 30618.1392 6.4154
v 22601.1946 30641.9932 29.8501
v 22601.1946 30641.9932 31.5901
v 22601.3471 30716.5777 20.4909
v 22601.3470 30716.5775 29.8509
v 22601.4274 30715.9830 20.4909
v 22601.4273 30715.9829 29.8509
v 22601.7050 30642.6653 29.8501
v 22601.7050 30642.6653 31.5901
v 22601.7499 30716.0214 31.5909
v 22601.7500 30716.0216 20.4909
v 22601.8444 30617.4275 6.1898
v 22601.8444 30617.4275 11.4550
v 22602.2660 30716.6877 20.4909
v 22602.2659 30716.6875 31.5909
v 22605.4236 30621.0529 5.8192
v 22605.4341 30621.0635 5.7405
v 22605.5483 30617.2422 5.4177
v 22605.5483 30617.2422 8.2001
v 22605.9512 30621.5873 5.6514
v 22606.4060 30616.4023 5.1603
v 22606.4430 30616.3661 5.1536
v 22606.4624 30616.3471 5.1429
v 22606.8157 30616.0012 0.0002
v 22606.8156 30616.0012 5.1015
v 22606.9279 30675.2631 0.0004
v 22606.9277 30675.2628 21.6004
v 22607.2132 30675.3041 20.4904
v 22607.2131 30675.3041 21.6004
v 22607.2597 30675.3110 0.0004
v 22607.2596 30675.3108 20.4904
v 22607.4896 30619.2245 5.2183
v 22607.5400 30619.2761 4.8382
v 22607.6763 30619.4152 4.8149
v 22607.6763 30619.4152 8.2001
v 22607.8096 30615.0279 0.0002
v 22607.8096 30615.0279 8.2001
v 22607.9636 30623.6258 4.6933
v 22607.9636 30623.6258 8.0901
v 22608.0985 30642.8991 29.8502
v 22608.0986 30642.8991 21.6002
v 22608.2014 30618.9011 0.0002
v 22608.2013 30618.9011 4.5805
v 22609.1664 30624.8440 0.0002
v 22609.1663 30624.8440 8.0901
v 22609.1854 30661.7806 11.4553
v 22609.1855 30661.7806 0.0003
v 22609.7571 30621.7909 4.4933
v 22609.9376 30617.2009 0.0002
v 22609.9375 30617.2008 8.2001
v 22610.3388 30621.1958 0.0002
v 22610.3387 30621.1958 4.2302
v 22611.1632 30643.9063 21.6002
v 22611.1631 30643.9063 29.8502
v 22611.2419 30626.9464 0.0002
v 22611.2418 30626.9464 11.4551
v 22611.4213 30643.9402 21.6002
v 22611.4212 30643.9401 31.5902
v 22611.8034 30643.3852 20.4902
v 22611.8034 30643.3852 21.6002
v 22612.0960 30643.4236 20.4902
v 22612.0959 30643.4235 31.5902
v 22612.1048 30619.3890 0.0002
v 22612.1047 30619.3889 8.0901
v 22613.3288 30620.5854 0.0002
v 22613.3287 30620.5854 8.0901
v 22613.6877 30630.1468 11.4552
v 22613.6876 30630.1468 21.6002
v 22614.1445 30629.7532 0.0002
v 22614.1443 30629.7532 11.4552
v 22615.6113 30631.1979 0.0003
v 22615.6112 30631.1979 11.4552
v 22616.9230 30633.1952 0.0003
v 22616.9228 30633.1951 11.4552
v 22617.5634 30641.5920 0.0003
v 22617.5632 30641.5920 11.4552
v 22617.7501 30635.2370 0.0003
v 22617.7500 30635.2370 11.4552
v 22618.1245 30639.5491 0.0003
v 22618.1244 30639.5491 11.4552
v 22618.1356 30637.2638 0.0003
v 22618.1355 30637.2638 11.4552
f 1316 1357 1317
f 1317 1357 1358
f 1084 1140 1139
f 1139 1140 1137
f 297 233 293
f 233 221 293
f 293 221 220
f 220 221 232
f 221 233 232
f 232 233 296
f 233 297 296
f 296 297 292
f 297 293 292
f 293 220 292
f 277 292 237
f 292 220 237
f 220 232 237
f 237 232 239
f 232 296 239
f 239 296 283
f 296 292 283
f 292 277 283
f 283 277 282
f 282 277 276
f 276 277 236
f 277 237 236
f 237 239 236
f 236 239 238
f 239 283 238
f 283 282 238
f 238 282 353
f 282 352 353
f 353 352 348
f 352 282 348
f 282 276 348
f 276 236 348
f 1436 1425 1430
f 1425 1423 1430
f 1430 1423 1429
f 196 181 182
f 161 182 184
f 182 181 184
f 184 181 183
f 244 245 247
f 247 271 275
f 275 271 274
f 274 271 270
f 270 271 287
f 287 271 279
f 271 247 279
f 247 245 279
f 279 245 231
f 245 244 231
f 244 230 231
f 231 230 235
f 235 230 234
f 230 244 234
f 234 244 246
f 244 247 246
f 247 275 246
f 275 274 246
f 394 186 390
f 186 176 390
f 390 176 175
f 175 176 185
f 176 186 185
f 202 185 393
f 185 186 393
f 186 394 393
f 393 394 389
f 394 390 389
f 390 175 389
f 389 175 190
f 175 185 190
f 185 202 190
f 190 202 189
f 170 177 178
f 178 177 189
f 189 177 169
f 177 170 169
f 169 170 63
f 170 180 63
f 180 69 63
f 63 69 68
f 69 180 68
f 70 68 179
f 68 180 179
f 180 170 179
f 170 178 179
f 178 189 179
f 325 328 285
f 285 328 289
f 289 328 288
f 288 328 329
f 328 325 329
f 329 325 324
f 325 285 324
f 324 285 284
f 285 289 284
f 289 288 284
f 284 288 201
f 288 179 201
f 179 189 201
f 189 202 201
f 201 202 388
f 202 393 388
f 393 389 388
f 388 389 384
f 389 190 384
f 384 190 383
f 190 189 383
f 636 637 630
f 630 637 588
f 637 590 588
f 588 590 587
f 587 590 589
f 590 637 589
f 637 636 589
f 589 636 591
f 636 644 591
f 548 528 547
f 547 528 527
f 431 468 469
f 469 468 473
f 468 471 473
f 471 470 473
f 470 472 473
f 472 533 473
f 473 533 534
f 533 529 534
f 529 530 534
f 530 527 534
f 527 528 534
f 528 548 534
f 534 548 556
f 548 547 556
f 547 554 556
f 554 553 556
f 553 555 556
f 555 591 556
f 591 644 556
f 556 644 645
f 644 642 645
f 642 643 645
f 641 660 645
f 645 660 669
f 668 669 666
f 666 669 667
f 667 669 659
f 669 660 659
f 660 641 659
f 659 641 640
f 641 645 640
f 645 643 640
f 640 643 639
f 643 642 639
f 639 642 638
f 642 644 638
f 644 636 638
f 638 636 629
f 636 630 629
f 630 588 629
f 588 587 629
f 629 587 621
f 621 622 617
f 617 622 582
f 582 622 584
f 584 622 583
f 622 621 583
f 621 587 583
f 587 589 583
f 589 591 583
f 583 591 571
f 591 555 571
f 555 553 571
f 553 554 571
f 554 572 571
f 571 572 566
f 572 554 566
f 554 547 566
f 547 527 566
f 566 527 513
f 513 527 526
f 527 530 526
f 530 529 526
f 526 529 525
f 529 533 525
f 525 533 484
f 533 472 484
f 472 470 484
f 470 471 484
f 471 485 484
f 484 485 479
f 485 471 479
f 471 468 479
f 479 468 430
f 468 431 430
f 439 435 440
f 435 436 440
f 436 430 440
f 430 431 440
f 431 469 440
f 469 473 440
f 440 473 699
f 473 534 699
f 534 556 699
f 556 645 699
f 645 669 699
f 699 669 693
f 669 668 693
f 693 668 692
f 692 668 686
f 668 666 686
f 666 667 686
f 667 687 686
f 686 687 685
f 687 667 685
f 667 659 685
f 659 640 685
f 685 640 615
f 640 639 615
f 639 638 615
f 615 638 618
f 638 629 618
f 629 621 618
f 618 621 616
f 621 617 616
f 617 582 616
f 616 582 581
f 582 584 581
f 584 583 581
f 583 571 581
f 581 571 565
f 571 566 565
f 566 513 565
f 565 513 512
f 513 526 512
f 526 525 512
f 525 484 512
f 512 484 478
f 484 479 478
f 478 479 420
f 479 430 420
f 420 430 422
f 430 436 422
f 436 435 422
f 422 435 421
f 435 439 421
f 421 439 367
f 154 336 337
f 336 367 337
f 337 367 368
f 367 439 368
f 439 440 368
f 368 440 378
f 440 699 378
f 378 699 377
f 383 377 698
f 377 699 698
f 699 693 698
f 693 692 698
f 1391 1394 1392
f 1243 1229 1242
f 1229 1228 1242
f 1258 1242 1271
f 1339 1345 1272
f 1345 1274 1272
f 1271 1272 1273
f 1272 1274 1273
f 1274 1345 1273
f 1351 1360 1280
f 1360 1287 1280
f 1280 1287 1279
f 1287 1281 1279
f 1273 1279 1286
f 1279 1281 1286
f 1281 1287 1286
f 1287 1360 1286
f 1392 1286 1359
f 1286 1360 1359
f 1360 1351 1359
f 1359 1351 1356
f 1356 1351 1350
f 1351 1280 1350
f 1280 1279 1350
f 1350 1279 1344
f 1279 1273 1344
f 1273 1345 1344
f 1345 1339 1344
f 1344 1339 1338
f 1339 1272 1338
f 1272 1271 1338
f 1310 1338 1277
f 1338 1271 1277
f 1277 1271 1275
f 1275 1271 1240
f 1271 1242 1240
f 1240 1242 1238
f 1242 1228 1238
f 601 578 600
f 600 578 577
f 578 570 577
f 558 543 557
f 557 543 542
f 543 532 542
f 515 504 514
f 514 504 503
f 504 497 503
f 495 481 480
f 480 481 463
f 465 453 483
f 453 463 483
f 463 481 483
f 481 495 483
f 483 495 494
f 495 480 494
f 494 480 496
f 480 503 496
f 503 497 496
f 502 496 506
f 496 497 506
f 506 497 517
f 497 504 517
f 504 515 517
f 517 515 536
f 536 515 535
f 515 514 535
f 535 514 531
f 514 542 531
f 542 532 531
f 531 532 545
f 545 532 560
f 532 543 560
f 543 558 560
f 560 558 568
f 568 558 567
f 558 557 567
f 557 577 567
f 567 577 569
f 577 570 569
f 569 570 580
f 570 578 580
f 578 601 580
f 603 580 632
f 580 601 632
f 601 600 632
f 600 624 632
f 632 624 623
f 487 475 486
f 509 523 499
f 499 523 489
f 488 489 501
f 489 523 501
f 501 523 511
f 511 523 522
f 537 521 520
f 522 520 524
f 524 520 541
f 520 521 541
f 541 521 552
f 521 539 552
f 539 550 552
f 552 550 562
f 562 550 561
f 563 564 576
f 564 574 576
f 599 576 610
f 610 576 597
f 576 574 597
f 597 574 596
f 596 574 573
f 574 564 573
f 564 563 573
f 563 561 573
f 573 561 549
f 561 550 549
f 550 539 549
f 549 539 538
f 539 521 538
f 521 537 538
f 538 537 508
f 537 520 508
f 520 522 508
f 522 523 508
f 523 509 508
f 509 499 508
f 508 499 498
f 499 489 498
f 489 488 498
f 498 488 474
f 488 486 474
f 486 475 474
f 474 475 454
f 457 442 477
f 442 454 477
f 454 475 477
f 475 487 477
f 477 487 476
f 487 486 476
f 476 486 500
f 486 488 500
f 488 501 500
f 501 511 500
f 500 511 510
f 511 522 510
f 510 522 540
f 522 524 540
f 524 541 540
f 541 552 540
f 540 552 551
f 552 562 551
f 562 561 551
f 551 561 575
f 561 563 575
f 563 576 575
f 576 599 575
f 575 599 598
f 599 610 598
f 598 610 609
f 610 597 609
f 597 596 609
f 611 609 608
f 608 609 604
f 609 596 604
f 596 573 604
f 573 549 604
f 549 538 604
f 538 508 604
f 508 498 604
f 498 474 604
f 604 474 455
f 474 454 455
f 454 442 455
f 455 442 441
f 442 457 441
f 441 457 456
f 457 477 456
f 477 476 456
f 456 476 613
f 476 500 613
f 500 510 613
f 510 540 613
f 540 551 613
f 551 575 613
f 575 598 613
f 598 609 613
f 609 611 613
f 613 611 612
f 611 608 612
f 612 608 605
f 608 604 605
f 605 604 426
f 426 604 427
f 604 455 427
f 427 455 432
f 455 441 432
f 432 441 434
f 441 456 434
f 456 613 434
f 613 612 434
f 434 612 507
f 612 619 507
f 507 619 451
f 451 619 444
f 444 619 620
f 619 623 620
f 623 624 620
f 624 600 620
f 600 577 620
f 577 557 620
f 557 542 620
f 542 514 620
f 514 503 620
f 503 480 620
f 620 480 462
f 480 463 462
f 463 453 462
f 462 453 452
f 453 465 452
f 452 465 464
f 465 483 464
f 464 483 482
f 483 494 482
f 482 494 505
f 494 496 505
f 496 502 505
f 502 506 505
f 506 517 505
f 505 517 516
f 517 536 516
f 516 536 519
f 536 535 519
f 519 535 544
f 535 531 544
f 531 545 544
f 545 560 544
f 544 560 559
f 560 568 559
f 568 567 559
f 559 567 579
f 567 569 579
f 569 580 579
f 580 603 579
f 579 603 602
f 602 603 626
f 603 632 626
f 625 626 631
f 626 632 631
f 632 623 631
f 631 623 647
f 623 619 647
f 619 612 647
f 612 605 647
f 1182 1174 1221
f 1221 1174 1217
f 1217 1174 1216
f 985 986 963
f 965 942 988
f 942 963 988
f 963 986 988
f 988 986 994
f 994 986 993
f 986 985 993
f 993 985 995
f 1096 1082 1095
f 1064 1054 1063
f 1063 1054 1053
f 1054 1039 1053
f 1031 1013 1030
f 1030 1013 1016
f 1016 1013 1012
f 1013 996 1012
f 1012 996 1011
f 1011 996 995
f 997 995 1015
f 995 996 1015
f 1033 1015 1043
f 1015 996 1043
f 996 1013 1043
f 1013 1031 1043
f 1043 1031 1042
f 1031 1030 1042
f 1042 1030 1038
f 1030 1053 1038
f 1053 1039 1038
f 1038 1039 1056
f 1056 1039 1066
f 1039 1054 1066
f 1054 1064 1066
f 1066 1064 1080
f 1080 1064 1079
f 1064 1063 1079
f 1079 1063 1081
f 1063 1095 1081
f 1095 1082 1081
f 1083 1081 1098
f 1081 1082 1098
f 1082 1096 1098
f 1116 1098 1125
f 1125 1098 1114
f 1098 1096 1114
f 1114 1096 1113
f 1096 1095 1113
f 1113 1095 1122
f 1095 1063 1122
f 1063 1053 1122
f 1053 1030 1122
f 1122 1030 1024
f 1024 1030 1023
f 1030 1016 1023
f 1016 1012 1023
f 1012 1011 1023
f 1011 995 1023
f 995 985 1023
f 1023 985 962
f 985 963 962
f 963 942 962
f 962 942 941
f 942 965 941
f 941 965 964
f 965 988 964
f 964 988 987
f 988 994 987
f 994 993 987
f 987 993 1014
f 993 995 1014
f 995 997 1014
f 997 1015 1014
f 1015 1033 1014
f 1014 1033 1032
f 1033 1043 1032
f 1043 1042 1032
f 1032 1042 1055
f 1042 1038 1055
f 1038 1056 1055
f 1056 1066 1055
f 1055 1066 1065
f 1066 1080 1065
f 1080 1079 1065
f 1065 1079 1097
f 1079 1081 1097
f 1081 1083 1097
f 1083 1098 1097
f 1098 1116 1097
f 1097 1116 1115
f 1116 1125 1115
f 1115 1125 1124
f 1125 1114 1124
f 1114 1113 1124
f 1113 1122 1124
f 1127 1124 1126
f 1124 1122 1126
f 1123 1126 1121
f 1126 1122 1121
f 1122 1024 1121
f 1121 1024 940
f 1024 1023 940
f 1023 962 940
f 962 941 940
f 940 941 944
f 941 964 944
f 944 964 1129
f 964 987 1129
f 987 1014 1129
f 1014 1032 1129
f 1032 1055 1129
f 1055 1065 1129
f 1065 1097 1129
f 1097 1115 1129
f 1115 1124 1129
f 1124 1127 1129
f 1000 1129 1128
f 1129 1127 1128
f 1127 1126 1128
f 1126 1123 1128
f 1128 1123 1198
f 1123 1121 1198
f 1207 1209 1186
f 1209 1189 1186
f 1187 1186 1188
f 1186 1189 1188
f 1189 1209 1188
f 1200 1188 1208
f 1188 1209 1208
f 1209 1207 1208
f 1208 1207 1206
f 1207 1186 1206
f 1186 1187 1206
f 1206 1187 1198
f 1198 1187 1185
f 1187 1188 1185
f 1188 1200 1185
f 1185 1200 1169
f 1200 1201 1169
f 1172 1169 1205
f 1169 1201 1205
f 1205 1201 1204
f 1201 1200 1204
f 1200 1208 1204
f 1204 1208 1216
f 1216 1208 1210
f 1208 1206 1210
f 1206 1198 1210
f 1210 1198 1211
f 1211 1198 1199
f 1070 1100 1074
f 980 999 984
f 999 1005 984
f 895 892 884
f 866 884 870
f 884 892 870
f 869 870 853
f 853 870 858
f 858 870 1199
f 870 892 1199
f 892 984 1199
f 984 1005 1199
f 1005 1074 1199
f 1199 1074 1106
f 1074 1100 1106
f 1106 1100 1099
f 1100 1070 1099
f 1099 1070 1069
f 1070 1074 1069
f 1069 1074 1072
f 1072 1074 1071
f 1071 1074 1073
f 1073 1074 1006
f 1074 1005 1006
f 1006 1005 1001
f 1001 1005 1002
f 1002 1005 998
f 1005 999 998
f 999 980 998
f 998 980 979
f 980 984 979
f 979 984 982
f 982 984 981
f 981 984 983
f 984 892 983
f 892 891 983
f 983 891 894
f 891 892 894
f 892 895 894
f 894 895 887
f 887 895 888
f 888 895 883
f 895 884 883
f 884 866 883
f 883 866 865
f 866 870 865
f 865 870 868
f 868 870 867
f 870 869 867
f 867 869 852
f 869 853 852
f 853 858 852
f 852 858 857
f 858 1199 857
f 872 860 871
f 840 802 839
f 839 802 801
f 802 790 801
f 733 741 792
f 741 769 792
f 792 769 768
f 769 741 768
f 768 741 740
f 741 733 740
f 710 711 689
f 691 679 713
f 679 689 713
f 689 711 713
f 713 711 731
f 731 711 730
f 711 710 730
f 730 710 732
f 710 740 732
f 740 733 732
f 732 733 743
f 733 792 743
f 743 792 771
f 771 792 791
f 792 768 791
f 791 768 789
f 768 801 789
f 801 790 789
f 789 790 804
f 804 790 842
f 790 802 842
f 802 840 842
f 842 840 855
f 855 840 854
f 840 839 854
f 854 839 859
f 839 871 859
f 871 860 859
f 859 860 874
f 860 872 874
f 906 874 920
f 920 874 904
f 874 872 904
f 904 872 903
f 872 871 903
f 903 871 918
f 871 839 918
f 918 839 820
f 839 801 820
f 801 768 820
f 768 740 820
f 740 710 820
f 820 710 700
f 700 710 688
f 710 689 688
f 689 679 688
f 688 679 678
f 679 691 678
f 678 691 690
f 691 713 690
f 690 713 712
f 713 731 712
f 712 731 715
f 731 730 715
f 715 730 742
f 730 732 742
f 732 743 742
f 743 771 742
f 742 771 770
f 771 791 770
f 770 791 803
f 791 789 803
f 789 804 803
f 804 842 803
f 803 842 841
f 842 855 841
f 855 854 841
f 841 854 873
f 854 859 873
f 859 874 873
f 874 906 873
f 873 906 905
f 906 920 905
f 905 920 919
f 920 904 919
f 904 903 919
f 903 918 919
f 925 919 921
f 919 918 921
f 921 918 917
f 918 820 917
f 820 700 917
f 705 706 695
f 695 706 707
f 707 706 696
f 696 706 727
f 878 850 886
f 886 850 876
f 876 850 848
f 848 850 832
f 832 850 831
f 816 784 830
f 831 829 828
f 828 829 814
f 829 830 814
f 830 784 814
f 814 784 782
f 782 784 763
f 763 784 762
f 764 765 745
f 745 765 726
f 726 765 709
f 709 765 728
f 765 747 728
f 728 747 727
f 727 747 746
f 747 765 746
f 765 764 746
f 746 764 783
f 764 762 783
f 762 784 783
f 784 816 783
f 783 816 815
f 816 830 815
f 815 830 817
f 830 829 817
f 817 829 849
f 829 831 849
f 831 850 849
f 850 878 849
f 849 878 877
f 878 886 877
f 877 886 885
f 886 876 885
f 885 876 875
f 876 848 875
f 875 848 847
f 848 832 847
f 832 831 847
f 847 831 813
f 831 828 813
f 828 814 813
f 814 782 813
f 813 782 781
f 782 763 781
f 763 762 781
f 781 762 744
f 762 764 744
f 764 745 744
f 745 726 744
f 744 726 725
f 726 709 725
f 725 709 708
f 709 728 708
f 728 727 708
f 727 706 708
f 706 705 708
f 708 705 694
f 705 695 694
f 670 694 671
f 694 695 671
f 671 695 697
f 695 707 697
f 707 696 697
f 673 697 672
f 697 696 672
f 654 672 656
f 656 672 900
f 672 696 900
f 696 727 900
f 727 746 900
f 746 783 900
f 783 815 900
f 815 817 900
f 817 849 900
f 849 877 900
f 877 885 900
f 900 885 896
f 896 885 893
f 893 885 890
f 885 875 890
f 875 847 890
f 847 813 890
f 813 781 890
f 781 744 890
f 890 744 739
f 744 725 739
f 725 708 739
f 708 694 739
f 694 670 739
f 739 670 648
f 670 652 648
f 648 652 651
f 651 652 650
f 652 670 650
f 670 671 650
f 671 697 650
f 697 673 650
f 673 672 650
f 672 654 650
f 650 654 653
f 653 654 655
f 654 656 655
f 656 900 655
f 655 900 738
f 843 844 824
f 844 826 824
f 824 826 794
f 794 826 773
f 826 796 773
f 773 796 772
f 796 776 772
f 772 776 774
f 774 761 775
f 761 737 775
f 737 719 775
f 759 775 735
f 775 719 735
f 735 719 718
f 719 720 718
f 716 717 702
f 717 704 702
f 702 704 681
f 681 704 663
f 663 704 683
f 683 704 682
f 682 704 703
f 704 717 703
f 717 716 703
f 703 716 736
f 716 718 736
f 718 720 736
f 720 719 736
f 719 737 736
f 737 761 736
f 736 761 760
f 761 774 760
f 760 774 795
f 774 776 795
f 776 796 795
f 796 826 795
f 795 826 825
f 826 844 825
f 844 843 825
f 825 843 863
f 843 845 863
f 881 863 882
f 882 863 864
f 863 845 864
f 845 846 864
f 846 862 864
f 864 862 880
f 880 862 879
f 879 862 861
f 862 846 861
f 846 845 861
f 845 843 861
f 861 843 823
f 843 824 823
f 824 794 823
f 823 794 797
f 797 794 793
f 794 773 793
f 773 772 793
f 793 772 758
f 772 774 758
f 774 775 758
f 775 759 758
f 759 735 758
f 758 735 734
f 735 718 734
f 734 718 701
f 718 716 701
f 716 702 701
f 702 681 701
f 701 681 680
f 681 663 680
f 680 663 662
f 663 683 662
f 683 682 662
f 662 682 665
f 665 682 914
f 682 703 914
f 703 736 914
f 736 760 914
f 760 795 914
f 795 825 914
f 825 863 914
f 863 881 914
f 909 914 910
f 914 881 910
f 881 882 910
f 910 882 912
f 882 864 912
f 864 880 912
f 880 879 912
f 912 879 908
f 908 879 902
f 879 861 902
f 861 823 902
f 902 823 810
f 823 797 810
f 797 793 810
f 793 758 810
f 758 734 810
f 734 701 810
f 701 680 810
f 810 680 658
f 680 662 658
f 658 662 661
f 662 665 661
f 661 665 664
f 665 914 664
f 664 914 805
f 714 805 917
f 917 805 913
f 805 914 913
f 914 909 913
f 913 909 911
f 909 910 911
f 910 912 911
f 911 912 907
f 912 908 907
f 907 908 901
f 908 902 901
f 902 810 901
f 810 827 901
f 901 827 899
f 827 738 899
f 738 900 899
f 900 896 899
f 896 893 899
f 899 893 889
f 893 890 889
f 890 739 889
f 739 648 889
f 889 648 647
f 648 651 647
f 647 651 649
f 651 650 649
f 650 653 649
f 649 653 657
f 653 655 657
f 655 738 657
f 738 827 657
f 827 810 657
f 810 658 657
f 658 661 657
f 661 664 657
f 657 664 674
f 664 805 674
f 805 714 674
f 714 917 674
f 674 917 675
f 917 700 675
f 700 688 675
f 688 678 675
f 675 678 677
f 678 690 677
f 677 690 930
f 690 712 930
f 712 715 930
f 715 742 930
f 742 770 930
f 770 803 930
f 803 841 930
f 841 873 930
f 873 905 930
f 905 919 930
f 919 925 930
f 930 925 928
f 925 921 928
f 921 917 928
f 928 917 966
f 917 913 966
f 913 911 966
f 911 907 966
f 907 901 966
f 901 899 966
f 899 889 966
f 889 857 966
f 857 1199 966
f 1199 1198 966
f 1198 1121 966
f 966 1121 939
f 1121 940 939
f 939 940 943
f 940 944 943
f 944 1129 943
f 1129 1000 943
f 943 1000 949
f 1009 1010 1022
f 1037 1022 1051
f 1022 1010 1051
f 1010 1020 1051
f 1020 1035 1051
f 1051 1035 1050
f 1050 1048 1052
f 1052 1048 1062
f 1048 1049 1062
f 1062 1049 1078
f 1049 1060 1078
f 1060 1076 1078
f 1078 1076 1092
f 1092 1076 1091
f 1076 1090 1091
f 1091 1090 1093
f 1093 1094 1110
f 1094 1108 1110
f 1120 1110 1133
f 1133 1110 1118
f 1110 1108 1118
f 1118 1108 1117
f 1117 1108 1107
f 1108 1094 1107
f 1094 1093 1107
f 1107 1093 1075
f 1093 1090 1075
f 1090 1076 1075
f 1076 1060 1075
f 1075 1060 1059
f 1060 1049 1059
f 1049 1048 1059
f 1059 1048 1034
f 1048 1050 1034
f 1050 1035 1034
f 1035 1020 1034
f 1034 1020 1019
f 1020 1010 1019
f 1010 1009 1019
f 1019 1009 989
f 974 956 992
f 956 972 992
f 1008 992 990
f 992 972 990
f 990 972 989
f 989 972 971
f 972 956 971
f 971 956 955
f 956 974 955
f 955 974 973
f 974 992 973
f 973 992 991
f 992 1008 991
f 991 1008 1007
f 1008 990 1007
f 990 989 1007
f 989 1009 1007
f 1007 1009 1021
f 1009 1022 1021
f 1022 1037 1021
f 1021 1037 1036
f 1037 1051 1036
f 1051 1050 1036
f 1036 1050 1061
f 1050 1052 1061
f 1052 1062 1061
f 1062 1078 1061
f 1061 1078 1077
f 1078 1092 1077
f 1092 1091 1077
f 1077 1091 1109
f 1091 1093 1109
f 1093 1110 1109
f 1110 1120 1109
f 1109 1120 1119
f 1120 1133 1119
f 1119 1133 1132
f 1133 1118 1132
f 1118 1117 1132
f 1132 1117 1131
f 1117 1107 1131
f 1107 1075 1131
f 1075 1059 1131
f 1059 1034 1131
f 1034 1019 1131
f 1019 989 1131
f 989 971 1131
f 971 950 1131
f 1131 950 949
f 949 950 952
f 950 971 952
f 971 955 952
f 952 955 957
f 955 973 957
f 957 973 961
f 961 973 1029
f 973 991 1029
f 991 1007 1029
f 1007 1021 1029
f 1021 1036 1029
f 1029 1036 1135
f 1036 1061 1135
f 1061 1077 1135
f 1077 1109 1135
f 1109 1119 1135
f 1119 1132 1135
f 1135 1132 1134
f 1132 1131 1134
f 1134 1131 1130
f 1131 949 1130
f 949 1000 1130
f 1000 1128 1130
f 1128 1198 1130
f 1130 1198 1168
f 1198 1185 1168
f 1185 1169 1168
f 1169 1172 1168
f 1168 1172 1170
f 1170 1172 1171
f 1172 1205 1171
f 1205 1204 1171
f 1171 1204 1173
f 1204 1216 1173
f 1216 1174 1173
f 1174 1182 1173
f 1173 1182 1181
f 1182 1221 1181
f 1181 1221 1220
f 1221 1217 1220
f 1217 1216 1220
f 1220 1216 1238
f 1216 1210 1238
f 1238 1210 1239
f 1210 1211 1239
f 1247 1232 1219
f 1232 1239 1219
f 1239 1211 1219
f 1219 1211 1203
f 1211 1199 1203
f 1199 1106 1203
f 1203 1106 1105
f 1105 1106 1101
f 1101 1106 1102
f 1106 1099 1102
f 1112 1102 1104
f 1102 1099 1104
f 1099 1069 1104
f 1047 1104 1058
f 1104 1069 1058
f 1069 1072 1058
f 1072 1071 1058
f 1058 1071 1057
f 1071 1073 1057
f 1057 1073 1017
f 1073 1006 1017
f 1006 1001 1017
f 1001 1002 1017
f 1002 1018 1017
f 1017 1018 1004
f 1018 1002 1004
f 1002 998 1004
f 998 979 1004
f 938 1004 946
f 1004 979 946
f 979 982 946
f 982 981 946
f 946 981 945
f 981 983 945
f 945 983 915
f 983 894 915
f 894 887 915
f 887 888 915
f 888 916 915
f 915 916 898
f 916 888 898
f 888 883 898
f 883 865 898
f 822 898 834
f 898 865 834
f 865 868 834
f 868 867 834
f 834 867 833
f 867 852 833
f 852 857 833
f 857 889 833
f 833 889 698
f 889 647 698
f 698 647 425
f 647 605 425
f 605 426 425
f 426 427 425
f 425 427 433
f 427 432 433
f 432 434 433
f 434 507 433
f 433 507 443
f 507 451 443
f 451 444 443
f 443 444 445
f 444 620 445
f 620 462 445
f 462 452 445
f 445 452 446
f 446 452 450
f 452 464 450
f 450 464 635
f 464 482 635
f 482 505 635
f 505 516 635
f 516 519 635
f 519 544 635
f 544 559 635
f 559 579 635
f 579 602 635
f 602 626 635
f 546 635 634
f 635 626 634
f 626 625 634
f 625 631 634
f 631 647 634
f 647 649 634
f 649 657 634
f 657 674 634
f 634 674 676
f 674 675 676
f 675 677 676
f 676 677 929
f 677 930 929
f 930 928 929
f 928 966 929
f 966 939 929
f 939 943 929
f 929 943 960
f 943 949 960
f 949 952 960
f 952 957 960
f 957 961 960
f 961 1029 960
f 960 1029 1136
f 1029 1135 1136
f 1135 1134 1136
f 1134 1130 1136
f 1130 1168 1136
f 1136 1168 1145
f 1145 1168 1159
f 1183 1159 1179
f 1159 1168 1179
f 1168 1170 1179
f 1170 1171 1179
f 1171 1173 1179
f 1173 1181 1179
f 1180 1179 1222
f 1179 1181 1222
f 1181 1220 1222
f 1220 1238 1222
f 1238 1228 1222
f 1222 1228 1252
f 1228 1229 1252
f 1252 1229 1253
f 1229 1243 1253
f 1253 1243 1259
f 1243 1242 1259
f 1242 1258 1259
f 1259 1258 1264
f 1258 1271 1264
f 1271 1273 1264
f 1273 1286 1264
f 1286 1392 1264
f 1362 1315 1366
f 1315 1320 1366
f 1366 1320 1321
f 1321 1320 1314
f 1320 1315 1314
f 1314 1315 1361
f 1315 1362 1361
f 1361 1362 1365
f 1362 1366 1365
f 1366 1321 1365
f 1365 1321 1323
f 1323 1321 1319
f 1321 1314 1319
f 1314 1361 1319
f 1319 1361 1355
f 1355 1361 1364
f 1361 1365 1364
f 1365 1323 1364
f 1364 1323 1322
f 1265 1322 1318
f 1322 1323 1318
f 1323 1319 1318
f 1319 1355 1318
f 1341 1299 1353
f 1353 1299 1307
f 1307 1299 1298
f 1298 1299 1340
f 1299 1341 1340
f 1340 1341 1352
f 1341 1353 1352
f 1352 1353 1306
f 1353 1307 1306
f 1307 1298 1306
f 1306 1298 1305
f 1298 1340 1305
f 1305 1340 1335
f 1335 1340 1343
f 1340 1352 1343
f 1343 1352 1313
f 1352 1306 1313
f 1306 1305 1313
f 1313 1305 1312
f 1318 1312 1304
f 1312 1305 1304
f 1305 1335 1304
f 1304 1335 1334
f 1335 1343 1334
f 1334 1343 1342
f 1343 1313 1342
f 1313 1312 1342
f 1312 1318 1342
f 1342 1318 1354
f 1318 1355 1354
f 1355 1364 1354
f 1354 1364 1363
f 1364 1322 1363
f 1363 1322 1369
f 1322 1265 1369
f 1265 1264 1369
f 1369 1264 1393
f 1264 1392 1393
f 1393 1392 1395
f 1392 1394 1395
f 1394 1391 1395
f 1395 1391 1378
f 1378 1391 1377
f 1391 1392 1377
f 1377 1392 1376
f 1392 1359 1376
f 1359 1356 1376
f 1356 1350 1376
f 1350 1344 1376
f 1344 1338 1376
f 1338 1310 1376
f 1376 1310 1308
f 1308 1310 1311
f 1310 1277 1311
f 1311 1277 1278
f 1277 1275 1278
f 1278 1275 1276
f 1276 1275 1241
f 1275 1240 1241
f 1240 1238 1241
f 1238 1239 1241
f 1239 1232 1241
f 1241 1232 1233
f 1233 1232 1249
f 1232 1247 1249
f 1254 1249 1248
f 1249 1247 1248
f 1248 1247 1246
f 1225 1227 1224
f 1227 1226 1224
f 1224 1226 1218
f 1226 1246 1218
f 1246 1247 1218
f 1247 1219 1218
f 1219 1203 1218
f 1218 1203 1202
f 1203 1105 1202
f 1202 1105 1111
f 1105 1101 1111
f 1101 1102 1111
f 1102 1112 1111
f 1112 1104 1111
f 1111 1104 1103
f 1104 1047 1103
f 1103 1047 1046
f 1047 1058 1046
f 1058 1057 1046
f 1057 1017 1046
f 1046 1017 1003
f 1017 1004 1003
f 1004 938 1003
f 1003 938 937
f 938 946 937
f 946 945 937
f 945 915 937
f 937 915 897
f 915 898 897
f 898 822 897
f 897 822 821
f 822 834 821
f 834 833 821
f 833 698 821
f 698 692 821
f 692 686 821
f 821 686 684
f 686 685 684
f 685 615 684
f 684 615 614
f 615 618 614
f 618 616 614
f 616 581 614
f 581 565 614
f 565 512 614
f 512 478 614
f 614 478 419
f 478 420 419
f 420 422 419
f 422 421 419
f 421 367 419
f 367 336 419
f 419 336 316
f 336 154 316
f 316 154 148
f 148 154 155
f 154 337 155
f 155 337 156
f 156 337 345
f 337 368 345
f 368 378 345
f 345 378 344
f 378 377 344
f 377 383 344
f 383 189 344
f 344 189 62
f 189 169 62
f 169 63 62
f 63 68 62
f 62 68 66
f 68 70 66
f 70 67 66
f 66 67 74
f 74 67 335
f 335 67 331
f 331 67 330
f 67 70 330
f 70 179 330
f 179 288 330
f 288 329 330
f 330 329 387
f 329 324 387
f 324 284 387
f 284 201 387
f 201 388 387
f 388 384 387
f 384 383 387
f 383 698 387
f 698 425 387
f 425 433 387
f 387 433 449
f 433 443 449
f 443 445 449
f 445 446 449
f 446 450 449
f 450 635 449
f 635 546 449
f 449 546 518
f 518 546 1143
f 546 634 1143
f 634 676 1143
f 676 929 1143
f 929 960 1143
f 960 1136 1143
f 1136 1145 1143
f 1143 1145 1146
f 1145 1159 1146
f 1159 1183 1146
f 1146 1183 1184
f 1183 1179 1184
f 1179 1180 1184
f 1184 1180 1223
f 1180 1222 1223
f 1222 1252 1223
f 1252 1253 1223
f 1253 1259 1223
f 1259 1264 1223
f 1264 1265 1223
f 1223 1265 1297
f 1265 1318 1297
f 1318 1304 1297
f 1297 1304 1373
f 1304 1334 1373
f 1334 1342 1373
f 1342 1354 1373
f 1354 1363 1373
f 1363 1369 1373
f 1369 1393 1373
f 1373 1393 1398
f 1393 1395 1398
f 1398 1395 1401
f 1385 1383 1382
f 1382 1383 1384
f 1384 1383 1386
f 1383 1385 1386
f 1386 1385 1381
f 1385 1382 1381
f 1382 1384 1381
f 1384 1401 1381
f 1401 1395 1381
f 1395 1378 1381
f 1290 1288 1328
f 1329 1328 1289
f 1328 1288 1289
f 1289 1288 1291
f 1288 1290 1291
f 1290 1328 1291
f 1328 1329 1291
f 1331 1291 1330
f 1291 1329 1330
f 1371 1333 1368
f 1333 1330 1368
f 1330 1329 1368
f 1329 1289 1368
f 1368 1289 1285
f 1268 1283 1295
f 1283 1285 1295
f 1285 1289 1295
f 1289 1291 1295
f 1292 1295 1293
f 1295 1291 1293
f 1291 1331 1293
f 1293 1331 1301
f 1301 1331 1303
f 1303 1331 1337
f 1331 1330 1337
f 1330 1333 1337
f 1333 1332 1337
f 1337 1332 1336
f 1336 1332 1370
f 1332 1333 1370
f 1333 1371 1370
f 1371 1368 1370
f 1370 1368 1367
f 1367 1368 1284
f 1368 1285 1284
f 1284 1285 1282
f 1285 1283 1282
f 1283 1268 1282
f 1282 1268 1267
f 1267 1268 1270
f 1268 1295 1270
f 1270 1295 1294
f 1295 1292 1294
f 1294 1292 1300
f 1292 1293 1300
f 1293 1301 1300
f 1301 1303 1300
f 1300 1303 1302
f 1303 1337 1302
f 1337 1336 1302
f 1302 1336 1402
f 1336 1370 1402
f 1402 1370 1397
f 1370 1367 1397
f 1367 1284 1397
f 1284 1282 1397
f 1282 1267 1397
f 1267 1266 1397
f 1397 1263 1415
f 1263 1261 1415
f 1415 1261 1411
f 1409 1408 1411
f 1413 1411 1412
f 1416 1412 1410
f 1412 1411 1410
f 1411 1408 1410
f 1410 1408 1407
f 1407 1408 1404
f 1408 1409 1404
f 1404 1409 1260
f 1409 1411 1260
f 1411 1261 1260
f 1261 1263 1260
f 1260 1263 1262
f 1263 1397 1262
f 1397 1266 1262
f 1266 1267 1262
f 1262 1267 1269
f 1267 1270 1269
f 1270 1294 1269
f 1269 1294 1296
f 1294 1300 1296
f 1300 1302 1296
f 1302 1402 1296
f 1296 1402 1309
f 1402 1381 1309
f 1381 1378 1309
f 1378 1377 1309
f 1377 1376 1309
f 1376 1308 1309
f 1308 1311 1309
f 1311 1278 1309
f 1278 1276 1309
f 1309 1276 1256
f 1276 1241 1256
f 1256 1241 1255
f 1241 1233 1255
f 1233 1249 1255
f 1249 1254 1255
f 1255 1254 1250
f 1254 1248 1250
f 1248 1246 1250
f 1246 1226 1250
f 1226 1227 1250
f 1250 1227 1251
f 1227 1225 1251
f 1251 1225 1245
f 1225 1224 1245
f 1224 1244 1245
f 1245 1244 1236
f 1244 1224 1236
f 1224 1218 1236
f 1218 1202 1236
f 1202 1111 1236
f 1111 1103 1236
f 1103 1046 1236
f 1046 1003 1236
f 1003 937 1236
f 937 897 1236
f 897 821 1236
f 821 684 1236
f 684 614 1236
f 614 419 1236
f 1236 306 307
f 300 298 309
f 298 307 309
f 307 306 309
f 309 306 308
f 306 1236 308
f 308 1236 310
f 1236 419 310
f 419 316 310
f 310 316 317
f 316 148 317
f 148 149 317
f 149 183 317
f 183 246 317
f 246 274 317
f 317 274 286
f 274 270 286
f 270 287 286
f 287 279 286
f 286 279 278
f 278 279 228
f 228 279 229
f 279 231 229
f 231 235 229
f 229 235 223
f 223 235 200
f 200 235 204
f 235 234 204
f 204 234 203
f 234 246 203
f 203 246 195
f 246 183 195
f 183 181 195
f 181 196 195
f 195 196 194
f 194 196 145
f 145 196 147
f 147 196 159
f 196 182 159
f 182 161 159
f 158 159 160
f 159 161 160
f 160 161 106
f 106 161 108
f 161 184 108
f 108 184 107
f 184 183 107
f 183 149 107
f 107 149 157
f 149 148 157
f 148 155 157
f 155 156 157
f 157 156 100
f 156 345 100
f 345 57 100
f 57 49 100
f 49 99 100
f 100 99 54
f 54 99 48
f 99 49 48
f 49 57 48
f 48 57 56
f 57 345 56
f 345 344 56
f 344 62 56
f 62 66 56
f 56 66 73
f 66 74 73
f 74 335 73
f 73 335 75
f 75 335 334
f 335 331 334
f 331 330 334
f 330 387 334
f 334 387 350
f 350 387 355
f 387 449 355
f 449 518 355
f 355 518 1144
f 518 1143 1144
f 1143 1146 1144
f 1137 1141 1214
f 1141 1144 1214
f 1144 1146 1214
f 1146 1184 1214
f 1184 1223 1214
f 1223 1297 1214
f 1214 1297 1212
f 1212 1297 1358
f 1297 1373 1358
f 1358 1373 1372
f 1373 1398 1372
f 1372 1398 1399
f 1398 1401 1399
f 1399 1401 1400
f 1401 1384 1400
f 1384 1386 1400
f 1400 1386 1403
f 1386 1381 1403
f 1381 1402 1403
f 1402 1397 1403
f 1397 1396 1403
f 1403 1396 1414
f 1396 1397 1414
f 1397 1415 1414
f 1415 1411 1414
f 1411 1413 1414
f 1414 1413 1417
f 1413 1412 1417
f 1412 1416 1417
f 1416 1418 1417
f 1417 1418 1419
f 1418 1468 1419
f 1468 1467 1419
f 1467 1429 1419
f 1419 1429 1422
f 1429 1423 1422
f 1423 1425 1422
f 1422 1425 1424
f 1425 1436 1424
f 1424 1436 1435
f 1436 1485 1435
f 1435 1485 1481
f 1481 1485 1480
f 1480 1485 1484
f 1456 1484 1437
f 1484 1485 1437
f 1388 1390 1380
f 1437 1380 1379
f 1380 1390 1379
f 1379 1390 1389
f 1390 1388 1389
f 1399 1389 1387
f 1389 1388 1387
f 1387 1388 1375
f 1388 1380 1375
f 1375 1380 1442
f 1380 1437 1442
f 1437 1485 1442
f 1442 1485 1489
f 1485 1436 1489
f 1436 1430 1489
f 1430 1429 1489
f 1429 1467 1489
f 1467 1468 1489
f 1489 1468 1487
f 1487 1468 1495
f 1468 1418 1495
f 1418 1416 1495
f 1416 1410 1495
f 1410 1407 1495
f 1495 1407 1406
f 1407 1404 1406
f 1404 1405 1406
f 1406 1405 1421
f 1194 1195 1192
f 1163 1167 1193
f 1167 1192 1193
f 1192 1195 1193
f 1193 1195 1190
f 1191 1190 1421
f 1190 1195 1421
f 1195 1194 1421
f 1194 1420 1421
f 1421 1420 1428
f 1420 1194 1428
f 1194 1192 1428
f 1428 1192 1161
f 1192 1167 1161
f 264 240 269
f 269 240 214
f 240 205 214
f 205 150 214
f 214 150 143
f 150 112 143
f 112 95 143
f 143 95 92
f 78 82 90
f 90 82 89
f 82 92 89
f 89 92 93
f 92 95 93
f 93 95 96
f 95 112 96
f 96 112 113
f 112 150 113
f 113 150 151
f 150 205 151
f 151 205 206
f 205 240 206
f 206 240 241
f 240 264 241
f 241 264 265
f 267 281 266
f 266 281 280
f 281 265 280
f 265 264 280
f 264 269 280
f 269 341 280
f 280 341 392
f 341 370 392
f 370 380 392
f 380 382 392
f 951 948 947
f 400 418 399
f 418 417 399
f 398 399 405
f 399 417 405
f 405 417 757
f 417 755 757
f 757 755 754
f 754 755 777
f 777 755 778
f 755 417 778
f 417 418 778
f 780 778 838
f 778 836 838
f 838 836 837
f 836 835 837
f 837 835 947
f 812 947 811
f 947 835 811
f 835 809 811
f 811 809 806
f 806 809 807
f 809 835 807
f 835 836 807
f 836 778 807
f 778 418 807
f 807 418 808
f 808 418 788
f 418 400 788
f 788 400 595
f 400 399 595
f 595 399 593
f 399 398 593
f 398 467 593
f 593 467 592
f 592 467 586
f 586 467 459
f 467 466 459
f 466 461 459
f 459 461 460
f 460 461 402
f 461 466 402
f 402 466 407
f 466 467 407
f 467 398 407
f 406 407 397
f 407 398 397
f 397 398 404
f 398 405 404
f 404 405 756
f 405 757 756
f 757 754 756
f 754 777 756
f 756 777 779
f 777 778 779
f 778 780 779
f 780 838 779
f 838 837 779
f 779 837 959
f 837 947 959
f 947 948 959
f 959 948 954
f 1028 953 1027
f 953 954 1027
f 954 948 1027
f 948 951 1027
f 1027 951 977
f 951 947 977
f 977 947 978
f 947 812 978
f 812 800 978
f 800 932 978
f 978 932 968
f 932 936 968
f 968 936 967
f 967 936 935
f 935 936 934
f 934 936 931
f 936 932 931
f 931 932 799
f 932 800 799
f 800 812 799
f 812 811 799
f 811 806 799
f 753 798 752
f 752 798 787
f 798 799 787
f 799 806 787
f 806 807 787
f 807 808 787
f 808 788 787
f 788 595 787
f 787 595 594
f 595 593 594
f 593 592 594
f 592 586 594
f 594 586 585
f 585 586 458
f 586 459 458
f 459 460 458
f 458 460 401
f 460 402 401
f 402 407 401
f 407 406 401
f 406 397 401
f 401 397 386
f 386 397 396
f 397 404 396
f 396 404 414
f 404 756 414
f 756 779 414
f 779 959 414
f 414 959 958
f 959 954 958
f 954 953 958
f 953 1028 958
f 958 1028 1045
f 1045 1028 1041
f 1028 1027 1041
f 1041 1027 1026
f 1026 1027 976
f 1027 977 976
f 977 978 976
f 976 978 970
f 978 968 970
f 968 967 970
f 970 967 1154
f 1154 967 933
f 967 935 933
f 935 934 933
f 933 934 856
f 934 931 856
f 856 931 851
f 931 799 851
f 799 798 851
f 798 753 851
f 851 753 749
f 749 753 748
f 748 753 751
f 753 752 751
f 751 752 750
f 752 787 750
f 723 750 729
f 750 787 729
f 787 594 729
f 594 633 729
f 633 646 729
f 729 646 628
f 646 633 628
f 633 627 628
f 628 627 606
f 627 633 606
f 633 594 606
f 594 585 606
f 606 585 490
f 585 458 490
f 458 401 490
f 401 386 490
f 371 491 366
f 491 490 366
f 490 386 366
f 363 366 365
f 365 366 385
f 366 386 385
f 385 386 395
f 386 396 395
f 396 392 395
f 395 392 391
f 391 392 381
f 392 382 381
f 381 382 379
f 382 380 379
f 379 380 369
f 380 370 369
f 369 370 340
f 370 341 340
f 340 341 268
f 341 269 268
f 268 269 213
f 269 214 213
f 213 214 142
f 214 143 142
f 142 143 91
f 143 92 91
f 91 92 81
f 92 82 81
f 82 78 81
f 81 78 77
f 79 77 80
f 77 78 80
f 80 78 15
f 78 90 15
f 15 90 94
f 90 89 94
f 89 93 94
f 93 96 94
f 94 96 84
f 98 84 115
f 84 96 115
f 96 113 115
f 113 151 115
f 151 206 115
f 206 241 115
f 241 265 115
f 265 281 115
f 281 267 115
f 267 243 115
f 243 208 115
f 115 208 153
f 208 152 153
f 153 152 141
f 141 152 173
f 173 152 174
f 174 152 207
f 152 208 207
f 208 243 207
f 207 243 242
f 243 267 242
f 267 266 242
f 242 266 416
f 266 280 416
f 280 392 416
f 392 396 416
f 396 414 416
f 411 416 415
f 415 416 413
f 416 414 413
f 413 414 1044
f 414 958 1044
f 958 1045 1044
f 1044 1045 1040
f 1045 1041 1040
f 1041 1026 1040
f 1040 1026 1025
f 1026 976 1025
f 1025 976 975
f 976 970 975
f 975 970 969
f 969 970 1153
f 970 1154 1153
f 1153 1154 1155
f 1154 1156 1155
f 1155 1156 1157
f 1156 1158 1157
f 1157 1158 1160
f 1158 1161 1160
f 1160 1161 1166
f 1161 1167 1166
f 1167 1163 1166
f 1166 1163 1162
f 1162 1163 1164
f 1164 1163 1165
f 1163 1193 1165
f 1193 1190 1165
f 1165 1190 1196
f 1196 1190 1197
f 1190 1191 1197
f 1234 1197 1230
f 1197 1191 1230
f 1191 1421 1230
f 1421 1405 1230
f 1230 1405 1231
f 1405 1404 1231
f 1404 1260 1231
f 1231 1260 1257
f 1260 1262 1257
f 1262 1269 1257
f 1269 1296 1257
f 1296 1309 1257
f 1309 1256 1257
f 1256 1255 1257
f 1255 1250 1257
f 1250 1251 1257
f 1251 1245 1257
f 1245 1236 1257
f 1257 1236 1237
f 1236 307 1237
f 307 298 1237
f 1237 298 299
f 298 300 299
f 299 300 301
f 301 300 311
f 300 309 311
f 309 308 311
f 308 310 311
f 310 317 311
f 317 286 311
f 286 278 311
f 278 228 311
f 311 228 222
f 228 229 222
f 229 223 222
f 223 200 222
f 222 200 199
f 200 204 199
f 204 203 199
f 203 195 199
f 199 195 193
f 195 194 193
f 194 145 193
f 193 145 144
f 144 145 146
f 145 147 146
f 147 159 146
f 159 158 146
f 158 160 146
f 146 160 105
f 160 106 105
f 106 108 105
f 108 107 105
f 105 107 55
f 107 157 55
f 157 100 55
f 100 54 55
f 47 55 51
f 51 55 53
f 53 55 52
f 55 54 52
f 54 48 52
f 28 52 44
f 52 48 44
f 48 56 44
f 56 73 44
f 44 73 76
f 73 75 76
f 118 76 116
f 76 75 116
f 75 334 116
f 334 350 116
f 350 348 116
f 116 348 124
f 124 348 130
f 130 348 136
f 348 236 136
f 236 238 136
f 238 353 136
f 136 353 354
f 353 348 354
f 348 349 354
f 354 349 351
f 349 348 351
f 348 350 351
f 351 350 356
f 350 355 356
f 355 1144 356
f 356 1144 357
f 1144 1141 357
f 357 1141 358
f 358 1141 1142
f 1141 1137 1142
f 1137 1140 1142
f 1142 1140 1085
f 1140 1084 1085
f 1089 1085 1088
f 1085 1084 1088
f 1084 1139 1088
f 1088 1139 1138
f 1139 1137 1138
f 1138 1137 1147
f 1147 1137 1148
f 1148 1137 1215
f 1137 1214 1215
f 1214 1212 1215
f 1215 1212 1213
f 1212 1358 1213
f 1358 1357 1213
f 1357 1316 1213
f 1213 1316 1324
f 1316 1317 1324
f 1325 1324 1327
f 1327 1324 1326
f 1324 1317 1326
f 1317 1358 1326
f 1326 1358 1374
f 1358 1372 1374
f 1372 1399 1374
f 1399 1387 1374
f 1387 1375 1374
f 1374 1375 1432
f 1375 1442 1432
f 1432 1442 1441
f 1441 1442 1488
f 1442 1489 1488
f 1488 1489 1486
f 1489 1487 1486
f 1486 1487 1494
f 1487 1495 1494
f 1495 1406 1494
f 1406 1421 1494
f 1494 1421 1440
f 1421 1428 1440
f 1440 1428 1439
f 1428 1161 1439
f 1459 1460 1443
f 1443 1460 1444
f 1460 1447 1444
f 1444 1447 1466
f 1466 1447 1465
f 1465 1447 1475
f 1447 1460 1475
f 1475 1460 1461
f 1461 1460 1462
f 1460 1459 1462
f 1446 1462 1445
f 1462 1459 1445
f 1459 1443 1445
f 1443 1439 1445
f 1445 1439 1448
f 1439 1161 1448
f 1448 1161 1449
f 1161 1158 1449
f 1449 1158 1450
f 1158 1156 1450
f 1450 1156 922
f 1156 1154 922
f 1154 933 922
f 933 856 922
f 856 851 922
f 922 851 785
f 851 749 785
f 785 749 786
f 749 748 786
f 786 748 724
f 748 751 724
f 751 750 724
f 750 723 724
f 723 729 724
f 729 628 724
f 724 628 607
f 628 606 607
f 606 490 607
f 490 491 607
f 607 491 372
f 491 371 372
f 372 371 364
f 371 366 364
f 366 363 364
f 364 363 198
f 363 197 198
f 198 197 110
f 197 109 110
f 110 109 88
f 109 87 88
f 87 79 88
f 79 80 88
f 88 80 13
f 80 15 13
f 13 15 12
f 12 15 14
f 14 15 86
f 15 94 86
f 94 84 86
f 86 84 85
f 85 84 83
f 84 98 83
f 83 98 97
f 97 98 101
f 98 115 101
f 101 115 102
f 102 115 111
f 111 115 114
f 115 153 114
f 114 153 131
f 131 153 138
f 153 141 138
f 138 141 162
f 141 173 162
f 162 173 227
f 173 174 227
f 174 207 227
f 207 242 227
f 242 416 227
f 227 416 226
f 226 416 403
f 403 416 408
f 408 416 409
f 409 416 410
f 410 416 412
f 416 411 412
f 412 411 424
f 411 423 424
f 424 423 429
f 423 428 429
f 429 428 438
f 428 437 438
f 438 437 448
f 437 447 448
f 448 447 493
f 447 492 493
f 492 1164 493
f 1164 1165 493
f 1165 1196 493
f 1196 1197 493
f 1197 1234 493
f 493 1234 1235
f 1234 1230 1235
f 1230 1231 1235
f 1231 1257 1235
f 1257 1237 1235
f 1237 299 1235
f 299 291 1235
f 1235 291 290
f 294 290 295
f 290 291 295
f 291 299 295
f 299 301 295
f 301 311 295
f 295 311 217
f 311 222 217
f 222 199 217
f 199 193 217
f 193 144 217
f 217 144 140
f 144 146 140
f 146 105 140
f 105 55 140
f 55 47 140
f 140 47 139
f 139 47 46
f 47 51 46
f 46 51 50
f 50 51 26
f 26 51 29
f 51 53 29
f 53 52 29
f 52 28 29
f 29 28 45
f 28 44 45
f 44 76 45
f 45 76 119
f 76 118 119
f 118 116 119
f 119 116 117
f 116 124 117
f 117 124 125
f 125 124 137
f 124 130 137
f 130 136 137
f 136 354 137
f 137 354 361
f 354 351 361
f 351 356 361
f 356 357 361
f 357 358 361
f 361 358 360
f 358 1142 360
f 1142 1085 360
f 1085 1089 360
f 1089 1088 360
f 360 1088 1068
f 1068 1088 1087
f 1087 1088 1150
f 1088 1138 1150
f 1138 1147 1150
f 1150 1147 1151
f 1147 1148 1151
f 1148 1215 1151
f 1215 1213 1151
f 1213 1324 1151
f 1324 1325 1151
f 1151 1325 1178
f 1325 1327 1178
f 1176 1178 1347
f 1178 1327 1347
f 1347 1327 1349
f 1327 1326 1349
f 1349 1326 1426
f 1326 1374 1426
f 1374 1432 1426
f 1426 1432 1431
f 1432 1441 1431
f 1431 1441 1433
f 1441 1438 1433
f 1438 1437 1433
f 1433 1437 1434
f 1437 1379 1434
f 1379 1389 1434
f 1389 1399 1434
f 1399 1400 1434
f 1400 1403 1434
f 1403 1414 1434
f 1414 1417 1434
f 1417 1419 1434
f 1419 1422 1434
f 1422 1424 1434
f 1424 1435 1434
f 1435 1481 1434
f 1481 1480 1434
f 1434 1480 1454
f 1480 1484 1454
f 1484 1456 1454
f 1454 1456 1455
f 1456 1437 1455
f 1437 1438 1455
f 1438 1441 1455
f 1455 1441 1458
f 1441 1488 1458
f 1488 1486 1458
f 1458 1486 1473
f 1486 1494 1473
f 1473 1494 1503
f 1509 1507 1505
f 1507 1503 1505
f 1505 1503 1501
f 1501 1503 1499
f 1499 1503 1497
f 1503 1494 1497
f 1497 1494 1483
f 1494 1440 1483
f 1440 1439 1483
f 1439 1443 1483
f 1443 1444 1483
f 1444 1466 1483
f 1483 1466 1472
f 1472 1466 1493
f 1493 1466 1491
f 1466 1465 1491
f 1465 1475 1491
f 1491 1475 1479
f 1479 1475 1470
f 1475 1461 1470
f 1470 1461 1477
f 1461 1462 1477
f 1477 1462 1464
f 1462 1446 1464
f 1446 1445 1464
f 1445 1448 1464
f 1448 1449 1464
f 1449 1450 1464
f 1464 1450 1452
f 1450 922 1452
f 1452 922 924
f 924 922 927
f 922 785 927
f 785 786 927
f 786 724 927
f 927 724 819
f 724 607 819
f 767 819 722
f 819 607 722
f 722 607 374
f 607 372 374
f 372 364 374
f 374 364 376
f 376 364 327
f 364 198 327
f 327 198 255
f 198 110 255
f 255 110 216
f 121 323 72
f 323 219 72
f 219 192 72
f 72 192 36
f 192 172 36
f 36 172 21
f 21 172 17
f 172 168 17
f 168 188 17
f 188 216 17
f 17 216 6
f 216 110 6
f 110 88 6
f 88 13 6
f 13 12 6
f 12 11 6
f 6 11 10
f 10 11 8
f 8 11 19
f 11 12 19
f 12 14 19
f 14 86 19
f 86 85 19
f 85 83 19
f 83 97 19
f 97 101 19
f 101 102 19
f 25 19 38
f 19 102 38
f 102 111 38
f 111 114 38
f 114 131 38
f 131 138 38
f 61 38 104
f 38 138 104
f 138 162 104
f 104 162 164
f 162 227 164
f 164 227 225
f 227 226 225
f 225 226 273
f 226 403 273
f 403 408 273
f 273 408 321
f 321 408 339
f 408 409 339
f 409 410 339
f 339 410 343
f 410 412 343
f 412 424 343
f 343 424 347
f 424 429 347
f 429 438 347
f 438 448 347
f 448 493 347
f 347 493 333
f 333 493 319
f 313 319 315
f 319 493 315
f 493 1235 315
f 315 1235 305
f 1235 290 305
f 305 290 302
f 302 290 252
f 252 290 263
f 290 294 263
f 294 295 263
f 209 248 210
f 210 248 249
f 251 249 250
f 249 248 250
f 261 250 211
f 250 248 211
f 248 209 211
f 209 210 211
f 211 210 212
f 210 249 212
f 249 251 212
f 251 262 212
f 212 262 263
f 263 262 257
f 262 251 257
f 251 250 257
f 257 250 256
f 250 261 256
f 256 261 259
f 261 260 259
f 259 260 166
f 260 261 166
f 261 211 166
f 166 211 133
f 211 212 133
f 212 263 133
f 263 295 133
f 295 217 133
f 217 140 133
f 140 139 133
f 133 139 135
f 135 139 64
f 139 46 64
f 64 46 59
f 23 59 27
f 59 46 27
f 46 50 27
f 50 26 27
f 3 1 4
f 1 2 4
f 4 2 34
f 34 2 32
f 2 1 32
f 27 32 31
f 32 1 31
f 1 3 31
f 31 3 33
f 3 4 33
f 4 34 33
f 33 34 41
f 34 32 41
f 32 27 41
f 27 26 41
f 26 29 41
f 29 45 41
f 40 41 123
f 41 45 123
f 45 119 123
f 123 119 129
f 119 117 129
f 117 125 129
f 125 137 129
f 137 361 129
f 127 129 128
f 129 361 128
f 128 361 362
f 362 361 359
f 361 360 359
f 359 360 1067
f 360 1068 1067
f 1067 1068 1086
f 1068 1087 1086
f 1086 1087 1149
f 1087 1150 1149
f 1150 1151 1149
f 1149 1151 1152
f 1152 1151 1177
f 1151 1178 1177
f 1177 1178 1175
f 1178 1176 1175
f 1175 1176 1346
f 1176 1347 1346
f 1346 1347 1348
f 1347 1349 1348
f 1348 1349 1427
f 1349 1426 1427
f 1426 1431 1427
f 1431 1433 1427
f 1427 1433 1453
f 1433 1434 1453
f 1434 1454 1453
f 1453 1454 1457
f 1454 1455 1457
f 1455 1458 1457
f 1457 1458 1474
f 1458 1473 1474
f 1474 1473 1502
f 1473 1503 1502
f 1502 1503 1506
f 1503 1507 1506
f 1506 1507 1508
f 1507 1509 1508
f 1508 1509 1504
f 1509 1505 1504
f 1504 1505 1500
f 1505 1501 1500
f 1500 1501 1498
f 1501 1499 1498
f 1498 1499 1496
f 1499 1497 1496
f 1496 1497 1482
f 1497 1483 1482
f 1482 1483 1471
f 1483 1472 1471
f 1472 1493 1471
f 1471 1493 1492
f 1492 1493 1490
f 1493 1491 1490
f 1490 1491 1478
f 1491 1479 1478
f 1478 1479 1469
f 1479 1470 1469
f 1469 1470 1476
f 1470 1477 1476
f 1476 1477 1463
f 1477 1464 1463
f 1463 1464 1451
f 1464 1452 1451
f 1452 924 1451
f 1451 924 923
f 923 924 926
f 924 927 926
f 926 927 818
f 927 819 818
f 818 819 766
f 819 767 766
f 766 767 721
f 767 722 721
f 721 722 373
f 722 374 373
f 374 376 373
f 373 376 375
f 376 327 375
f 375 327 326
f 326 327 254
f 327 255 254
f 254 255 215
f 255 216 215
f 215 216 187
f 216 188 187
f 187 188 167
f 188 168 167
f 167 168 171
f 168 172 171
f 171 172 191
f 172 192 191
f 191 192 218
f 192 219 218
f 218 219 322
f 219 323 322
f 322 323 120
f 323 121 120
f 120 121 71
f 121 72 71
f 71 72 35
f 72 36 35
f 35 36 20
f 36 21 20
f 20 21 16
f 21 17 16
f 16 17 5
f 17 6 5
f 5 6 9
f 6 10 9
f 9 10 7
f 10 8 7
f 8 19 7
f 7 19 18
f 18 19 24
f 19 25 24
f 24 25 37
f 25 38 37
f 37 38 60
f 38 61 60
f 60 61 103
f 61 104 103
f 103 104 163
f 104 164 163
f 164 225 163
f 163 225 224
f 224 225 272
f 225 273 272
f 272 273 320
f 273 321 320
f 320 321 338
f 321 339 338
f 338 339 342
f 339 343 342
f 342 343 346
f 343 347 346
f 346 347 332
f 347 333 332
f 332 333 318
f 333 319 318
f 318 319 312
f 319 313 312
f 312 313 314
f 313 315 314
f 314 315 304
f 315 305 304
f 305 302 304
f 304 302 303
f 303 302 253
f 302 252 253
f 252 263 253
f 263 257 253
f 257 256 253
f 253 256 258
f 256 259 258
f 258 259 165
f 259 166 165
f 165 166 132
f 166 133 132
f 132 133 134
f 133 135 134
f 134 135 65
f 135 64 65
f 65 64 58
f 64 59 58
f 58 59 22
f 59 23 22
f 23 27 22
f 22 27 30
f 27 31 30
f 31 33 30
f 30 33 42
f 127 42 43
f 43 42 39
f 42 33 39
f 33 41 39
f 41 40 39
f 40 123 39
f 39 123 122
f 123 129 122
f 122 129 126
f 129 127 126
f 127 43 126
f 43 39 126
f 122 126 39
